<?xml version="1.0" encoding="utf-8"?>
<!-- Generator: Adobe Illustrator 25.0.1, SVG Export Plug-In . SVG Version: 6.00 Build 0)  -->
<svg version="1.2" baseProfile="tiny" id="Layer_1" xmlns="http://www.w3.org/2000/svg" xmlns:xlink="http://www.w3.org/1999/xlink"
	 x="0px" y="0px" viewBox="0 0 18.99 24.55" overflow="visible" xml:space="preserve">
<g id="Group_2473" transform="translate(-261.699 -433.301)">
	<path id="Path_824" fill="#008CF8" d="M280.69,445.57c-0.94-1.17-1.87-2.34-2.8-3.51c-1.28-1.6-2.56-3.2-3.84-4.8
		c-0.98-1.23-1.96-2.46-2.94-3.69c-0.13-0.18-0.34-0.28-0.57-0.27h-1.82c-2.27-0.01-4.53-0.01-6.79,0c-0.02,0-0.04,0-0.06,0h-0.17
		c0.48,0.56,0.94,1.08,1.38,1.6c0.23,0.34,0.49,0.64,0.79,0.92c0.1,0.11,0.24,0.17,0.39,0.19c0.36,0.05,0.73,0.05,1.09,0
		c1.26,0,2.53,0,3.79-0.01c0.26-0.02,0.52,0.11,0.65,0.34c2.14,2.97,4.29,5.93,6.45,8.89c0.19,0.2,0.19,0.5,0,0.7
		c-2.16,2.96-4.31,5.92-6.45,8.89c-0.14,0.23-0.39,0.36-0.65,0.34c-1.26-0.01-2.53-0.01-3.79-0.01c-0.36-0.05-0.73-0.05-1.09,0
		c-0.15,0.01-0.29,0.08-0.39,0.19c-0.3,0.28-0.56,0.59-0.79,0.92c-0.44,0.52-0.9,1.04-1.38,1.6h0.17c0.02,0,0.04,0,0.06,0
		c2.27,0,4.53,0,6.79,0h1.82c0.22,0.01,0.44-0.09,0.57-0.27c0.98-1.23,1.96-2.46,2.94-3.69c1.28-1.6,2.56-3.2,3.84-4.8
		C278.82,447.93,279.75,446.76,280.69,445.57l-0.01,0L280.69,445.57z"/>
	<path id="Path_825" fill="#0063B0" d="M274.14,445.58c-0.01-0.1-0.05-0.19-0.11-0.26c-1.78-2.44-3.56-4.89-5.33-7.34
		c-0.1-0.17-0.29-0.26-0.49-0.25c-1.48,0.01-2.97,0-4.45,0.01c-0.1,0-0.19,0.01-0.33,0.02v0.01h-0.03c0.08,0.11,0.12,0.16,0.16,0.21
		l5.93,7.26c0.14,0.17,0.21,0.27,0.21,0.36s-0.07,0.19-0.21,0.36l-5.93,7.26c-0.04,0.05-0.08,0.1-0.16,0.21h0.03v0.01
		c0.14,0.01,0.24,0.02,0.33,0.02c1.48,0,2.97,0,4.45,0.01c0.2,0.01,0.39-0.08,0.49-0.25c1.77-2.45,3.55-4.9,5.33-7.34
		C274.09,445.78,274.13,445.69,274.14,445.58C274.14,445.59,274.14,445.59,274.14,445.58C274.14,445.58,274.14,445.58,274.14,445.58
		z"/>
</g>
</svg>
