<?xml version="1.0" encoding="utf-8"?>
<!-- Generator: Adobe Illustrator 25.0.1, SVG Export Plug-In . SVG Version: 6.00 Build 0)  -->
<svg version="1.2" baseProfile="tiny" id="Layer_1" xmlns="http://www.w3.org/2000/svg" xmlns:xlink="http://www.w3.org/1999/xlink"
	 x="0px" y="0px" viewBox="0 0 74.25 57" overflow="visible" xml:space="preserve">
<g>
	<path id="Path_156" fill="#E50019" d="M58.33,25.3c-0.11,0-0.21-0.02-0.32-0.06l-35.4-13.32c-0.45-0.21-0.64-0.75-0.43-1.2
		c0.19-0.4,0.63-0.6,1.06-0.48l35.4,13.32c0.46,0.18,0.69,0.7,0.51,1.17C59.02,25.07,58.7,25.3,58.33,25.3L58.33,25.3z"/>
	<path id="Path_159" fill="#E50019" d="M40.7,8.13c-0.13,0-0.25-0.02-0.37-0.07l-2.94-1.11c-0.55-0.21-0.82-0.82-0.62-1.36
		c0.21-0.55,0.82-0.82,1.36-0.62l2.94,1.11c0.55,0.2,0.83,0.81,0.62,1.36C41.54,7.85,41.15,8.13,40.7,8.13L40.7,8.13z"/>
	<path fill="#0063B0" d="M73.42,18.26L57.8,12.37c-0.52-0.17-1.08,0.09-1.3,0.59c-0.23,0.54,0.02,1.16,0.56,1.39l13.47,5.07
		l-1.93,1.06c-0.01,0.01-0.02,0.01-0.04,0.02l-7.58,4.16c-0.22,0.12-0.39,0.32-0.48,0.56l-2.88,7.65c-0.07,0.2-0.22,0.36-0.41,0.44
		c-0.19,0.08-0.41,0.09-0.61,0.02l-25.66-9.66c-0.02-0.01-0.05-0.02-0.07-0.02l-3.84-1.44c0,0,0,0,0,0c0,0,0,0-0.01,0s0,0-0.01,0
		l-8.39-3.15c0,0,0,0-0.01,0c-0.57-0.21-0.85-0.85-0.64-1.42L23.53,2.9c0.1-0.27,0.3-0.49,0.57-0.6c0.26-0.12,0.57-0.13,0.84-0.03
		l5.52,2.07c0.53,0.18,1.12-0.08,1.33-0.61c0.22-0.54-0.05-1.16-0.59-1.37l-5.53-2.08c-0.8-0.3-1.68-0.27-2.45,0.09
		c-0.78,0.35-1.38,0.99-1.68,1.79l-5.54,14.72c-0.62,1.66,0.21,3.52,1.88,4.15l7.42,2.78l-1.04,2.74c-0.55,1.47,0.19,3.11,1.66,3.66
		l4.22,1.59l-5.92,10.01H13.46v-6.3c0-0.58-0.47-1.06-1.06-1.06H8.66v-1.27c-0.01-2.37-1.92-4.28-4.29-4.29h-2.7
		c-0.88,0-1.58,0.71-1.59,1.59v24.79c0,0.88,0.71,1.58,1.59,1.59h2.7v0c2.37,0,4.29-1.92,4.29-4.29v-1.28h3.74
		c0.58,0,1.06-0.47,1.06-1.06v-6.3h11.38v0c0.37,0,0.72-0.2,0.91-0.52l6.41-10.85l2.79,1.05c0.32,0.12,0.66,0.18,1,0.18l0.01,0
		c1.18-0.01,2.24-0.74,2.66-1.85l1.03-2.74l16.21,6.1c0.33,0.12,0.68,0.19,1.03,0.19c1.21,0,2.29-0.75,2.71-1.88l0.76-2.02
		l2.45,0.97c0.31,0.12,0.64,0.19,0.98,0.18l0,0c1.09,0,2.08-0.66,2.49-1.68l3.56-8.85l3.72-2.04c0.22-0.12,0.39-0.32,0.48-0.56
		C74.25,19.07,73.97,18.46,73.42,18.26z M4.37,54.74H2.2V31.01h2.18c1.2,0,2.17,0.97,2.17,2.17v2.32c0,0.01,0,0.01,0,0.01v14.72
		c0,0.01,0,0.01,0,0.01v2.32C6.54,53.77,5.57,54.74,4.37,54.74z M11.34,49.17H8.66V36.57h2.69V49.17z M36.63,31.21
		C36.63,31.21,36.63,31.21,36.63,31.21c-0.14,0.38-0.56,0.57-0.94,0.42l-9.02-3.39c-0.37-0.14-0.56-0.56-0.42-0.94l1.03-2.74
		l1.99,0.74l8.4,3.16L36.63,31.21z M64.31,30.27c-0.12,0.28-0.44,0.42-0.72,0.31l-2.49-0.98l1.23-3.28l4.57-2.51L64.31,30.27z"/>
	<polygon fill="#0063B0" points="56.89,35.5 56.89,35.5 56.89,35.5 	"/>
</g>
</svg>
