<?xml version="1.0" encoding="utf-8"?>
<!-- Generator: Adobe Illustrator 25.0.1, SVG Export Plug-In . SVG Version: 6.00 Build 0)  -->
<svg version="1.2" baseProfile="tiny" id="Layer_1" xmlns="http://www.w3.org/2000/svg" xmlns:xlink="http://www.w3.org/1999/xlink"
	 x="0px" y="0px" viewBox="0 0 90.45 58.93" overflow="visible" xml:space="preserve">
<path id="Path_152" fill="#0063B0" d="M89.37,19.15h-4.74v-4.2c0-0.61-0.49-1.1-1.1-1.1h-5.21V1.1c0-0.61-0.49-1.1-1.1-1.1h-3.76
	c-0.17,0-0.34,0.04-0.49,0.12L69.02,2.1c-0.37,0.19-0.61,0.57-0.61,0.98v1.78H22.05v-1.6c0-0.4-0.22-0.77-0.57-0.97l-3.94-2.16
	C17.38,0.05,17.2,0,17.01,0h-3.76c-0.61,0-1.1,0.49-1.1,1.1v12.75H6.94c-0.61,0-1.1,0.49-1.1,1.1v3.9H1.1c-0.61,0-1.1,0.49-1.1,1.1
	v5.34c0,0.61,0.49,1.1,1.1,1.1h4.74v4.2c0,0.61,0.49,1.1,1.1,1.1h5.21v12.74c0,0.61,0.49,1.1,1.1,1.1h3.76
	c0.17,0,0.34-0.04,0.49-0.12l3.94-1.98c0.37-0.19,0.61-0.57,0.61-0.99v-1.78h3.37v2.95c0,3.19,2.59,5.77,5.78,5.78h5.48
	c1.97,0,3.57,1.6,3.58,3.57v0.18c0,1.97-1.6,3.57-3.58,3.58H6.86c-0.61,0-1.1,0.49-1.1,1.1c0,0.61,0.49,1.1,1.1,1.1h29.82
	c3.19,0,5.78-2.59,5.78-5.78v-0.18c0-3.19-2.59-5.78-5.78-5.78H31.2c-1.97,0-3.57-1.6-3.57-3.57v-2.95h40.78v1.6
	c0,0.4,0.22,0.77,0.57,0.97l3.94,2.16c0.16,0.09,0.34,0.13,0.53,0.13h3.76c0.61,0,1.1-0.49,1.1-1.1V31.71h5.21
	c0.61,0,1.1-0.49,1.1-1.1V26.7h4.74c0.61,0,1.1-0.49,1.1-1.1v-5.34C90.46,19.65,89.97,19.16,89.37,19.15L89.37,19.15z M5.84,24.2
	H2.2v-3.14h3.64V24.2z M19.85,41.79l-3.1,1.55h-2.4V28.57c0-0.61-0.49-1.1-1.1-1.1c-0.61,0-1.1,0.49-1.1,1.1v0.93h-4.1V16.05h4.1
	v8.64c0,0.61,0.49,1.1,1.1,1.1c0.61,0,1.1-0.49,1.1-1.1l0,0V2.21h2.38l3.12,1.71L19.85,41.79z M22.05,7.06h6.3l-6.3,16.83V7.06z
	 M23.79,38.49h-1.73v-8.31l8.65-23.12h4.84L23.79,38.49z M26.14,38.49L37.9,7.06h4.84L30.98,38.49H26.14z M33.33,38.49L45.1,7.06
	h4.84L38.18,38.49H33.33z M40.53,38.49L52.29,7.06h4.84L45.37,38.49H40.53z M47.72,38.49L59.49,7.06h4.84L52.56,38.49H47.72z
	 M68.41,38.49h-6.3l6.3-16.83V38.49z M68.41,15.37l-8.65,23.12h-4.84L66.68,7.06h1.73V15.37z M82.42,29.5h-4.11v-9.03
	c0-0.61-0.49-1.1-1.1-1.1c-0.61,0-1.1,0.49-1.1,1.1v22.88h-2.38l-3.12-1.71V3.76l3.1-1.55h2.4v13.97c0,0.61,0.49,1.1,1.1,1.1
	c0.61,0,1.1-0.49,1.1-1.1v-0.13h4.11L82.42,29.5z M88.27,24.49h-3.64v-3.14h3.64V24.49z"/>
</svg>
