<?xml version="1.0" encoding="utf-8"?>
<!-- Generator: Adobe Illustrator 25.0.1, SVG Export Plug-In . SVG Version: 6.00 Build 0)  -->
<svg version="1.2" baseProfile="tiny" id="Layer_1" xmlns="http://www.w3.org/2000/svg" xmlns:xlink="http://www.w3.org/1999/xlink"
	 x="0px" y="0px" viewBox="0 0 68.24 60.6" overflow="visible" xml:space="preserve">
<g>
	<path id="Path_129" fill="#E50019" d="M20.86,20.9h-0.71l1.61-2.34c0.33-0.44,0.24-1.07-0.2-1.4c-0.44-0.33-1.07-0.24-1.4,0.2
		c-0.02,0.02-0.03,0.04-0.05,0.07l-2.37,3.44c-0.34,0.39-0.42,0.95-0.21,1.42c0.23,0.42,0.69,0.66,1.16,0.62h0.7l-1.61,2.34
		c-0.31,0.45-0.2,1.08,0.26,1.39c0.45,0.31,1.08,0.2,1.39-0.26l2.37-3.43c0.34-0.39,0.42-0.95,0.21-1.42
		C21.79,21.1,21.34,20.86,20.86,20.9L20.86,20.9z"/>
	<path id="Path_130" fill="#E50019" d="M25.9,12.67H13.66c-1.72,0-3.11,1.39-3.11,3.11v12.24c0,1.72,1.4,3.11,3.11,3.11H25.9
		c1.72,0,3.11-1.39,3.11-3.11V15.78C29.01,14.06,27.62,12.67,25.9,12.67L25.9,12.67z M27.01,28.02c0,0.61-0.5,1.11-1.11,1.11H13.66
		c-0.62,0-1.11-0.5-1.12-1.11V15.78c0-0.62,0.5-1.11,1.12-1.11H25.9c0.61,0,1.11,0.5,1.11,1.11V28.02z"/>
	<path id="Path_131" fill="#E50019" d="M24.73,33.49h-9.9c-0.55,0-1,0.45-1,1s0.45,1,1,1h9.9c0.55,0,1-0.45,1-1
		S25.28,33.49,24.73,33.49z"/>
	<path id="Path_132" fill="#E50019" d="M24.73,37.84h-9.9c-0.55,0-1,0.45-1,1s0.45,1,1,1h9.9c0.55,0,1-0.45,1-1
		S25.28,37.84,24.73,37.84z"/>
	<path id="Path_133" fill="#E50019" d="M36.51,33.39c-1.81,0-3.28,1.47-3.28,3.28c0,1.81,1.47,3.28,3.28,3.28
		c1.81,0,3.28-1.47,3.28-3.28C39.79,34.85,38.32,33.39,36.51,33.39z M36.51,37.94c-0.71,0-1.28-0.57-1.28-1.28s0.57-1.28,1.28-1.28
		c0.71,0,1.28,0.57,1.28,1.28c0,0,0,0,0,0C37.79,37.37,37.22,37.94,36.51,37.94z"/>
	<path id="Path_134" fill="#E50019" d="M46.26,33.39c-1.81,0-3.28,1.47-3.28,3.28c0,1.81,1.47,3.28,3.28,3.28
		c1.81,0,3.28-1.47,3.28-3.28C49.54,34.86,48.07,33.39,46.26,33.39z M46.26,37.94c-0.71,0-1.28-0.57-1.28-1.28s0.57-1.28,1.28-1.28
		c0.71,0,1.28,0.57,1.28,1.28c0,0,0,0,0,0C47.54,37.37,46.97,37.94,46.26,37.94z"/>
	<path id="Path_135" fill="#E50019" d="M40.98,29.13h-6.71V14.67h18.66v14.47H45.6c-0.55,0-1,0.45-1,1s0.45,1,1,1h7.7
		c0.9,0,1.63-0.73,1.64-1.63V14.3c0-0.9-0.73-1.63-1.64-1.63H33.91c-0.9,0-1.63,0.73-1.63,1.63v15.2c0,0.9,0.73,1.63,1.63,1.63h7.08
		c0.55,0,1-0.45,1-1S41.54,29.13,40.98,29.13L40.98,29.13z"/>
	<path id="Path_136" fill="#E50019" d="M37.62,19.03c0.39,0.39,1.02,0.39,1.41,0c0,0,0,0,0,0c0.39-0.39,0.39-1.02,0-1.41
		c-0.39-0.39-1.02-0.39-1.41,0C37.22,18,37.22,18.63,37.62,19.03L37.62,19.03z"/>
	<path id="Path_137" fill="#E50019" d="M44.5,17.86c-0.23-0.5-0.82-0.73-1.32-0.5c-0.5,0.23-0.73,0.82-0.5,1.32
		c0.01,0.02,0.02,0.04,0.03,0.07v0.01c0.17,0.34,0.51,0.55,0.89,0.55c0.16,0,0.31-0.04,0.45-0.11
		C44.54,18.96,44.74,18.36,44.5,17.86C44.49,17.86,44.49,17.86,44.5,17.86L44.5,17.86z"/>
	<path id="Path_138" fill="#E50019" d="M48.18,19.03c0.18,0.19,0.44,0.29,0.7,0.29c0.56,0,1.01-0.44,1.01-1c0-0.56-0.44-1.01-1-1.01
		s-1.01,0.44-1.01,1C47.88,18.57,47.99,18.83,48.18,19.03L48.18,19.03z"/>
	<path id="Path_139" fill="#E50019" d="M37.61,22.6L37.61,22.6c0.4,0.4,1.03,0.4,1.42,0.01c0.39-0.39,0.39-1.02,0-1.41
		c-0.39-0.39-1.02-0.39-1.41,0C37.22,21.59,37.22,22.22,37.61,22.6L37.61,22.6z"/>
	<path id="Path_140" fill="#E50019" d="M43.15,21c-0.49,0.25-0.69,0.85-0.45,1.34v0.01c0.25,0.49,0.85,0.69,1.34,0.44
		c0.49-0.25,0.69-0.85,0.45-1.35C44.24,20.95,43.64,20.75,43.15,21L43.15,21z"/>
	<path id="Path_141" fill="#E50019" d="M48.17,22.6L48.17,22.6c0.19,0.19,0.45,0.3,0.71,0.3c0.55,0,1-0.44,1.01-0.99
		c0-0.55-0.44-1-0.99-1.01c-0.55,0-1,0.44-1.01,0.99C47.89,22.16,47.99,22.41,48.17,22.6L48.17,22.6z"/>
	<path id="Path_142" fill="#E50019" d="M37.77,26.32c0.46,0.3,1.08,0.18,1.39-0.28l0.01-0.01c0.33-0.44,0.24-1.07-0.2-1.4
		c-0.44-0.33-1.07-0.24-1.4,0.2c-0.02,0.03-0.05,0.07-0.07,0.1l-0.01,0.01C37.18,25.4,37.31,26.02,37.77,26.32L37.77,26.32z"/>
	<path id="Path_143" fill="#E50019" d="M43.6,26.49c0.43,0,0.81-0.28,0.95-0.68v-0.01c0.17-0.52-0.11-1.08-0.63-1.26c0,0,0,0-0.01,0
		c-0.53-0.16-1.09,0.13-1.25,0.66c-0.16,0.53,0.13,1.09,0.66,1.25C43.41,26.47,43.51,26.49,43.6,26.49L43.6,26.49z"/>
	<path id="Path_144" fill="#E50019" d="M48.33,26.32c0.16,0.11,0.35,0.17,0.55,0.17c0.34,0,0.65-0.17,0.84-0.45l0.01-0.01
		c0.33-0.44,0.23-1.07-0.21-1.4s-1.07-0.23-1.4,0.21c-0.02,0.03-0.04,0.06-0.06,0.09l-0.01,0.01C47.74,25.4,47.87,26.02,48.33,26.32
		L48.33,26.32z"/>
	<path id="Path_145" fill="#0063B0" d="M65.49,42.69V3.89C65.57,1.83,63.96,0.09,61.9,0s-3.81,1.52-3.89,3.59c0,0.05,0,0.1,0,0.16
		V7.6h-3.07V5.85c0-2.07-1.68-3.75-3.75-3.75H45.7c-2.07,0-3.75,1.68-3.75,3.75V7.6h-8.69V5.85c0-2.07-1.68-3.75-3.75-3.75H14.3
		c-2.07,0-3.75,1.68-3.75,3.75V7.6H7.49V3.9C7.42,1.83,5.69,0.21,3.62,0.27C1.6,0.34-0.01,2.01,0,4.04v19.42c0,0.55,0.45,1,1,1
		s1-0.45,1-1V4.04C2,3.08,2.78,2.3,3.75,2.3c0.91,0,1.66,0.7,1.74,1.6v38.15c0.02,1.57,1.29,2.84,2.86,2.86h39.66
		c-0.57,1.09-0.95,2.27-1.11,3.49H8.35c-3.5,0-6.34-2.84-6.35-6.35V28.08c0-0.55-0.45-1-1-1s-1,0.45-1,1v13.97
		c0.01,4.61,3.74,8.34,8.35,8.35h1.97v3.67H8.59c-1.8,0.03-3.24,1.52-3.2,3.32c0.03,1.76,1.45,3.17,3.2,3.2h10.95
		c1.8,0.03,3.29-1.4,3.32-3.2c0.03-1.8-1.4-3.29-3.2-3.32c-0.04,0-0.08,0-0.11,0h-1.73V50.4h29c0.29,5.92,5.32,10.48,11.24,10.19
		c5.92-0.29,10.48-5.32,10.19-11.24C68.11,46.88,67.14,44.53,65.49,42.69L65.49,42.69z M60,3.76c0-0.96,0.78-1.74,1.74-1.74
		c0.98,0.02,1.76,0.83,1.75,1.81c0,0.03,0,0.05,0,0.08v37.06c-1.06-0.71-2.24-1.23-3.49-1.53V3.76z M43.95,5.86
		c0-0.97,0.78-1.75,1.75-1.75h5.49c0.97,0,1.75,0.79,1.75,1.75V7.6h-8.98V5.86z M12.55,5.86c0-0.97,0.78-1.75,1.75-1.75h15.21
		c0.97,0,1.75,0.78,1.75,1.75V7.6H12.55L12.55,5.86z M8.35,42.92c-0.47-0.01-0.85-0.39-0.86-0.86V9.6H58v29.55
		c-0.16-0.01-0.32-0.01-0.48-0.01c-3.14,0-6.12,1.38-8.16,3.77L8.35,42.92z M19.54,56.07c0.7,0,1.26,0.57,1.26,1.26
		c0,0.7-0.57,1.26-1.26,1.26l0,0H8.59c-0.7,0-1.26-0.57-1.26-1.26c0-0.7,0.57-1.26,1.26-1.26h2.73c0.55,0,1-0.45,1-1V50.4h3.49v4.67
		c0,0.55,0.45,1,1,1H19.54z M57.52,58.59c-4.82,0-8.73-3.91-8.73-8.73c0-4.82,3.91-8.73,8.73-8.73c4.82,0,8.73,3.91,8.73,8.73
		C66.24,54.68,62.34,58.59,57.52,58.59z"/>
	<path id="Path_146" fill="#0063B0" d="M57.52,43.86c-3.31,0-6,2.69-6,6s2.69,6,6,6s6-2.69,6-6C63.51,46.55,60.83,43.87,57.52,43.86
		z M57.52,53.86c-2.21,0-4-1.79-4-4s1.79-4,4-4s4,1.79,4,4C61.51,52.07,59.72,53.86,57.52,53.86z"/>
</g>
</svg>
