<?xml version="1.0" encoding="utf-8"?>
<!-- Generator: Adobe Illustrator 25.0.1, SVG Export Plug-In . SVG Version: 6.00 Build 0)  -->
<svg version="1.1" id="Layer_1" xmlns="http://www.w3.org/2000/svg" xmlns:xlink="http://www.w3.org/1999/xlink" x="0px" y="0px"
	 viewBox="0 0 533.95 323.18" enable-background="new 0 0 533.95 323.18" xml:space="preserve">
<g id="Group_154" transform="translate(-58.164 -59.933)">
	<g id="Group_125" transform="translate(88.406 59.933)">
		<g id="Group_124">
			<path id="Path_256" fill="none" stroke="#C2D3E9" stroke-width="2.118" stroke-miterlimit="10" d="M495.26,109.4
				c3.34,11.43,5.38,23.2,6.11,35.09c3.12,45.64-9.38,85.86-20.41,111.57c-5,11.69-10.82,23.01-17.41,33.89"/>
			<path id="Path_257" fill="none" stroke="#C2D3E9" stroke-width="2.118" stroke-miterlimit="10" d="M11.78,287.77
				C-1.34,222.62-3.48,170.06,5.25,127.28c3.14-15.84,8.23-31.22,15.15-45.81"/>
			<path id="Path_258" fill="none" stroke="#C2D3E9" stroke-width="2.118" stroke-miterlimit="10" d="M487.65,102.92
				c4.72,12.44,7.59,26.4,8.66,41.96c3.04,44.5-9.18,83.79-19.96,108.92c-5.3,12.41-11.55,24.4-18.69,35.86"/>
			<path id="Path_259" fill="none" stroke="#C2D3E9" stroke-width="2.118" stroke-miterlimit="10" d="M16.98,287.77
				C3.8,222.87,1.59,170.69,10.21,128.43c4.3-21.09,11.41-40.07,21.19-56.63"/>
			<path id="Path_260" fill="none" stroke="#C2D3E9" stroke-width="2.118" stroke-miterlimit="10" d="M479.24,96.44
				c6.75,13.97,10.72,30.19,12,48.84c2.96,43.35-8.98,81.72-19.52,106.27c-5.62,13.2-12.35,25.9-20.12,37.96"/>
			<path id="Path_261" fill="none" stroke="#C2D3E9" stroke-width="2.118" stroke-miterlimit="10" d="M22.18,287.77
				c-13.22-64.66-15.51-116.45-7-158.19c5.3-26,14.98-48.66,28.76-67.36"/>
			<path id="Path_262" fill="#C2D3E9" d="M28.18,291.64h415.66c0,0,47.91-64.26,42.33-145.97S422.78,43.6,350,30.25
				S191.99-21.25,106.75,18.6C4.38,66.45,4.36,178.77,28.18,291.64z"/>
		</g>
		
			<linearGradient id="Path_263_1_" gradientUnits="userSpaceOnUse" x1="-28.1435" y1="322.1669" x2="-28.3985" y2="321.3709" gradientTransform="matrix(322.1482 0 0 -205.0022 9274.4678 66190.6016)">
			<stop  offset="0.053" style="stop-color:#8CB4DF"/>
			<stop  offset="1" style="stop-color:#8CB4DF;stop-opacity:0"/>
		</linearGradient>
		<path id="Path_263" fill="url(#Path_263_1_)" d="M249.52,207.38c-7.64-76.3-97.87-74.21-97.87-74.21
			C119.7,85.32,62.52,84.66,34.56,87.65c-27.4,55.6-22.06,129.67-6.37,203.99h309.17C326.86,211.13,249.52,207.38,249.52,207.38z"/>
		
			<linearGradient id="Path_264_1_" gradientUnits="userSpaceOnUse" x1="-27.9816" y1="322.616" x2="-27.8406" y2="321.76" gradientTransform="matrix(179.4979 0 0 -201.387 5395.0049 65022.2383)">
			<stop  offset="0.053" style="stop-color:#8CB4DF"/>
			<stop  offset="1" style="stop-color:#8CB4DF;stop-opacity:0"/>
		</linearGradient>
		<path id="Path_264" fill="url(#Path_264_1_)" d="M443.84,291.64c0,0,47.91-64.27,42.33-145.97c-1.57-22.89-7.23-40.96-16.17-55.42
			c-28.49,6.09-73.81,23.82-106.02,75.42c-24.42,39.3-43.53,81.66-56.85,125.97H443.84z"/>
	</g>
	<g id="Group_126" transform="translate(58.164 207.911)">
		
			<linearGradient id="Path_265_1_" gradientUnits="userSpaceOnUse" x1="-366.7761" y1="161.6763" x2="-365.7451" y2="161.6763" gradientTransform="matrix(31.6125 0 0 -25.1587 -192.612 4120.8408)">
			<stop  offset="0.043" style="stop-color:#FC9017"/>
			<stop  offset="1" style="stop-color:#ED491F"/>
		</linearGradient>
		<path id="Path_265" fill="url(#Path_265_1_)" d="M31.61,64.52c0,0-7.86-14.39-11.74-19.02c-5.29-6.32-14.76-7.35-18.84,2.73
			c-3.75,9.28,3.32,15.71,10.81,17.15S31.61,64.52,31.61,64.52z"/>
		
			<linearGradient id="Path_266_1_" gradientUnits="userSpaceOnUse" x1="-592.1727" y1="164.7202" x2="-591.1677" y2="164.7202" gradientTransform="matrix(19.7173 0 0 -32.1348 -139.352 5338.0605)">
			<stop  offset="0.043" style="stop-color:#FC9017"/>
			<stop  offset="1" style="stop-color:#ED491F"/>
		</linearGradient>
		<path id="Path_266" fill="url(#Path_266_1_)" d="M42.91,60.88c0,0-2.29-16.66-1.3-24.54s8.09-8.77,12.78-6.52
			s8.32,7.32,5.94,14.96S42.91,60.88,42.91,60.88z"/>
		
			<linearGradient id="Path_267_1_" gradientUnits="userSpaceOnUse" x1="-359.8727" y1="160.4951" x2="-358.8637" y2="160.4951" gradientTransform="matrix(32.2626 0 0 -23.2038 -186.3713 3807.5405)">
			<stop  offset="0.043" style="stop-color:#FC9017"/>
			<stop  offset="1" style="stop-color:#ED491F"/>
		</linearGradient>
		<path id="Path_267" fill="url(#Path_267_1_)" d="M39.15,86.75c0,0-11.62-11.04-17.25-13.75S8.13,72.21,7.09,80.19
			S9.1,93.83,17.97,94.95S39.15,86.75,39.15,86.75z"/>
		
			<linearGradient id="Path_268_1_" gradientUnits="userSpaceOnUse" x1="-587.2797" y1="162.343" x2="-586.3356" y2="162.343" gradientTransform="matrix(19.9149 0 0 -26.4145 -130.1939 4355.9683)">
			<stop  offset="0.043" style="stop-color:#FC9017"/>
			<stop  offset="1" style="stop-color:#ED491F"/>
		</linearGradient>
		<path id="Path_268" fill="url(#Path_268_1_)" d="M50.72,80.97c0,0,0.17-12.1,2.36-19.57s8.4-8.33,12.91-4.95
			s6.31,10.63,2.78,15.28S50.72,80.97,50.72,80.97z"/>
		
			<linearGradient id="Path_269_1_" gradientUnits="userSpaceOnUse" x1="-405.8325" y1="167.5528" x2="-404.8215" y2="167.5528" gradientTransform="matrix(28.6194 0 0 -43.3106 -177.6222 7279.397)">
			<stop  offset="0.043" style="stop-color:#FC9017"/>
			<stop  offset="1" style="stop-color:#ED491F"/>
		</linearGradient>
		<path id="Path_269" fill="url(#Path_269_1_)" d="M32.37,44.24c-5.65-4.68-10.92-9.8-15.74-15.33C8.72,19.8,10.78,2.93,24.01,1.1
			C36-0.57,41.04,10.85,40.59,19.98S32.37,44.24,32.37,44.24z"/>
		<path id="Path_270" fill="none" stroke="#0C2855" stroke-width="1.105" stroke-miterlimit="10" d="M26.24,11.41
			c0,0,4.48,48.3,34.1,111.28"/>
		<path id="Path_271" fill="none" stroke="#0C2855" stroke-width="1.105" stroke-miterlimit="10" d="M8.5,52.81
			c10.75,6.23,30.46,15.09,30.46,15.09s9.19-16.78,12.14-26.82"/>
		<path id="Path_272" fill="none" stroke="#0C2855" stroke-width="1.105" stroke-miterlimit="10" d="M16.36,83.36
			c13.15,2.12,29.31,4.29,29.31,4.29s11.19-14.44,17-23.91"/>
	</g>
	
		<linearGradient id="Path_273_1_" gradientUnits="userSpaceOnUse" x1="60.6959" y1="380.9393" x2="60.6959" y2="381.8163" gradientTransform="matrix(156.0157 0 0 -158.809 -8957.2656 60840.5273)">
		<stop  offset="0" style="stop-color:#62AB6F"/>
		<stop  offset="1" style="stop-color:#D6A86E"/>
	</linearGradient>
	<path id="Path_273" fill="url(#Path_273_1_)" d="M434.32,352.2h155.94c0,0-1.8-33.58-16.25-22.74c0,0,4.52-33.24,1.36-33.33
		c-3.16-0.09-11.74,8.94-11.74,8.94s4.52-31.47-2.71-29.73c-7.22,1.74-6.77,8-6.77,8s4.52-32.67,0.45-51.75
		c-4.07-19.08,0.9-36.46-7.22-38.15s-18.51,49.77-18.51,49.77s-6.77-3.15-9.93,20.33c0,0-15.29-10.84-15.77,23.48
		c0,0-25.47-3.08-29.23,24.2c0,0-16.07-1.29-20.47,10.33S433.02,336.48,434.32,352.2z"/>
	
		<linearGradient id="Path_274_1_" gradientUnits="userSpaceOnUse" x1="60.6236" y1="380.2493" x2="60.6236" y2="381.0593" gradientTransform="matrix(167.7752 0 0 -121.4211 -10012.9961 46516.8984)">
		<stop  offset="0" style="stop-color:#62AB6F"/>
		<stop  offset="1" style="stop-color:#D6A86E"/>
	</linearGradient>
	<path id="Path_274" fill="url(#Path_274_1_)" d="M241.77,352.2H74.26c0,0,5.13-6.21,10.9-7.85c0,0,2.46-22.71,16.42-23.31
		c0,0,22.52-64.52,33.43-24.47c0,0-1.28-47.5,19.96-24.1c0,0,4.03-41.02,12.85-41.68s12.87,45.4,12.87,45.4s11.22-0.3,17.14,7.82
		c0,0-1.12-47.48,7.79-47.63s11.53,46.25,11.53,46.25s25.56-15.93,14.65,51.05C231.8,333.69,243.95,332.48,241.77,352.2z"/>
	<g id="Group_129" transform="translate(324.932 268.793)">
		<g id="Group_128" transform="translate(0 6.704)">
			<g id="Group_127">
				
					<line id="Line_60" fill="none" stroke="#00499A" stroke-width="3.171" stroke-miterlimit="10" x1="8.08" y1="0.93" x2="0" y2="84.71"/>
				
					<line id="Line_61" fill="none" stroke="#00499A" stroke-width="3.171" stroke-miterlimit="10" x1="34.02" y1="0.93" x2="42.1" y2="84.71"/>
			</g>
			
				<line id="Line_62" fill="none" stroke="#00499A" stroke-width="3.171" stroke-miterlimit="10" x1="6.07" y1="21.82" x2="36.16" y2="21.82"/>
			
				<line id="Line_63" fill="none" stroke="#00499A" stroke-width="3.341" stroke-miterlimit="10" x1="4.41" y1="40.3" x2="37.81" y2="40.3"/>
		</g>
		<path id="Rectangle_149" fill="#0C2855" d="M2.06,0.93h37.98c1.14,0,2.06,0.92,2.06,2.06c0,0,0,0,0,0v4.99
			c0,1.14-0.92,2.06-2.06,2.06H2.06C0.92,10.04,0,9.12,0,7.98V2.99C0,1.85,0.92,0.93,2.06,0.93z"/>
	</g>
	<g id="Group_132" transform="translate(391.9 268.793)">
		<g id="Group_131" transform="translate(0 6.704)">
			<g id="Group_130">
				
					<line id="Line_64" fill="none" stroke="#00499A" stroke-width="3.171" stroke-miterlimit="10" x1="8.08" y1="0.93" x2="0" y2="84.71"/>
				
					<line id="Line_65" fill="none" stroke="#00499A" stroke-width="3.171" stroke-miterlimit="10" x1="34.01" y1="0.93" x2="42.1" y2="84.71"/>
			</g>
			
				<line id="Line_66" fill="none" stroke="#00499A" stroke-width="3.171" stroke-miterlimit="10" x1="6.07" y1="21.82" x2="36.16" y2="21.82"/>
			
				<line id="Line_67" fill="none" stroke="#00499A" stroke-width="3.341" stroke-miterlimit="10" x1="4.41" y1="40.3" x2="37.81" y2="40.3"/>
		</g>
		<path id="Rectangle_150" fill="#0C2855" d="M2.06,0.93h37.98c1.14,0,2.06,0.92,2.06,2.06c0,0,0,0,0,0v4.99
			c0,1.14-0.92,2.06-2.06,2.06H2.06C0.92,10.04,0,9.12,0,7.98V2.99C0,1.85,0.92,0.93,2.06,0.93z"/>
	</g>
	<g id="Group_136" transform="translate(303.844 130.808)">
		<path id="Path_275" fill="#C2D3E9" d="M41.97,236.75c0,1.77-2.64,3.21-5.89,3.21s-5.89-1.44-5.89-3.21s2.64-3.2,5.89-3.2
			S41.97,234.98,41.97,236.75z"/>
		<g id="Group_133" transform="translate(29.162 201.947)">
			<path id="Path_276" fill="#EC545B" d="M7.36,0.93l0.18,16.72c0.6,1.65,0.9,3.4,0.88,5.15c-0.02,2.93,2.61,7.47,0.27,9.57
				s-5.06,0.36-5.26-2.59s-0.03-5.8-0.8-7.41s-0.91-4.23,0.18-5.4L0,1.21L7.36,0.93z"/>
			<path id="Path_277" fill="#0C2855" d="M6.39,23.34c-0.26,0.03-0.54,0.06-0.83,0.1c-0.73,0.11-1.42-0.37-1.58-1.09l-1.16-5.36
				c-1.09,1.18-0.96,3.79-0.18,5.4s0.6,4.46,0.8,7.41s2.93,4.69,5.26,2.59s-0.3-6.64-0.27-9.57c0.02-1.76-0.28-3.5-0.88-5.15
				l0.15,4.17C7.73,22.6,7.15,23.26,6.39,23.34z"/>
		</g>
		<g id="Group_134" transform="translate(66.062 196.105)">
			<path id="Path_278" fill="#EC545B" d="M7.26,0.93l2.42,16.55c0.81,1.56,1.34,3.24,1.56,4.99c0.37,2.91,3.58,7.05,1.55,9.45
				s-4.97,1.03-5.56-1.86s-0.8-5.74-1.78-7.23s-1.47-4.07-0.54-5.38L0,2.19L7.26,0.93z"/>
			<path id="Path_279" fill="#0C2855" d="M9.29,23.27c-0.26,0.06-0.53,0.13-0.8,0.2c-0.71,0.2-1.46-0.18-1.71-0.87l-1.86-5.16
				c-0.93,1.31-0.45,3.89,0.54,5.38s1.19,4.34,1.78,7.23s3.53,4.26,5.56,1.86s-1.19-6.54-1.55-9.45c-0.22-1.74-0.75-3.43-1.56-4.99
				l0.71,4.11C10.52,22.35,10.04,23.09,9.29,23.27z"/>
		</g>
		<path id="Path_280" fill="#0C2855" d="M28.99,67.55c0,0,9.99,8.26,21.17,3.05c0,0-0.04-1.3,1.09-1.3s5.61,0.82,11.81,3.76
			c8.73,4.14,28.67,26.53,27.84,37.85c-0.6,8.28-6.62,10.99-12.04,10.76s-4.97-9.41-4.97-9.41l-17.01-14.3l-3.16,23.7H17.46
			l-5.12-37.1L0,31.81c0.74-2.75,2.24-5.23,4.34-7.15c1.92-1.67,4.63-2.08,6.95-1.06L28.99,67.55z"/>
		<path id="Path_281" fill="#003476" d="M28.99,67.55l-17.7-43.93C8.96,22.59,6.25,23,4.34,24.67c-2.1,1.92-3.6,4.4-4.34,7.15
			l12.34,52.75C24.31,93.76,28.99,67.55,28.99,67.55z"/>
		<path id="Path_282_1_" fill="#003476" d="M63.06,73.06c-1.35-0.64-2.62-1.18-3.8-1.63l0,0c-7.95,12.99-2.37,26.54-2.37,26.54
			l17.01,14.3c0,0-0.45,9.18,4.97,9.4s11.44-2.48,12.04-10.76"/>
		<path id="Path_283" fill="#061B3A" d="M82.79,112.86c0.1,5.48-1.54,9.21-4.72,8.82s-4.73-5.52-4.17-9.42L82.79,112.86z"/>
		<g id="Group_135" transform="translate(43.061 84.998)">
			<path id="Path_284" fill="#FC9017" d="M23.99,35.4H0L5.39,2.36h23.99L23.99,35.4z"/>
			<path id="Path_285" fill="none" stroke="#FFFFFF" stroke-width="0.72" stroke-miterlimit="10" d="M20.89,5.07h-7.89l0.67-4.14
				h7.9L20.89,5.07z"/>
		</g>
		<path id="Path_286" fill="#6D2815" d="M27.09,134.84c13.09,0.4,11.74,69.84,11.74,69.84h-13.4c0,0-3.13-5.91-3.16-11.14
			c-0.03-5.38-2.56-10.99-3.31-16.71S7.22,134.24,27.09,134.84z"/>
		
			<line id="Line_68" fill="none" stroke="#FC9017" stroke-width="0.72" stroke-miterlimit="10" x1="38.87" y1="199.71" x2="23.4" y2="199.71"/>
		<path id="Path_287" fill="#6D2815" d="M54.88,130.88c13.02-1.36,20.97,67.64,20.97,67.64l-13.28,1.79c0,0-3.89-5.44-4.62-10.62
			c-0.75-5.32-4.01-10.55-5.52-16.11S35.11,132.93,54.88,130.88z"/>
		
			<line id="Line_69" fill="none" stroke="#FC9017" stroke-width="0.72" stroke-miterlimit="10" x1="75.31" y1="194.15" x2="60.44" y2="196.22"/>
		<path id="Path_288" fill="#EC545B" d="M34.8,58.63l-0.66,8.19c-0.06,0.8-0.76,1.39-1.56,1.33c-0.04,0-0.08-0.01-0.12-0.02
			l-3.46-0.58c0,0,2.03,11.57,10.78,13.21S50.16,70.6,50.16,70.6l-4.8-0.82l-2.48-11.14L34.8,58.63z"/>
		
			<linearGradient id="Path_289_1_" gradientUnits="userSpaceOnUse" x1="-228.692" y1="207.72" x2="-227.692" y2="207.72" gradientTransform="matrix(10.07 0 0 -7.825 2337.4783 1687.9517)">
			<stop  offset="0" style="stop-color:#E9373E"/>
			<stop  offset="0.149" style="stop-color:#E9373E;stop-opacity:0.984"/>
			<stop  offset="0.282" style="stop-color:#E9373E;stop-opacity:0.937"/>
			<stop  offset="0.409" style="stop-color:#E9373E;stop-opacity:0.859"/>
			<stop  offset="0.533" style="stop-color:#E9373E;stop-opacity:0.749"/>
			<stop  offset="0.654" style="stop-color:#E9373E;stop-opacity:0.608"/>
			<stop  offset="0.773" style="stop-color:#E9373E;stop-opacity:0.431"/>
			<stop  offset="0.889" style="stop-color:#E9373E;stop-opacity:0.227"/>
			<stop  offset="1" style="stop-color:#E9373E;stop-opacity:0"/>
		</linearGradient>
		<path id="Path_289" fill="url(#Path_289_1_)" d="M42.88,58.63H34.8l-0.26,3.18c2.56,2.88,6.21,4.57,10.07,4.65L42.88,58.63z"/>
		<path id="Path_290" fill="#CD111C" d="M31.68,53.46c0,0-4.29-8.05,0.52-11.14c2.49-5.38,13.17-4.55,15.69,1.39
			c1.54,3.27,0.78,7.16-1.88,9.6L31.68,53.46z"/>
		<path id="Path_291" fill="#CD111C" d="M40.64,36.85c0,2.77-2.25,5.02-5.02,5.02c-2.77,0-5.02-2.25-5.02-5.02
			c0-2.77,2.25-5.02,5.02-5.02C38.39,31.82,40.64,34.07,40.64,36.85C40.64,36.84,40.64,36.84,40.64,36.85z"/>
		<path id="Path_292" fill="#EC545B" d="M47.16,52.82c-0.42-0.27-0.95-0.3-1.4-0.08c0.22-1.56,0.37-2.85,0.37-2.85
			s-7,0.98-11.36-3.46c0,0-0.52,3.91-2.56,5.34c0,0,0.02,0.35,0.06,0.91c-0.41-0.14-0.87-0.09-1.24,0.15
			c-0.9,0.51-0.38,2.78,1.62,2.86c0.29,1.57,0.76,3.17,1.53,3.84c1.73,1.51,4.06,2.79,5.34,2.71s4.89-3.01,5.34-4.29
			c0.21-0.75,0.36-1.51,0.47-2.27c0.07,0.01,0.15,0.01,0.22,0.01C47.53,55.59,48.06,53.33,47.16,52.82z"/>
		<path id="Path_293" fill="#EC545B" d="M80.3,109.15l-26.98-6.1c0,0-4.63-6.21-5.98-6.49s0.57,2.1,0.57,2.1s-1.93-1.37-2.43-0.47
			c-0.28,0.69-0.28,1.46,0,2.15c0,0-0.62,0.93,0.97,2.5s5.87,2.58,5.87,2.58s20.16,12.6,24.83,14.34S85.49,111.51,80.3,109.15z"/>
		<path id="Path_294" fill="#061B3A" d="M11.29,23.62C8.96,22.59,6.25,23,4.34,24.67c-2.1,1.92-3.6,4.4-4.34,7.15
			C4.21,35.13,10.99,27.31,11.29,23.62z"/>
		<path id="Path_295" fill="#EC545B" d="M11.12,24.47L6.07,8.12c0,0,1.86-3.84,1.58-4.97S6.07,2.36,6.07,2.36
			C5.98,1.87,5.84,1.4,5.64,0.95C5.45,0.72,0.82,2.86,0.82,2.86s-0.85,2.54,0.34,3.22C0.89,7.2,1.57,8.32,2.68,8.6
			C2.72,8.61,2.76,8.61,2.8,8.62l4.28,21.75C8.94,28.81,10.34,26.77,11.12,24.47z"/>
	</g>
	<g id="Group_139" transform="translate(250.583 268.793)">
		<g id="Group_138" transform="translate(0 6.704)">
			<g id="Group_137">
				
					<line id="Line_70" fill="none" stroke="#00499A" stroke-width="3.171" stroke-miterlimit="10" x1="8.08" y1="0.93" x2="0" y2="84.71"/>
				
					<line id="Line_71" fill="none" stroke="#00499A" stroke-width="3.171" stroke-miterlimit="10" x1="34.01" y1="0.93" x2="42.1" y2="84.71"/>
			</g>
			
				<line id="Line_72" fill="none" stroke="#00499A" stroke-width="3.171" stroke-miterlimit="10" x1="6.07" y1="21.82" x2="36.16" y2="21.82"/>
			
				<line id="Line_73" fill="none" stroke="#00499A" stroke-width="3.341" stroke-miterlimit="10" x1="4.41" y1="40.3" x2="37.81" y2="40.3"/>
		</g>
		<path id="Rectangle_151" fill="#0C2855" d="M2.06,0.93h37.98c1.14,0,2.06,0.92,2.06,2.06c0,0,0,0,0,0v4.99
			c0,1.14-0.92,2.06-2.06,2.06H2.06C0.92,10.04,0,9.12,0,7.98V2.99C0,1.85,0.92,0.93,2.06,0.93z"/>
	</g>
	<path id="Path_296" fill="#8CB4DF" d="M235.07,103.16h-80.22c-16.25,0-9.03-13.55,0-15.96s6.92-16.85,23.18-22.57
		c9.02-3.17,18.36,6.02,18.36,6.02s10.23-3.31,19.26,3.31c6.07,4.45,10.65,14.27,19.42,14.45
		C249.51,88.71,255.69,103.16,235.07,103.16z"/>
	<path id="Path_297" fill="#8CB4DF" d="M298.91,96.44c0,0-4.49-6.45-11.72,0c0,0,10.26-1.54,11.72,6.19
		c1.46-7.73,11.72-6.19,11.72-6.19C303.4,89.99,298.91,96.44,298.91,96.44z"/>
	<path id="Path_298" fill="#8CB4DF" d="M519.26,144.98c0,0-3.33-4.78-8.69,0c0,0,7.6-1.14,8.69,4.59c1.09-5.73,8.69-4.59,8.69-4.59
		C522.59,140.2,519.26,144.98,519.26,144.98z"/>
	<g id="Group_140" transform="translate(101.737 116.308)">
		<path id="Path_299" fill="#C2D3E9" d="M53,253.97c1.02,2.21-3.76,6.59-10.67,9.79s-13.34,4-14.36,1.8s3.75-6.59,10.67-9.78
			C45.56,252.57,51.98,251.76,53,253.97z"/>
		<path id="Path_300" fill="#C2D3E9" d="M92.85,252.81c-1.02,2.2,3.76,6.59,10.67,9.79s13.34,4.01,14.37,1.8s-3.76-6.59-10.67-9.79
			C100.3,251.41,93.87,250.61,92.85,252.81z"/>
		<path id="Path_301" fill="#0C2855" d="M95.39,239.88l1.35,9.63c0,0-1.5,4.59,0,6.17c1.5,1.58,7.38,3.76,7.38,3.76
			s9.56,4.67,11.06,3.69s-8.28-10.99-8.28-10.99l-3.24-7.37l-0.73-4.67L95.39,239.88z"/>
		<path id="Path_302" fill="#0794B0" d="M104.8,247.33c-1.79,0.66-2.99,2.34-3.02,4.24l-5.02-2.06c0,0-1.5,4.59,0,6.17
			s7.38,3.76,7.38,3.76s9.56,4.67,11.06,3.69s-8.28-10.99-8.28-10.99L104.8,247.33z"/>
		<path id="Path_303" fill="#0C2855" d="M50.43,239.88v9.63c0.91,2.01,0.91,4.31,0,6.32c-1.58,3.16-19.53,9.14-20.43,8.35
			s8.58-9.59,8.58-9.59l4.18-7.26l0.23-7.45H50.43z"/>
		<path id="Path_304" fill="#0794B0" d="M42.05,248.55l-3.47,6.04c0,0-9.48,8.8-8.58,9.59s18.85-5.19,20.43-8.35
			c0.66-1.35,0.87-2.87,0.6-4.34l-4.76,1.07C45.68,250.56,44.07,249.03,42.05,248.55z"/>
		<path id="Path_305" fill="#003270" d="M85.54,105.47l2.93,24.38c0,0,4.06,16.26,4.96,27.54s12.87,83.99,12.87,83.99H92.98
			c0,0-2.03-4.29-1.58-8.13s-4.29-7.23-3.61-11.52s-4.74-12.41-5.87-20.32s-18.51-62.99-18.51-62.99l-8.13,65.7
			c0,0,1.35,11.51,0,16.48s-0.45,11.97-2.71,20.77H39.4c0,0-1.73-51.93-1.95-64.57s-0.1-55.5,5.08-71.34L85.54,105.47z"/>
		
			<linearGradient id="Path_306_1_" gradientUnits="userSpaceOnUse" x1="-38.6787" y1="253.2413" x2="-38.6787" y2="251.5143" gradientTransform="matrix(47.432 0 0 -22.97 1897.1604 5904.0967)">
			<stop  offset="0.027" style="stop-color:#0C2855"/>
			<stop  offset="1" style="stop-color:#0C2855;stop-opacity:0"/>
		</linearGradient>
		<path id="Path_306" fill="url(#Path_306_1_)" d="M38.84,128.44c14.23-9.38,38.73-15.07,47.43-16.87l-0.73-6.1H42.53
			C40.78,110.8,39.62,119.18,38.84,128.44z"/>
		<path id="Path_307" fill="#00499A" d="M52.35,34.43c0,0,10.7-14.3,25.07,0c0,0,18.84-0.3,23.24,14.37L111.05,78l34.01,11.29
			l-1.35,5.97c0,0-25.89,2.5-37.03,0S88.17,78.3,88.17,78.3l-1.5,23.78c0,0,2.11,2.86,1.5,4.52s-5.25,1.96-10.75,1.96H41.66
			l-7.83-68.48C39.73,37.38,45.96,35.49,52.35,34.43z"/>
		<path id="Path_308" fill="#EC545B" d="M35.28,105.48c0,0,2.63,1.59,4.46,0.85s3.18-2.5,6.24-2.93c3.06-0.43,3.67-0.12,3.67,0.31
			s-4.15,0.79-5.75,1.96c0,0,6.84-1.23,6.97,0.06c0.06,0.61-5.75,0.73-7.09,1.59c0,0,6.6-0.55,6.66,0s-5.75,0.88-6.66,1.69
			c0,0,4.77,0.02,4.46,1s-2.93-0.31-4.95,0.67s-3.55,1.35-5.69,0c-1.06-0.71-2.21-1.28-3.42-1.67L35.28,105.48z"/>
		
			<linearGradient id="Path_309_1_" gradientUnits="userSpaceOnUse" x1="-31.1707" y1="258.0754" x2="-29.6357" y2="257.2934" gradientTransform="matrix(13.683 0 0 -36.423 509.6979 9458.2881)">
			<stop  offset="0" style="stop-color:#0C2855"/>
			<stop  offset="1" style="stop-color:#0C2855;stop-opacity:0"/>
		</linearGradient>
		<path id="Path_309" fill="url(#Path_309_1_)" d="M101.85,93.37c-0.01-0.02-4.01-8.6-6.13-12.56s0.43-9.65,1.13-14.62
			s-5.59-9.25-5.59-9.25l-3.1,21.36C88.17,78.31,93.46,88.67,101.85,93.37z"/>
		<path id="Path_310" fill="#00499A" d="M33.84,40.07c4.46-1.95,7.97,24.54,3.47,30.41S21.3,89.55,21.3,89.55s2.26,0.68,0,2.71
			l16.48,13.21l-1.53,5.47c0,0-17.89-4.01-29.74-10.33S2.12,80.05,4.6,75.04s15.1-19.12,15.1-19.12S24.35,44.21,33.84,40.07z"/>
		<path id="Path_311" fill="none" stroke="#0C2855" stroke-width="0.889" stroke-miterlimit="10" d="M29.47,54.67
			c0,0,0.43,5.16,7.59,13.64"/>
		
			<linearGradient id="Path_312_1_" gradientUnits="userSpaceOnUse" x1="-27.9229" y1="253.2574" x2="-29.7189" y2="252.1704" gradientTransform="matrix(11.9877 0 0 -24.096 375.3483 6160.1367)">
			<stop  offset="0" style="stop-color:#0C2855"/>
			<stop  offset="1" style="stop-color:#0C2855;stop-opacity:0"/>
		</linearGradient>
		<path id="Path_312" fill="url(#Path_312_1_)" d="M31.37,59.97c0,0-3.97,9.29-1.89,11.31c1.83,1.77-4.1,8.87-3.43,12.78
			c3.71-4.33,8.67-10.19,11.27-13.59c0.26-0.36,0.49-0.75,0.67-1.16C36.27,67.29,32.49,62.65,31.37,59.97z"/>
		
			<line id="Line_74" fill="none" stroke="#0C2855" stroke-width="0.889" stroke-miterlimit="10" x1="105.3" y1="235.26" x2="91.37" y2="235.26"/>
		
			<line id="Line_75" fill="none" stroke="#0C2855" stroke-width="0.889" stroke-miterlimit="10" x1="53.23" y1="235.26" x2="39.29" y2="235.26"/>
		
			<line id="Line_76" fill="none" stroke="#0C2855" stroke-width="0.889" stroke-miterlimit="10" x1="63.31" y1="139.21" x2="63.31" y2="108.56"/>
		<path id="Path_313" fill="none" stroke="#0C2855" stroke-width="0.889" stroke-miterlimit="10" d="M68.04,108.56v12.38
			c0.18,3.29-1.7,6.35-4.73,7.68"/>
		<path id="Path_314" fill="none" stroke="#0C2855" stroke-width="0.889" stroke-miterlimit="10" d="M77.42,108.56
			c0,0-0.51,9.1,10.18,14.07"/>
		<path id="Path_315" fill="none" stroke="#0C2855" stroke-width="0.889" stroke-miterlimit="10" d="M48.37,107.91
			c0,0-3.89,15.41-9.16,16.42"/>
		<path id="Path_316" fill="none" stroke="#0C2855" stroke-width="0.889" stroke-miterlimit="10" d="M83.81,172.67
			c1.37,1.45,3.16,2.45,5.12,2.86"/>
		<path id="Path_317" fill="none" stroke="#0C2855" stroke-width="0.889" stroke-miterlimit="10" d="M52.05,173.42
			c-2.59,1.83-5.35,3.39-8.26,4.67"/>
		<path id="Path_318" fill="#003270" d="M58.31,21.48l-5.78-8.16c0,0-5.37-3.93-2.27-9.3s13.01-2.38,17.66-1.03
			c0,0,9.51,0.52,9.51,7.02s-7.34,11.47-7.34,11.47L58.31,21.48z"/>
		<path id="Path_319" fill="#EC545B" d="M60.25,25.1l-1.41,9.45c-0.15,0.92,0.21,1.84,0.93,2.43c1.3,0.94,2.88,1.41,4.48,1.33
			c1.58,0.04,3.13-0.44,4.4-1.38c0.76-0.58,1.15-1.53,1-2.48l-1.39-9.35L60.25,25.1z"/>
		
			<linearGradient id="Path_320_1_" gradientUnits="userSpaceOnUse" x1="-26.8433" y1="231.3125" x2="-25.8433" y2="231.3125" gradientTransform="matrix(10.2354 0 0 -9.802 333.5849 2297.3242)">
			<stop  offset="0" style="stop-color:#E9373E"/>
			<stop  offset="0.149" style="stop-color:#E9373E;stop-opacity:0.984"/>
			<stop  offset="0.282" style="stop-color:#E9373E;stop-opacity:0.937"/>
			<stop  offset="0.409" style="stop-color:#E9373E;stop-opacity:0.859"/>
			<stop  offset="0.533" style="stop-color:#E9373E;stop-opacity:0.749"/>
			<stop  offset="0.654" style="stop-color:#E9373E;stop-opacity:0.608"/>
			<stop  offset="0.773" style="stop-color:#E9373E;stop-opacity:0.431"/>
			<stop  offset="0.889" style="stop-color:#E9373E;stop-opacity:0.227"/>
			<stop  offset="1" style="stop-color:#E9373E;stop-opacity:0"/>
		</linearGradient>
		<path id="Path_320" fill="url(#Path_320_1_)" d="M58.84,34.9c4.28-0.05,8.07-2.58,10.23-4.39l-0.81-5.41h-8.01l-1.41,9.45
			C58.83,34.67,58.83,34.78,58.84,34.9z"/>
		<path id="Path_321" fill="#EC545B" d="M66.8,6.38c-1.99,3.75-5.66,6.32-9.86,6.91c0,0-0.33,15.45,6.9,15.45s8.55-13.48,8.55-13.48
			S66.57,10.65,66.8,6.38z"/>
		<path id="Path_322" fill="#0794B0" d="M36.12,60.09c0,0,4.64-5.72,13.21,0c0,0,6.95-7.08,14.91,0c0,0,8.42-7.08,16.24,0
			c0,0,6.63-3.31,10.31,0l-2.11,12.54H37.66L36.12,60.09z"/>
		<path id="Path_323" fill="none" stroke="#0C2855" stroke-width="0.889" stroke-miterlimit="10" d="M92.08,49.93
			c0,0-0.23,2.82-0.9,7.67s-3.16,18.85-3.16,18.85"/>
		<path id="Path_324" fill="none" stroke="#0C2855" stroke-width="0.889" stroke-miterlimit="10" d="M94.79,57.38
			c0,0-1.54,6.77-5.34,10.39"/>
		<path id="Path_325" fill="none" stroke="#0C2855" stroke-width="0.889" stroke-miterlimit="10" d="M37.66,72.62
			c0,0-1.89-15.68-1.53-21.97"/>
	</g>
	<g id="Group_141" transform="translate(211.97 164.912)">
		<path id="Path_326" fill="#C2D3E9" d="M65.41,202.65c0,2.84-4.23,5.15-9.46,5.15s-9.46-2.3-9.46-5.15s4.24-5.14,9.46-5.14
			S65.41,199.81,65.41,202.65z"/>
		<path id="Path_327" fill="#EC545B" d="M52.03,184.91l-0.24,8.75c0,0-2.58,6.5-1.28,6.65s3.33,0.23,2.46,1.69s-1.87,3.4,3.4,3.8
			s6.21-1.35,5.55-3.39c-0.53-1.65-3.47-6.43-4.58-8.21c-0.28-0.44-0.41-0.96-0.37-1.48l0.72-9.93L52.03,184.91z"/>
		<path id="Path_328" fill="#0C2855" d="M50.51,200.31c1.3,0.15,3.33,0.23,2.46,1.69s-1.87,3.4,3.4,3.8s6.21-1.35,5.55-3.39
			c-1.15-2.52-2.49-4.94-4-7.26c-1.62,0.37-3.84,1.11-4.66,2.41c-0.72,1.15-1.71,0.14-2.48-1.06
			C50.24,198.27,49.8,200.23,50.51,200.31z"/>
		<path id="Path_329" fill="#003270" d="M48.23,120.15l1.35,66.51h13.55c0,0,2.71-3.74,2.41-12.17s3.01-9.93,3.31-17.16
			s3.46-39.73,3.46-39.73L48.23,120.15z"/>
		
			<linearGradient id="Path_330_1_" gradientUnits="userSpaceOnUse" x1="-145.6236" y1="209.3214" x2="-145.8486" y2="207.9274" gradientTransform="matrix(24.081 0 0 -35.969 3566.9463 7649.1265)">
			<stop  offset="0" style="stop-color:#0C2855"/>
			<stop  offset="1" style="stop-color:#0C2855;stop-opacity:0"/>
		</linearGradient>
		<path id="Path_330" fill="url(#Path_330_1_)" d="M71.62,124.82c0,0-2.77,5.42-6.99,6.02s-4.82,5.57-8.88,10.23
			s-2.4,9.03-6.85,12.49l-0.68-33.41l24.08-2.56L71.62,124.82z"/>
		<path id="Path_331" fill="#EC545B" d="M73.36,115.57l10.18-0.87c0.92-0.08,1.83,0.23,2.51,0.85c1.58,1.46,2.77,3.27,3.49,5.29
			c1.65,4.52,1.73,7,3.46,7.22c1.73,0.23-0.9-21.82-0.9-21.82l-20.69-1.66L73.36,115.57z"/>
		<path id="Path_332" fill="#0C2855" d="M88.21,105.92l1.1,8.63l-2.38,1.88c1.14,1.29,2.02,2.78,2.6,4.4c1.65,4.52,1.73,7,3.46,7.22
			c1.73,0.23-0.9-21.82-0.9-21.82L88.21,105.92z"/>
		
			<linearGradient id="Path_333_1_" gradientUnits="userSpaceOnUse" x1="-150.7222" y1="212.9832" x2="-149.7222" y2="212.9832" gradientTransform="matrix(77.2623 0 0 -61.7422 11651.1006 13209.0166)">
			<stop  offset="0.043" style="stop-color:#FC9017"/>
			<stop  offset="1" style="stop-color:#ED491F"/>
		</linearGradient>
		<path id="Path_333" fill="url(#Path_333_1_)" d="M57.51,28.1c-18.05,2.59-26.82,8.12-28.66,9.42l0,0
			c-0.25,0.17-0.38,0.27-0.38,0.27v0.01C14.79,47.87,5.16,80.15,6,84.49c1.51,7.75,10.61,5.72,12.72,2.41
			c1.65-2.6,10.62-15.48,14.41-20.91c1.48,11.47,2.56,21.7,2.56,21.7h45.04l2.48-49.67C75.43,28.42,57.51,28.1,57.51,28.1z"/>
		
			<line id="Line_77" fill="none" stroke="#CD111C" stroke-width="0.889" stroke-miterlimit="10" x1="33.14" y1="65.99" x2="30.06" y2="44.76"/>
		<path id="Path_334" fill="none" stroke="#CD111C" stroke-width="0.889" stroke-miterlimit="10" d="M26.39,51.05
			c0,0,0.02,7.57,6.25,11.5"/>
		<path id="Path_335" fill="#EC545B" d="M18.7,57.46l1.26-26.1c0.71-0.95,1.22-2.02,1.51-3.17c0.43-1.81,3.67-3.34,3.21-4.49
			s-2.79,1.62-3.46,1.36s-0.53-0.76-0.76-4.22s0.04-6.78-0.63-6.75s-1.12,7.97-1.12,7.97s-0.62-9.35-1.76-9.18s-0.42,8.78-0.42,8.78
			s-1.72-7.69-2.57-7.68s0.45,8.16,0.45,8.16s-2.97-5.12-3.49-4.86s2.7,6.18,2.7,6.18s-0.98,5.1,1.27,7.63L9.38,57L18.7,57.46z"/>
		
			<linearGradient id="Path_336_1_" gradientUnits="userSpaceOnUse" x1="8.1935" y1="-133.5589" x2="8.1935" y2="-133.5589" gradientTransform="matrix(1 0 0 -1 25.171 -65.7839)">
			<stop  offset="0" style="stop-color:#6D2815;stop-opacity:0.894"/>
			<stop  offset="0.069" style="stop-color:#6D2815"/>
			<stop  offset="1" style="stop-color:#6D2815;stop-opacity:0"/>
		</linearGradient>
		<path id="Path_336" fill="url(#Path_336_1_)" d="M33.36,67.77L33.36,67.77L33.36,67.77z"/>
		
			<linearGradient id="Path_337_1_" gradientUnits="userSpaceOnUse" x1="-142.4421" y1="209.4947" x2="-143.3711" y2="209.9107" gradientTransform="matrix(17.247 0 0 -39.362 2490.3125 8323.4648)">
			<stop  offset="0" style="stop-color:#6D2815"/>
			<stop  offset="1" style="stop-color:#6D2815;stop-opacity:0"/>
		</linearGradient>
		<path id="Path_337" fill="url(#Path_337_1_)" d="M33.11,66.02l-2.55-17.81c0,0-4.33,3.23-4.17,10.76S20.68,65.38,20.34,70
			s-4.48,8.01-4.48,8.01l2.31,9.56c0.21-0.21,0.39-0.43,0.55-0.68C20.38,84.3,29.31,71.47,33.11,66.02z"/>
		
			<linearGradient id="Path_338_1_" gradientUnits="userSpaceOnUse" x1="-146.7377" y1="210.0128" x2="-146.9777" y2="210.7718" gradientTransform="matrix(29.41 0 0 -42.217 4386.3301 8946.5312)">
			<stop  offset="0" style="stop-color:#6D2815"/>
			<stop  offset="1" style="stop-color:#6D2815;stop-opacity:0"/>
		</linearGradient>
		<path id="Path_338" fill="url(#Path_338_1_)" d="M53.3,87.68h27.43l1.98-39.63l-10.95-2.58c-4.85,3.72-6.21,8.18-6.1,11.29
			s-5.08,5.87-5.7,10.27C59.47,70.5,55.12,82.7,53.3,87.68z"/>
		<path id="Path_339" fill="#E9373E" d="M64.93,79.05l-19.42,5.42c0,0-7.73,0-8.69,3.22h29.75L64.93,79.05z"/>
		<path id="Path_340" fill="#003270" d="M0.52,120.38c-2.8-10.54,5.43-20.24,31.08-20.24c31.11,0,43.42,1.81,43.42,1.81v16.55
			C75.02,118.5,4.58,135.66,0.52,120.38z"/>
		<path id="Path_341" fill="#EC545B" d="M56.66,19.29l2.88,9.23c0.32,1,0.01,2.09-0.77,2.79c-2.46,2.19-7.73,6.58-9.05,5.38
			c-1.74-1.58-1.92-12.02-1.92-12.02L56.66,19.29z"/>
		
			<linearGradient id="Path_342_1_" gradientUnits="userSpaceOnUse" x1="-135.6618" y1="193.0191" x2="-135.8428" y2="191.9901" gradientTransform="matrix(9.712 0 0 -13.435 1370.8517 2611.4436)">
			<stop  offset="0" style="stop-color:#E9373E"/>
			<stop  offset="0.149" style="stop-color:#E9373E;stop-opacity:0.984"/>
			<stop  offset="0.282" style="stop-color:#E9373E;stop-opacity:0.937"/>
			<stop  offset="0.409" style="stop-color:#E9373E;stop-opacity:0.859"/>
			<stop  offset="0.533" style="stop-color:#E9373E;stop-opacity:0.749"/>
			<stop  offset="0.654" style="stop-color:#E9373E;stop-opacity:0.608"/>
			<stop  offset="0.773" style="stop-color:#E9373E;stop-opacity:0.431"/>
			<stop  offset="0.889" style="stop-color:#E9373E;stop-opacity:0.227"/>
			<stop  offset="1" style="stop-color:#E9373E;stop-opacity:0"/>
		</linearGradient>
		<path id="Path_342" fill="url(#Path_342_1_)" d="M57.51,22.01l-0.85-2.71l-8.86,5.38c0.05,2.7,0.26,5.38,0.62,8.06
			C53.13,30.7,56.17,25.03,57.51,22.01z"/>
		<path id="Path_343" fill="#EC545B" d="M42.16,16.65c0,0,1.04,9.74,3.24,10.77s10-4.46,11.62-7.72c0,0,4.21-2.6,2.1-6.04l-9.5-8.12
			l-8.38,2.79L42.16,16.65z"/>
		<path id="Path_344" fill="#0C2855" d="M46.87,8.93c0,0,2.48-1.73,3.69,0.9s1.5,5.19,5.87,5.12c0.26-1.04,1.32-1.67,2.36-1.4
			c0.12,0.03,0.24,0.07,0.35,0.12c0.42-2.04,0.72-4.1,0.9-6.17c0.23-3.01-4.97-11.14-13.77-3.16c0,0-4.89-1.81-6.92,2.86
			s-0.45,9.86-0.45,9.86s2.26,1.58,6.55,0C45.44,17.06,41.98,7.42,46.87,8.93z"/>
		
			<linearGradient id="Path_345_1_" gradientUnits="userSpaceOnUse" x1="-143.5704" y1="207.8742" x2="-142.5704" y2="207.8742" gradientTransform="matrix(17.4324 0 0 -32.595 2505.6924 6845.6616)">
			<stop  offset="0.043" style="stop-color:#FC9017"/>
			<stop  offset="1" style="stop-color:#ED491F"/>
		</linearGradient>
		<path id="Path_345" fill="url(#Path_345_1_)" d="M20.34,54.33L19.11,86.3H6.57c0,0-4.17-1.55-3.61-11.82S7.82,53.7,7.82,53.7
			L20.34,54.33z"/>
		
			<linearGradient id="Path_346_1_" gradientUnits="userSpaceOnUse" x1="-146.8277" y1="211.7557" x2="-147.9557" y2="211.7497" gradientTransform="matrix(34.1586 0 0 -50.7997 5120.6968 10819.1348)">
			<stop  offset="0.043" style="stop-color:#FC9017"/>
			<stop  offset="1" style="stop-color:#ED491F"/>
		</linearGradient>
		<path id="Path_346" fill="url(#Path_346_1_)" d="M83.22,38.01c4.07,5.11,11.05,23.46,12.95,41c0.45,4.25-2.62,8.06-6.87,8.51
			c-0.27,0.03-0.55,0.04-0.83,0.04H63.35c0,0-2.03-6.1-1.01-10.27l10.5-2.03c0,0-0.79-2.48,1.47-2.71c0,0-1.13-5.54-3.95-15.75
			S78.82,32.48,83.22,38.01z"/>
		<path id="Path_347" fill="none" stroke="#CD111C" stroke-width="0.889" stroke-miterlimit="10" d="M73.4,42.49
			c0,0-5.31,5.18-2.46,16.48"/>
	</g>
	<g id="Group_142" transform="translate(287.825 218.315)">
		
			<linearGradient id="Path_348_1_" gradientUnits="userSpaceOnUse" x1="-225.0894" y1="153.4292" x2="-225.0894" y2="154.6052" gradientTransform="matrix(52.415 0 0 -31.966 11824.2686 4947.9326)">
			<stop  offset="0.044" style="stop-color:#72A3D7"/>
			<stop  offset="1" style="stop-color:#FFFFFF"/>
		</linearGradient>
		<path id="Path_348" fill="url(#Path_348_1_)" d="M46.66,32.9H0L5.76,0.93h46.66L46.66,32.9z"/>
		<path id="Path_349" fill="#0C2855" d="M31.96,16.91c-0.66,3.26-3.47,5.64-6.79,5.76c-2.58,0.09-4.75-1.92-4.84-4.51
			c-0.02-0.42,0.03-0.84,0.12-1.25c0.66-3.26,3.47-5.64,6.79-5.76c2.58-0.09,4.75,1.92,4.84,4.51C32.1,16.08,32.06,16.5,31.96,16.91
			z"/>
	</g>
	<path id="Path_350" fill="none" stroke="#0C2855" stroke-width="0.72" stroke-miterlimit="10" d="M381.26,239.3
		c0,0,2.27-2.54,6.41-0.25"/>
	<g id="Group_143" transform="translate(340.101 109.703)">
		<path id="Path_351" fill="#C2D3E9" d="M66.51,255.49c0.16,1.77-4.12,3.58-9.55,4.06s-9.95-0.57-10.11-2.34
			c-0.16-1.77,4.12-3.58,9.55-4.05S66.36,253.73,66.51,255.49z"/>
		<path id="Path_352" fill="#C2D3E9" d="M110.88,255.49c0.15,1.77-4.12,3.58-9.55,4.06s-9.95-0.57-10.11-2.34
			c-0.15-1.77,4.12-3.58,9.55-4.05S110.73,253.73,110.88,255.49z"/>
		<path id="Path_353" fill="#EC545B" d="M63.32,219.13l-3.37,29.87l-6.02,4.18c0,0-6.19,0.91-6.17,2.15s13.09-0.26,16.25-0.32
			c3.16-0.06,0.52-2.27,0.81-4.76s7.52-31.3,7.52-31.3L63.32,219.13z"/>
		<path id="Path_354" fill="#EC545B" d="M99.92,219.13l4.41,29.87l-6.01,4.18c0,0-6.19,0.91-6.17,2.15s13.09-0.26,16.25-0.32
			s0.52-2.27,0.81-4.76s-0.26-31.3-0.26-31.3L99.92,219.13z"/>
		<path id="Path_355" fill="#3B593B" d="M103.78,104.78c0,0,6.55,9.66,6.28,36.28l1.39,80.35H96.38l-11.42-76.36l-6.78,41.64
			c0,0,3.28,9.88-4.08,34.72H60.73l2.49-40.78c-0.69-25.51,1.92-51.01,7.75-75.86L103.78,104.78z"/>
		<path id="Path_356" fill="none" stroke="#2F462E" stroke-width="0.72" stroke-miterlimit="10" d="M84.97,145.05
			c0,0-3.92-22.51-2.87-41.32"/>
		<path id="Path_357" fill="none" stroke="#2F462E" stroke-width="0.72" stroke-miterlimit="10" d="M78.11,103.72
			c0,0-1.07,19.6,4.32,19.85"/>
		
			<linearGradient id="Path_358_1_" gradientUnits="userSpaceOnUse" x1="-276.3708" y1="253.8324" x2="-276.3708" y2="252.5464" gradientTransform="matrix(39.595 0 0 -17.0949 11031.9814 4442.9565)">
			<stop  offset="0.033" style="stop-color:#040505"/>
			<stop  offset="1" style="stop-color:#040505;stop-opacity:0"/>
		</linearGradient>
		<path id="Path_358" opacity="0.5" fill="url(#Path_358_1_)" enable-background="new    " d="M103.78,104.78H70.96
			c-0.61,2.54-1.17,5.05-1.68,7.55c2.91,0.75,5.95,0.85,8.91,0.31c7.17-1.12,22,9.35,30.69,9.24
			C107.05,109.62,103.78,104.78,103.78,104.78z"/>
		<path id="Path_359" fill="#EC545B" d="M69.68,56.96L49.91,71.05l-8.14-10.28l0.83-0.55l-2.93-7.07l-4.01,2.51
			c-0.9,0.56-1.34,1.63-1.09,2.65c0.48,1.93,1.61,4.77,4.12,4.92c0,0,2.56,16.65,9.48,18.79s28.82-16.75,28.82-16.75L69.68,56.96z"
			/>
		
			<linearGradient id="Path_360_1_" gradientUnits="userSpaceOnUse" x1="-273.1017" y1="249.4087" x2="-272.1017" y2="249.4087" gradientTransform="matrix(20.548 0 0 -14.4 5668.1328 3655.6489)">
			<stop  offset="0" style="stop-color:#E9373E"/>
			<stop  offset="0.149" style="stop-color:#E9373E;stop-opacity:0.984"/>
			<stop  offset="0.282" style="stop-color:#E9373E;stop-opacity:0.937"/>
			<stop  offset="0.409" style="stop-color:#E9373E;stop-opacity:0.859"/>
			<stop  offset="0.533" style="stop-color:#E9373E;stop-opacity:0.749"/>
			<stop  offset="0.654" style="stop-color:#E9373E;stop-opacity:0.608"/>
			<stop  offset="0.773" style="stop-color:#E9373E;stop-opacity:0.431"/>
			<stop  offset="0.889" style="stop-color:#E9373E;stop-opacity:0.227"/>
			<stop  offset="1" style="stop-color:#E9373E;stop-opacity:0"/>
		</linearGradient>
		<path id="Path_360" fill="url(#Path_360_1_)" d="M69.69,56.96L56.44,66.4c4.41,0.11,11.7,0.91,12.95,4.96
			c4.37-3.31,7.6-6.1,7.6-6.1L69.69,56.96z"/>
		<path id="Path_361" fill="#00499A" d="M79.56,48.68l-10.31,7.35c-0.64,0.45-0.79,1.33-0.34,1.97c0.03,0.05,0.07,0.09,0.11,0.14
			L77.14,67L79.56,48.68z"/>
		<path id="Path_362" fill="#FC9017" d="M83.01,47.89c-4.14,2.33-11.44,13.92-11.44,13.92c-0.28-3.71,0.34-7.42,1.81-10.84
			c0,0-5.12-0.07-5.72-1.28c-1.97-3.95,4.21-12.79,4.21-12.79c-8.35-1.96-11.36-7-5.87-10.31s11.74-6.25,11.74-6.25
			s3.29-5.12,9.78-0.75c4.14,2.78,3.68,7.98,5.12,9.86s5.57,4.36,4.07,5.42c0,0,6.77,2.33,8.2,8.58c0,0-6.85-1.27-10.69,1.13
			L83.01,47.89z"/>
		<path id="Path_363" fill="#00499A" d="M94.22,44.58c4.36-3.62,10.98-4.14,14-0.91s3.23,14.23,3.23,14.23h-4.21
			c0,0-4.97,15.73-5.12,22.5s5.57,25.13,5.57,25.13c0.79,2.71-2.71,2.94-8.47,2.94H71.45c-5.64,0-3.05-4.74-1.92-9.6
			s5.04-19.76,5.11-22.91s-5.68-7.98-3.09-14.15s7.08-14.45,11.44-13.92L94.22,44.58z"/>
		<path id="Path_364" fill="none" stroke="#0C2855" stroke-width="0.72" stroke-miterlimit="10" d="M94.71,53.15l-1.02,6.1
			c1.16,1.04,2.68,1.58,4.23,1.52"/>
		<path id="Path_365" fill="none" stroke="#0C2855" stroke-width="0.72" stroke-miterlimit="10" d="M90.42,55.58
			c0,0-0.62,6.6,6.72,8.13"/>
		
			<linearGradient id="Path_366_1_" gradientUnits="userSpaceOnUse" x1="-273.1612" y1="267.9246" x2="-273.5572" y2="266.5256" gradientTransform="matrix(22.8349 0 0 -52.888 6339.1401 14215.584)">
			<stop  offset="0" style="stop-color:#0C2855"/>
			<stop  offset="1" style="stop-color:#0C2855;stop-opacity:0"/>
		</linearGradient>
		<path id="Path_366" opacity="0.57" fill="url(#Path_366_1_)" enable-background="new    " d="M102.12,80.39
			c0.11-2.05,0.38-4.09,0.81-6.1l-6.97-13.82l-2.27-1.23l0.61-3.67c-3.45,1.3-1.8,5.76-1.18,8.63s-0.45,4.29-4.74,4.06
			s-4.18,0.23-1.69,4.29s4,9.46,3.01,17.5c-1.07,6.24-2.62,12.4-4.65,18.4h14.17c5.76,0,9.26-0.23,8.47-2.94
			C107.69,105.53,101.97,87.17,102.12,80.39z"/>
		<path id="Path_367" fill="none" stroke="#CD111C" stroke-width="0.528" stroke-miterlimit="10" d="M49.91,71.05
			c1,0.62,1.66,1.67,1.79,2.84"/>
		
			<linearGradient id="Path_368_1_" gradientUnits="userSpaceOnUse" x1="-265.1248" y1="219.5854" x2="-264.1248" y2="219.5854" gradientTransform="matrix(10.182 0 0 -6.494 2738.1826 1492.4711)">
			<stop  offset="0" style="stop-color:#E9373E"/>
			<stop  offset="0.149" style="stop-color:#E9373E;stop-opacity:0.984"/>
			<stop  offset="0.282" style="stop-color:#E9373E;stop-opacity:0.937"/>
			<stop  offset="0.409" style="stop-color:#E9373E;stop-opacity:0.859"/>
			<stop  offset="0.533" style="stop-color:#E9373E;stop-opacity:0.749"/>
			<stop  offset="0.654" style="stop-color:#E9373E;stop-opacity:0.608"/>
			<stop  offset="0.773" style="stop-color:#E9373E;stop-opacity:0.431"/>
			<stop  offset="0.889" style="stop-color:#E9373E;stop-opacity:0.227"/>
			<stop  offset="1" style="stop-color:#E9373E;stop-opacity:0"/>
		</linearGradient>
		<path id="Path_368" fill="url(#Path_368_1_)" d="M43.92,63.49c-1.43-0.04-3.68-0.11-5.24-0.26c0.33,1.93,0.75,3.85,1.28,5.74
			c2.73-1.22,6.78-0.04,8.9,0.75L43.92,63.49z"/>
		
			<linearGradient id="Path_369_1_" gradientUnits="userSpaceOnUse" x1="-272.509" y1="270.2364" x2="-274.5211" y2="269.3844" gradientTransform="matrix(24.236 0 0 -85.865 6708.5181 23344.6211)">
			<stop  offset="0.033" style="stop-color:#040505"/>
			<stop  offset="1" style="stop-color:#040505;stop-opacity:0"/>
		</linearGradient>
		<path id="Path_369" opacity="0.5" fill="url(#Path_369_1_)" enable-background="new    " d="M62.69,189.24l-1.96,32.17h13.38
			c7.36-24.85,4.08-34.72,4.08-34.72l6.77-41.64l-1.36-9.5C80.61,147.59,69.46,173.81,62.69,189.24z"/>
		<path id="Path_370" fill="#0C2855" d="M47.77,255.34c0.02,1.24,13.09-0.26,16.25-0.32c2.64-0.05,1.24-1.59,0.87-3.55
			c-5.48,2.81-3.05-2.44-4.94-2.47l-6.02,4.18C53.94,253.19,47.74,254.1,47.77,255.34z"/>
		<path id="Path_371" fill="#0C2855" d="M92.14,255.34c0.02,1.24,13.09-0.26,16.25-0.32c2.64-0.05,1.24-1.59,0.87-3.55
			c-5.48,2.81-3.05-2.44-4.94-2.47l-6.01,4.18C98.31,253.19,92.12,254.1,92.14,255.34z"/>
		
			<linearGradient id="Path_372_1_" gradientUnits="userSpaceOnUse" x1="-277.6246" y1="266.7534" x2="-277.5966" y2="267.8474" gradientTransform="matrix(56.9163 0 0 -52.2199 15828.8926 13977.6172)">
			<stop  offset="0.049" style="stop-color:#FFFFFF"/>
			<stop  offset="1" style="stop-color:#FFFFFF;stop-opacity:0"/>
		</linearGradient>
		<path id="Path_372" fill="url(#Path_372_1_)" d="M48.86,53.15c0,0-7.05-3.05-4.36-11.63s12.95-6.89,12.39-14.79
			c-0.57-8.01-8.64-5.98-12.39-8.24s-0.21-8.69-5.82-11.4S27.54,8.46,19.87,9.81s-14.33,2.6-14.11,0s3.95-2.94,2.71-6.1
			S0.9,0.55,0,1.46c0,0,6.89,0,7.11,2.37s-5.1,3.5-4.87,7.78S11.85,15,21,14.44s8.32,3.05,7.6,7.57s0.75,7.56,6.73,8.35
			s8.76,1.53,5.42,8.13c-2.88,5.68-0.59,10.95,4.8,14.67L48.86,53.15z"/>
		<path id="Path_373" fill="#EC545B" d="M74.65,34.94c0,0,0.6,1.05,1.88,3.91c1.28,2.86,2.78,4.14,5.87,3.84l0.6,5.19
			c0,0-5.95,4.83-2.71,6.33s7.9-5.27,13.92-9.63c0,0-4.79-2.24-6.17-6.4c-2.41-7.22-6.1-5.27-7.9-12.87
			C80.14,25.31,77.96,32.83,74.65,34.94z"/>
		
			<linearGradient id="Path_374_1_" gradientUnits="userSpaceOnUse" x1="-265.2036" y1="226.6953" x2="-264.2036" y2="226.6953" gradientTransform="matrix(10.233 0 0 -7.472 2796.2329 1734.9348)">
			<stop  offset="0" style="stop-color:#E9373E"/>
			<stop  offset="0.149" style="stop-color:#E9373E;stop-opacity:0.984"/>
			<stop  offset="0.282" style="stop-color:#E9373E;stop-opacity:0.937"/>
			<stop  offset="0.409" style="stop-color:#E9373E;stop-opacity:0.859"/>
			<stop  offset="0.533" style="stop-color:#E9373E;stop-opacity:0.749"/>
			<stop  offset="0.654" style="stop-color:#E9373E;stop-opacity:0.608"/>
			<stop  offset="0.773" style="stop-color:#E9373E;stop-opacity:0.431"/>
			<stop  offset="0.889" style="stop-color:#E9373E;stop-opacity:0.227"/>
			<stop  offset="1" style="stop-color:#E9373E;stop-opacity:0"/>
		</linearGradient>
		<path id="Path_374" fill="url(#Path_374_1_)" d="M88.05,38.18c-0.1-0.3-0.2-0.58-0.31-0.85c-1.13,2.46-3.56,5.12-5.34,5.36
			l0.25,2.11l9.99-1.15C90.56,42.37,88.95,40.45,88.05,38.18z"/>
		<path id="Path_375" fill="#EC545B" d="M110.06,57.89c-4.49-2.08-9.74-1.69-13.89,1.02l-11.06,79.92c0,0-1.58,1.86-0.56,2.68
			s3.39,0.48,6.1,0.48h7.45c0,0-4.85-3.27-6.1-3.89c-0.86-0.61-1.46-1.51-1.69-2.54c0,0,10.39-25.06,9.37-38.94
			C104.1,83.98,107.57,71.04,110.06,57.89z"/>
		<path id="Path_376" fill="#886933" d="M37.88,52.65c0.28,3.28,1.33,6.46,3.07,9.26c0.33,0.51,0.9,0.82,1.51,0.81h6.19
			c0.61,0,1.18-0.3,1.51-0.81c1.74-2.8,2.79-5.97,3.07-9.26c0.04-0.49-0.31-0.92-0.8-0.96c-0.03,0-0.05,0-0.08,0H38.76
			c-0.49,0-0.88,0.39-0.88,0.88C37.87,52.59,37.87,52.62,37.88,52.65z"/>
	</g>
	<g id="Group_150" transform="translate(478.388 186.478)">
		<path id="Path_377" fill="#C2D3E9" d="M49.52,175.39c0,1.47-11.09,2.66-24.76,2.66S0,176.86,0,175.39s11.09-2.66,24.76-2.66
			S49.52,173.92,49.52,175.39z"/>
		<g id="Group_149" transform="translate(5.151)">
			<g id="Group_144" transform="translate(0 77.121)">
				<rect id="Rectangle_152" x="0" y="0.93" fill="#685029" width="39.22" height="97.34"/>
				
					<line id="Line_78" fill="none" stroke="#40321A" stroke-width="0.835" stroke-miterlimit="10" x1="39.22" y1="32.91" x2="0" y2="32.91"/>
				
					<line id="Line_79" fill="none" stroke="#40321A" stroke-width="0.835" stroke-miterlimit="10" x1="39.22" y1="65.78" x2="0" y2="65.78"/>
				
					<line id="Line_80" fill="none" stroke="#40321A" stroke-width="0.835" stroke-miterlimit="10" x1="39.22" y1="35.69" x2="0" y2="35.69"/>
				
					<line id="Line_81" fill="none" stroke="#40321A" stroke-width="0.835" stroke-miterlimit="10" x1="39.22" y1="3.72" x2="0" y2="3.72"/>
				
					<line id="Line_82" fill="none" stroke="#40321A" stroke-width="0.835" stroke-miterlimit="10" x1="39.22" y1="68.57" x2="0" y2="68.57"/>
				<path id="Path_378" fill="#FFFFFF" d="M22.18,9.39c0.04,1.42-1.08,2.6-2.5,2.64c-1.42,0.04-2.6-1.08-2.64-2.5s1.08-2.6,2.5-2.64
					c0.02,0,0.05,0,0.07,0C21.01,6.87,22.16,7.99,22.18,9.39C22.18,9.39,22.18,9.39,22.18,9.39z"/>
				<path id="Path_379" fill="#FFFFFF" d="M22.18,41.97c0.04,1.42-1.07,2.6-2.49,2.64c-1.42,0.04-2.6-1.07-2.64-2.49
					s1.07-2.6,2.49-2.64c0.03,0,0.05,0,0.08,0C21.01,39.45,22.16,40.57,22.18,41.97z"/>
				<path id="Path_380" fill="#FFFFFF" d="M22.18,74.55c0.04,1.42-1.07,2.6-2.49,2.64c-1.42,0.04-2.6-1.07-2.64-2.49
					c-0.04-1.42,1.07-2.6,2.49-2.64c0.03,0,0.05,0,0.08,0C21.01,72.04,22.16,73.15,22.18,74.55z"/>
				
					<linearGradient id="Path_381_1_" gradientUnits="userSpaceOnUse" x1="-408.3529" y1="116.4425" x2="-411.0549" y2="114.6505" gradientTransform="matrix(11.2 0 0 -81.508 4592.0054 9486.4971)">
					<stop  offset="0" style="stop-color:#040505"/>
					<stop  offset="0.931" style="stop-color:#040505;stop-opacity:0"/>
				</linearGradient>
				<path id="Path_381" opacity="0.4" fill="url(#Path_381_1_)" enable-background="new    " d="M0,16.76v81.51h11.2L0,16.76z"/>
			</g>
			<g id="Group_148" transform="translate(1.246)">
				<g id="Group_147">
					<g id="Group_145">
						
							<linearGradient id="Path_382_1_" gradientUnits="userSpaceOnUse" x1="-418.0665" y1="191.2751" x2="-417.0665" y2="191.2751" gradientTransform="matrix(21.3117 0 0 -60.2442 8909.6943 11554.2695)">
							<stop  offset="0.043" style="stop-color:#FC9017"/>
							<stop  offset="1" style="stop-color:#ED491F"/>
						</linearGradient>
						<path id="Path_382" fill="url(#Path_382_1_)" d="M10.66,61.06C6.34,56.79,4.54,50.6,5.9,44.69c0,0-10.5-10.27-3.5-16.48
							c0,0-4.06-25.62,4.29-27.21s9.26,21.67,9.26,21.67s4.74-0.89,1.69,14.63c0,0,6.55,0.61,2.15,23.87L10.66,61.06z"/>
						<path id="Path_383" fill="none" stroke="#0C2855" stroke-width="1.092" stroke-miterlimit="10" d="M6.7,1.01
							c0,0,2.18,34.28,8.65,60.11"/>
					</g>
					<g id="Group_146" transform="translate(15.839 16.206)">
						
							<linearGradient id="Path_384_1_" gradientUnits="userSpaceOnUse" x1="-434.5224" y1="172.904" x2="-433.5224" y2="172.904" gradientTransform="matrix(23.2069 0 0 -43.9812 10083.9219 7627.4482)">
							<stop  offset="0.043" style="stop-color:#FC9017"/>
							<stop  offset="1" style="stop-color:#ED491F"/>
						</linearGradient>
						<path id="Path_384" fill="url(#Path_384_1_)" d="M0,44.91h10.72c0,0,11.96-18.91,8.58-25.91c0,0,6.88-15.69,2.37-17.84
							S11.52,12.01,11.52,12.01S1.12,11.67,0,44.91z"/>
						<path id="Path_385" fill="none" stroke="#0C2855" stroke-width="1.092" stroke-miterlimit="10" d="M21.67,1.17
							c0,0-12.08,21.87-16.2,43.74"/>
					</g>
				</g>
				<path id="Path_386" fill="#0C2855" d="M18.36,58.44c-5.74,0-10.34,0.69-10.25,1.53l1.78,18.08h16.95l1.78-18.08
					C28.7,59.13,24.11,58.44,18.36,58.44z"/>
			</g>
		</g>
	</g>
	<g id="Group_152" transform="translate(211.943 249.835)">
		<path id="Path_387" fill="#C2D3E9" d="M262.39,123.32c0,1.12-2.67,2.03-5.98,2.03s-5.98-0.91-5.98-2.03s2.68-2.03,5.98-2.03
			S262.39,122.2,262.39,123.32z"/>
		<path id="Path_388" fill="#C2D3E9" d="M11.96,123.32c0,1.12-2.68,2.03-5.98,2.03S0,124.44,0,123.32s2.68-2.03,5.98-2.03
			S11.96,122.2,11.96,123.32z"/>
		<rect id="Rectangle_153" x="15.89" y="7.39" fill="#886933" width="230.22" height="18.97"/>
		<g id="Group_151" transform="translate(4.021 6.458)">
			<path id="Path_389" fill="#685029" d="M6.36,0.93L0,116.42h4.24L20.01,0.93H6.36z"/>
			<path id="Path_390" fill="#685029" d="M247.6,0.93l6.36,115.49h-4.24L233.95,0.93H247.6z"/>
		</g>
		
			<linearGradient id="Path_391_1_" gradientUnits="userSpaceOnUse" x1="-151.6146" y1="113.5259" x2="-151.6146" y2="106.0679" gradientTransform="matrix(242.342 0 0 -15.571 36873.9023 1745.4078)">
			<stop  offset="0" style="stop-color:#040505"/>
			<stop  offset="0.931" style="stop-color:#040505;stop-opacity:0"/>
		</linearGradient>
		<path id="Path_391" opacity="0.4" fill="url(#Path_391_1_)" enable-background="new    " d="M10.14,11.83l242.34,11.13
			l-0.86-15.57H10.38L10.14,11.83z"/>
		<rect id="Rectangle_154" x="0.03" y="0.93" fill="#886933" width="261.95" height="8.27"/>
	</g>
	<g id="Group_153" transform="translate(448.54 109.994)">
		
			<linearGradient id="Path_392_1_" gradientUnits="userSpaceOnUse" x1="-385.0148" y1="265.505" x2="-384.7238" y2="264.044" gradientTransform="matrix(40.4 0 0 -40.4 15570.9727 10723.6367)">
			<stop  offset="0" style="stop-color:#040505"/>
			<stop  offset="0.931" style="stop-color:#040505;stop-opacity:0"/>
		</linearGradient>
		<path id="Path_392" opacity="0.4" fill="url(#Path_392_1_)" enable-background="new    " d="M41.58,22.36
			c0,11.16-9.04,20.2-20.2,20.2c-11.16,0-20.2-9.04-20.2-20.2s9.04-20.2,20.2-20.2S41.58,11.21,41.58,22.36L41.58,22.36z"/>
		<path id="Path_393" fill="#00499A" d="M40.39,21.13c0,11.16-9.04,20.2-20.2,20.2c-11.16,0-20.2-9.04-20.2-20.2
			s9.04-20.2,20.2-20.2S40.39,9.97,40.39,21.13C40.39,21.13,40.39,21.13,40.39,21.13z"/>
		<path id="Path_394" fill="#FFFFFF" d="M35.29,21.13c0,8.33-6.75,15.09-15.09,15.09c-8.33,0-15.09-6.75-15.09-15.09
			c0-8.33,6.75-15.09,15.08-15.09C28.53,6.03,35.29,12.79,35.29,21.13C35.29,21.12,35.29,21.13,35.29,21.13z"/>
		<path id="Path_395" fill="none" stroke="#4682C3" stroke-width="0.759" stroke-miterlimit="10" d="M20.19,8.8v12.97l8.47-6.56"/>
	</g>
</g>
</svg>
