<?xml version="1.0" encoding="utf-8"?>
<!-- Generator: Adobe Illustrator 25.0.1, SVG Export Plug-In . SVG Version: 6.00 Build 0)  -->
<svg version="1.2" baseProfile="tiny" id="Layer_1" xmlns="http://www.w3.org/2000/svg" xmlns:xlink="http://www.w3.org/1999/xlink"
	 x="0px" y="0px" viewBox="0 0 44 44" overflow="visible" xml:space="preserve">
<g id="Group_2010" transform="translate(-835 -690)">
	<circle id="Ellipse_7" fill="#F2F2F3" cx="857" cy="712" r="22"/>
	<g id="data_image_svg_xml_-_2020-10-17T114708.413" transform="translate(826 682.603)">
		<path id="Path_555" fill="#E50019" d="M37.05,43.4C26.53,43.39,18.01,34.86,18,24.35c0-1.75,1.42-3.17,3.17-3.17h3.17
			c1.75,0,3.17,1.42,3.17,3.17v5.42l-3.57,3.57c1.11,1.61,2.5,3,4.11,4.1l3.57-3.57h5.41c1.75,0,3.17,1.42,3.17,3.17v3.17
			C40.22,41.98,38.8,43.4,37.05,43.4z M30.98,39.03c1.93,0.79,3.99,1.2,6.07,1.19v-3.17h-4.1L30.98,39.03z M21.18,24.35
			c-0.01,2.08,0.4,4.15,1.19,6.07l1.98-1.98v-4.09L21.18,24.35z"/>
		<path id="Path_556" fill="#E50019" d="M37.05,30.7h-3.17c0-1.75-1.42-3.17-3.18-3.17v-3.17C34.2,24.35,37.05,27.19,37.05,30.7z"/>
		<path id="Path_557" fill="#E50019" d="M43.4,30.7h-3.18c0-5.26-4.26-9.52-9.52-9.53c0,0,0,0,0,0V18C37.71,18,43.4,23.69,43.4,30.7
			C43.4,30.7,43.4,30.7,43.4,30.7z"/>
	</g>
</g>
</svg>
