<?xml version="1.0" encoding="utf-8"?>
<!-- Generator: Adobe Illustrator 25.0.1, SVG Export Plug-In . SVG Version: 6.00 Build 0)  -->
<svg version="1.2" baseProfile="tiny" id="Capa_1" xmlns="http://www.w3.org/2000/svg" xmlns:xlink="http://www.w3.org/1999/xlink"
	 x="0px" y="0px" viewBox="0 0 30 30" overflow="visible" xml:space="preserve">
<g id="Group_2472" transform="translate(2727.532 -4525.655)">
	<g id="Group_1705" transform="translate(-2702.532 4530.655) rotate(90)">
		<g id="Group_1702_1_" transform="translate(0 0)">
			<g id="Ellipse_20_1_" transform="translate(0 0)">
				<g>
					<circle fill="#98FAFC" cx="10" cy="10" r="10"/>
				</g>
				<g>
					<path fill="#1478CC" d="M25,10c0,8.3-6.7,15-15,15S-5,18.3-5,10S1.7-5,10-5S25,1.7,25,10z M0,10c0,5.5,4.5,10,10,10
						s10-4.5,10-10S15.5,0,10,0S0,4.5,0,10z"/>
				</g>
			</g>
		</g>
	</g>
	<g id="Group_1715" transform="translate(-2707.108 4535.231) rotate(90)">
		<g id="Group_1702-2_1_">
			<g id="Ellipse_20-2_1_">
				<circle fill="#0C50B5" cx="5.4" cy="5.4" r="5.4"/>
			</g>
		</g>
	</g>
</g>
</svg>
