<?xml version="1.0" encoding="utf-8"?>
<!-- Generator: Adobe Illustrator 25.0.1, SVG Export Plug-In . SVG Version: 6.00 Build 0)  -->
<svg version="1.2" baseProfile="tiny" id="Capa_1" xmlns="http://www.w3.org/2000/svg" xmlns:xlink="http://www.w3.org/1999/xlink"
	 x="0px" y="0px" viewBox="0 0 54.9 54.9" overflow="visible" xml:space="preserve">
<g>
	<g id="Group_1702" transform="translate(49.936 5) rotate(90)">
		<g id="Ellipse_20" transform="translate(0 0)">
			<g>
				
					<ellipse transform="matrix(2.535182e-06 1 -1 2.535182e-06 44.9359 3.971640e-04)" fill="#FFFFFF" cx="22.5" cy="22.5" rx="22.5" ry="22.5"/>
			</g>
			<g>
				<path fill="#1371C7" d="M49.9,22.5c0,15.1-12.3,27.5-27.5,27.5S-5,37.6-5,22.5S7.3-5,22.5-5S49.9,7.3,49.9,22.5z M0,22.5
					c0,12.4,10.1,22.5,22.5,22.5s22.5-10.1,22.5-22.5S34.9,0,22.5,0S0,10.1,0,22.5z"/>
			</g>
		</g>
	</g>
	<g id="Group_1702-2" transform="translate(39.654 15.282) rotate(90)">
		<g id="Ellipse_20-2">
			
				<ellipse transform="matrix(2.535182e-06 1 -1 2.535182e-06 24.372 4.231381e-04)" fill="#0C50B5" cx="12.2" cy="12.2" rx="12.2" ry="12.2"/>
		</g>
	</g>
</g>
</svg>
