<?xml version="1.0" encoding="utf-8"?>
<!-- Generator: Adobe Illustrator 25.0.1, SVG Export Plug-In . SVG Version: 6.00 Build 0)  -->
<svg version="1.2" baseProfile="tiny" id="Layer_1" xmlns="http://www.w3.org/2000/svg" xmlns:xlink="http://www.w3.org/1999/xlink"
	 x="0px" y="0px" viewBox="0 0 34.35 25.72" overflow="visible" xml:space="preserve">
<path id="data_image_svg_xml_-_2020-10-17T124400.872" fill="#0063B0" d="M34.32,1.35C34.16,0.59,33.5,0.03,32.72,0H3.63
	C2.96,0,2.29-0.01,1.62,0C0.74,0.05,0.04,0.76,0,1.64v18.61c0,3.02,2.45,5.47,5.47,5.47h23.41c3.02,0,5.47-2.45,5.47-5.47V1.64
	C34.35,1.54,34.34,1.44,34.32,1.35z M28.1,3.28l-9.59,7.79c-0.78,0.63-1.9,0.63-2.68,0L6.25,3.28H28.1z M31.08,20.25
	c0,1.22-0.98,2.2-2.2,2.2h0H5.47c-1.22,0-2.2-0.98-2.2-2.2l0,0V5.08l10.5,8.53c1.98,1.6,4.82,1.6,6.8,0l10.5-8.53L31.08,20.25z"/>
</svg>
