<?xml version="1.0" encoding="utf-8"?>
<!-- Generator: Adobe Illustrator 25.0.1, SVG Export Plug-In . SVG Version: 6.00 Build 0)  -->
<svg version="1.2" baseProfile="tiny" id="Layer_1" xmlns="http://www.w3.org/2000/svg" xmlns:xlink="http://www.w3.org/1999/xlink"
	 x="0px" y="0px" viewBox="0 0 44 44" overflow="visible" xml:space="preserve">
<g id="Group_211" transform="translate(-835 -690)">
	<circle id="Ellipse_7" fill="#F2F2F3" cx="857" cy="712" r="22"/>
	<g id="data_image_svg_xml_-_2020-10-17T114955.769" transform="translate(827 681.136)">
		<path id="Path_558" fill="#0063B0" d="M39.76,29.66v-8.55c0-1.72-1.39-3.11-3.11-3.11l0,0H28.1c-0.82,0-1.62,0.33-2.2,0.91
			l-3.89,3.89c-0.58,0.58-0.91,1.38-0.91,2.2v4.66c-1.72,0-3.11,1.39-3.11,3.11v6.99c0,1.72,1.39,3.11,3.11,3.11h0h18.65
			c1.72,0,3.11-1.39,3.11-3.11v0v-6.99C42.86,31.05,41.47,29.66,39.76,29.66L39.76,29.66z M24.22,24.99h2.72
			c0.64,0,1.16-0.52,1.16-1.17v-2.72h8.55v8.55H24.22V24.99z M21.11,39.76v-6.99h18.65v6.99H21.11z"/>
		<circle id="Ellipse_8" fill="#0063B0" cx="24.5" cy="36.36" r="1.5"/>
		<circle id="Ellipse_9" fill="#0063B0" cx="29.5" cy="36.36" r="1.5"/>
	</g>
</g>
</svg>
