<?xml version="1.0" encoding="utf-8"?>
<!-- Generator: Adobe Illustrator 25.0.1, SVG Export Plug-In . SVG Version: 6.00 Build 0)  -->
<svg version="1.2" baseProfile="tiny" id="Layer_1" xmlns="http://www.w3.org/2000/svg" xmlns:xlink="http://www.w3.org/1999/xlink"
	 x="0px" y="0px" viewBox="0 0 68.24 54.38" overflow="visible" xml:space="preserve">
<g>
	<path id="Path_147" fill="#0063B0" d="M29.82,28.39c-5.52,2.24-8.18,8.54-5.94,14.06c2.24,5.52,8.54,8.18,14.06,5.94
		c5.52-2.24,8.18-8.54,5.94-14.06c-0.48-1.19-1.17-2.28-2.04-3.23c-1.8-1.99-4.28-3.23-6.95-3.48c-0.55-0.05-1.04,0.35-1.09,0.9
		c-0.05,0.55,0.35,1.04,0.9,1.09c4.83,0.44,8.39,4.7,7.95,9.53c-0.44,4.83-4.7,8.39-9.53,7.95c-4.83-0.44-8.39-4.7-7.95-9.53
		c0.29-3.26,2.38-6.08,5.4-7.33c0.51-0.2,0.77-0.78,0.57-1.29c-0.2-0.51-0.78-0.77-1.29-0.57C29.85,28.38,29.84,28.38,29.82,28.39
		L29.82,28.39z"/>
	<g id="Group_51" transform="translate(0)">
		<g>
			<g id="Group_50">
				<path id="Path_148" fill="#0063B0" d="M28.93,38.44c0.02,2.75,2.27,4.97,5.03,4.95c2.75-0.02,4.97-2.27,4.95-5.03
					c-0.02-2.74-2.25-4.95-4.99-4.95C31.15,33.43,28.92,35.68,28.93,38.44L28.93,38.44z M33.91,35.42c1.67-0.02,3.05,1.31,3.07,2.99
					s-1.31,3.05-2.99,3.07s-3.05-1.31-3.07-2.99c0-0.01,0-0.03,0-0.04C30.92,36.78,32.25,35.43,33.91,35.42z"/>
				<path id="Path_149" fill="#E50019" d="M67.51,1.61c-0.7-0.98-1.83-1.55-3.03-1.55H3.75c-1.2-0.01-2.33,0.57-3.03,1.55
					C0,2.59-0.2,3.86,0.18,5.02c-0.05-0.1,2.31,5.77,2.37,5.93c0.66,2.01,1.98,3.74,3.75,4.9v11.47
					c-0.02,5.84,1.88,11.52,5.39,16.19c3.43,4.56,8.22,7.92,13.67,9.62c0.53,0.14,1.08-0.17,1.23-0.71
					c0.14-0.51-0.14-1.03-0.64-1.21c-2.5-0.76-4.86-1.91-7-3.4l2.27-12.44c1.23-7.08,7.96-11.83,15.04-10.6
					c5.42,0.94,9.66,5.18,10.6,10.6l2.29,12.51c-4.18,2.89-9.14,4.43-14.22,4.43c-1.54,0.04-3.08-0.02-4.61-0.17
					c-0.55-0.08-1.06,0.29-1.14,0.84c-0.08,0.55,0.29,1.06,0.84,1.14c0.02,0,0.04,0.01,0.06,0.01c1.61,0.17,3.23,0.23,4.85,0.19
					c13.05,0.02,24.24-9.32,26.56-22.16c0.08-0.55-0.3-1.05-0.84-1.14c-0.52-0.08-1.01,0.26-1.12,0.78
					c-1.04,5.77-4.08,10.98-8.58,14.73l-2.11-11.52c-1.43-8.17-9.2-13.63-17.37-12.21c-6.24,1.09-11.12,5.97-12.21,12.21
					l-2.09,11.44c-5.64-4.75-8.89-11.75-8.86-19.13V16.84c0.97,0.34,2,0.51,3.03,0.51H56.9c1.03,0,2.06-0.17,3.03-0.51v10.48
					c0,0.55,0.45,1,1,1s1-0.45,1-1V15.85c1.77-1.16,3.09-2.89,3.75-4.9c0.08-0.2,2.39-5.96,2.37-5.93
					C68.44,3.86,68.23,2.59,67.51,1.61L67.51,1.61z M63.79,10.3c-0.55,1.73-1.73,3.18-3.3,4.09c-1.09,0.63-2.33,0.96-3.59,0.96
					H11.34c-1.22,0-2.42-0.31-3.49-0.9c-1.64-0.91-2.86-2.42-3.42-4.21L2.79,6.16h7.34c0.55,0,1-0.45,1-1s-0.45-1-1-1h-8.1
					C1.94,3.68,2.06,3.18,2.35,2.79C2.67,2.34,3.2,2.07,3.75,2.07h60.73c0.56,0,1.08,0.27,1.41,0.72c0.29,0.39,0.4,0.89,0.32,1.37
					H14.8c-0.55,0-1,0.45-1,1s0.45,1,1,1h50.65C65.42,6.24,63.82,10.22,63.79,10.3L63.79,10.3z"/>
			</g>
		</g>
	</g>
	<path id="Path_150" fill="#E50019" d="M56.84,7.73c-1.66,0-3,1.34-3,3s1.34,3,3,3s3-1.34,3-3S58.5,7.73,56.84,7.73z M56.84,11.73
		c-0.55,0-1-0.45-1-1s0.45-1,1-1s1,0.45,1,1S57.4,11.73,56.84,11.73z"/>
	<path id="Path_151" fill="#E50019" d="M48.85,7.73c-1.66,0-3,1.34-3,3s1.34,3,3,3s3-1.34,3-3S50.5,7.73,48.85,7.73z M48.85,11.73
		c-0.55,0-1-0.45-1-1s0.45-1,1-1s1,0.45,1,1S49.4,11.73,48.85,11.73z"/>
</g>
</svg>
