<?xml version="1.0" encoding="utf-8"?>
<!-- Generator: Adobe Illustrator 25.0.1, SVG Export Plug-In . SVG Version: 6.00 Build 0)  -->
<svg version="1.2" baseProfile="tiny" id="Layer_1" xmlns="http://www.w3.org/2000/svg" xmlns:xlink="http://www.w3.org/1999/xlink"
	 x="0px" y="0px" viewBox="0 0 44 44" overflow="visible" xml:space="preserve">
<g id="Group_2012" transform="translate(-835 -690)">
	<circle id="Ellipse_7" fill="#F2F2F3" cx="857" cy="712" r="22"/>
	<g id="data_image_svg_xml_-_2020-10-25T172027.992" transform="translate(828.668 692.136)">
		<path id="Path_788" fill-rule="evenodd" fill="#E50019" d="M18.46,8h20.08c0.82,0.01,1.47,0.68,1.46,1.5c0,0.01,0,0.03,0,0.04
			v21.39c0,0.81-0.65,1.46-1.46,1.46c0,0,0,0,0,0H25.23L17,23.54v-14C16.99,8.72,17.64,8.04,18.46,8z M19.69,22h5.85
			c0.8,0.03,1.44,0.67,1.46,1.47v6.24h10.31v-19H19.69V22z"/>
	</g>
</g>
</svg>
