<?xml version="1.0" encoding="utf-8"?>
<!-- Generator: Adobe Illustrator 25.0.1, SVG Export Plug-In . SVG Version: 6.00 Build 0)  -->
<svg version="1.2" baseProfile="tiny" id="Layer_1" xmlns="http://www.w3.org/2000/svg" xmlns:xlink="http://www.w3.org/1999/xlink"
	 x="0px" y="0px" viewBox="0 0 67 67" overflow="visible" xml:space="preserve">
<g id="Group_2474" transform="translate(-1120 -7521)">
	<g id="Group_1663" transform="translate(1120 7521)">
		<path id="Path_733" fill="#34A853" d="M33.5,0C52,0,67,15,67,33.5S52,67,33.5,67S0,52,0,33.5S15,0,33.5,0z"/>
	</g>
	<g id="g18" transform="translate(895.998 7450.382)">
		<path id="path8" fill="#FFFFFF" d="M242.46,117.6h5.72v-13.9L240,97.57v17.58C240,116.5,241.1,117.6,242.46,117.6z"/>
		<path id="path10" fill="#FFFFFF" d="M267.8,117.6h5.72c1.35,0,2.45-1.1,2.45-2.45V97.57l-8.18,6.13L267.8,117.6z"/>
		<path id="path12" fill="#D5D5D5" d="M267.8,93.07v10.63l8.17-6.13V94.3c0-2.03-1.65-3.68-3.68-3.68c-0.8,0-1.57,0.26-2.21,0.74
			L267.8,93.07z"/>
		<path id="path14" fill="#FFFFFF" d="M248.18,103.7V93.07l9.81,7.36l9.81-7.36v10.63l-9.81,7.36L248.18,103.7z"/>
		<path id="path16" fill="#D5D5D5" d="M240,94.3v3.27l8.18,6.13V93.07l-2.29-1.72c-1.63-1.22-3.93-0.89-5.15,0.73
			C240.26,92.73,240,93.5,240,94.3z"/>
	</g>
</g>
</svg>
