<?xml version="1.0" encoding="utf-8"?>
<!-- Generator: Adobe Illustrator 25.0.1, SVG Export Plug-In . SVG Version: 6.00 Build 0)  -->
<svg version="1.2" baseProfile="tiny" id="Layer_1" xmlns="http://www.w3.org/2000/svg" xmlns:xlink="http://www.w3.org/1999/xlink"
	 x="0px" y="0px" viewBox="0 0 68.24 64.69" overflow="visible" xml:space="preserve">
<g>
	<g id="Group_31" transform="translate(0 0)">
		<path id="Path_97" fill="#0063B0" d="M65.85,41.48l-5.22-2.6V24.72c0-1.86-1.51-3.37-3.37-3.37H42.15l0-0.02
			c0.84-3.85,2.11-9.65-3.07-12.25c-0.66-0.33-1.47-0.06-1.8,0.6c-0.12,0.24-0.16,0.5-0.13,0.77c0.05,0.59-0.29,1.14-0.83,1.36
			c-0.68,0.41-1.53,0.4-2.21-0.02c-0.51-0.45-0.51-1.51,0-2.9c0.58-2.06,0.15-4.28-1.16-5.98c-0.99-1.65-2.72-2.73-4.64-2.89
			c-0.6,0-1.12,0.39-1.29,0.97c-0.53,2.03-1.4,3.95-2.56,5.69c-0.43,0.61-0.29,1.44,0.32,1.87c0.61,0.43,1.44,0.29,1.87-0.32
			c1.11-1.62,1.97-3.39,2.57-5.26c0.61,0.37,1.14,0.87,1.53,1.47c0.79,0.98,1.11,2.27,0.85,3.51c-1.28,3.41-0.08,5.13,0.74,5.85
			c1.51,1.17,3.58,1.32,5.23,0.37c0.71-0.36,1.31-0.92,1.73-1.6c1.45,1.77,1,4.59,0.22,8.17c-0.04,0.2-0.09,0.4-0.13,0.6h-20.7
			c0.01-1.69,0.26-3.38,0.75-5c0.25-0.7-0.11-1.47-0.81-1.72c-0.7-0.25-1.47,0.11-1.72,0.81c-0.01,0.02-0.02,0.04-0.02,0.07
			c-0.57,1.9-0.87,3.86-0.88,5.84H3.37C1.51,21.34,0,22.85,0,24.72V58c0,1.86,1.51,3.37,3.37,3.38h46.19
			c1.07,1.03,2.27,1.91,3.56,2.63c1.21,0.89,2.85,0.89,4.06,0c6.59-4.16,10.73-11.29,11.06-19.08
			C68.22,42.76,67.37,42.23,65.85,41.48L65.85,41.48z M55.74,36.45c-0.38-0.19-0.82-0.19-1.2,0l-2.05,1.02v-4.1h5.46v4.18
			L55.74,36.45z M47.38,40.02h-8.32v-6.65h10.76v5.44L47.38,40.02z M21.58,33.37v6.65H10.82v-6.65H21.58z M28.97,24.03v6.65h-12.1
			v-6.65H28.97z M40.49,24.03L40.49,24.03L40.49,24.03h3.26v6.65h-12.1v-6.65H40.49z M24.27,40.02v-6.65h12.1v6.65L24.27,40.02
			L24.27,40.02z M16.87,49.35V42.7h12.11v6.65H16.87z M8.14,40.02H2.68v-6.65h5.46V40.02z M2.68,42.7h11.5v6.65H2.68V42.7z
			 M21.58,52.03v6.65H10.82v-6.65H21.58z M24.26,52.03h12.1v6.65h-12.1V52.03z M39.05,52.03h4.36c0.49,1.27,1.08,2.5,1.76,3.67
			c0.6,1.03,1.26,2.03,1.98,2.98h-8.1L39.05,52.03z M42.57,49.35H31.66V42.7h11c-0.45,0.65-0.67,1.43-0.61,2.22
			C42.04,46.41,42.22,47.9,42.57,49.35L42.57,49.35z M57.95,24.72v5.96h-11.5v-6.65h10.82C57.64,24.04,57.95,24.35,57.95,24.72
			L57.95,24.72z M3.37,24.03h10.82v6.65H2.68v-5.96C2.68,24.35,2.99,24.04,3.37,24.03L3.37,24.03z M2.68,58v-5.96h5.46v6.65H3.37
			C2.99,58.68,2.69,58.38,2.68,58L2.68,58z M62.8,54.36c-1.6,3.01-4,5.53-6.92,7.29c-0.22,0.15-0.47,0.26-0.73,0.34
			c-0.26-0.07-0.51-0.19-0.74-0.34c-1.21-0.68-2.32-1.52-3.3-2.51c-0.03-0.03-0.06-0.07-0.1-0.1c-1.37-1.41-2.55-2.98-3.52-4.68
			c-0.75-1.29-1.38-2.65-1.86-4.06l0,0c-0.59-1.72-0.9-3.52-0.9-5.34c-0.01-0.2,0.01-0.4,0.05-0.6c0.27-0.18,0.55-0.33,0.85-0.46
			l6.15-3.06h0l3.35-1.67l9.51,4.73c0.29,0.13,0.57,0.29,0.84,0.46c0.04,0.2,0.06,0.4,0.05,0.6C65.49,48.28,64.54,51.53,62.8,54.36
			L62.8,54.36z"/>
	</g>
</g>
</svg>
