<?xml version="1.0" encoding="utf-8"?>
<!-- Generator: Adobe Illustrator 25.0.1, SVG Export Plug-In . SVG Version: 6.00 Build 0)  -->
<svg version="1.2" baseProfile="tiny" id="Layer_1" xmlns="http://www.w3.org/2000/svg" xmlns:xlink="http://www.w3.org/1999/xlink"
	 x="0px" y="0px" viewBox="0 0 68.23 68.39" overflow="visible" xml:space="preserve">
<g>
	<path id="Path_74" fill="#0063B0" d="M67.14,46.39h-1.1V11.17c-0.01-3.64-2.96-6.59-6.6-6.6H39.51c-0.6-2.98-3.49-4.91-6.47-4.31
		c-2.18,0.44-3.88,2.14-4.31,4.31H8.8c-3.64,0.01-6.59,2.96-6.6,6.6v35.22H1.1c-0.61,0-1.1,0.49-1.1,1.1l0,0v4.4
		c0.01,3.04,2.46,5.49,5.5,5.5h29.2c-0.38,1.06-0.58,2.18-0.58,3.3v6.6c0,0.61,0.49,1.1,1.1,1.1l0,0h26.41c0.61,0,1.1-0.49,1.1-1.1
		l0,0v-6.6c0-1.12-0.2-2.24-0.58-3.3h0.58c3.04,0,5.5-2.46,5.5-5.5v-4.4C68.23,46.88,67.74,46.39,67.14,46.39L67.14,46.39
		L67.14,46.39z M63.84,11.17v35.22h-6.89c0.19-0.72,0.29-1.46,0.29-2.2h3.3c0.61,0,1.1-0.49,1.1-1.1l0,0V10.06
		c0-0.61-0.49-1.1-1.1-1.1l0,0H38.49c0.5-0.65,0.85-1.4,1.02-2.2h19.92C61.86,6.76,63.83,8.73,63.84,11.17L63.84,11.17z
		 M48.43,50.79c-3.64-0.01-6.59-2.96-6.6-6.6v-2.2c0-3.65,2.96-6.6,6.6-6.6c3.65,0,6.6,2.96,6.6,6.6v2.2
		C55.03,47.83,52.08,50.79,48.43,50.79L48.43,50.79z M39.62,41.99h-2.2V27.68h22.01v14.31h-2.2c0-3.15-1.68-6.05-4.41-7.62
		c0-0.03,0.01-0.06,0.01-0.09c0-2.43-1.97-4.4-4.4-4.4s-4.4,1.97-4.4,4.4c0,0.03,0.01,0.06,0.01,0.09
		C41.31,35.94,39.63,38.84,39.62,41.99L39.62,41.99z M35.22,11.17v30.82H8.8V11.17L35.22,11.17z M59.44,25.47h-3.4
		c-0.39-2.29-1.95-4.2-4.12-5.05c0.59-0.76,0.91-1.69,0.91-2.65c0-2.43-1.97-4.4-4.4-4.4s-4.4,1.97-4.4,4.4
		c0,0.96,0.33,1.89,0.92,2.65c-2.16,0.84-3.73,2.76-4.12,5.05h-3.4V11.17h22.01L59.44,25.47z M48.43,19.97c-1.22,0-2.2-0.98-2.2-2.2
		s0.98-2.2,2.2-2.2c1.21,0,2.2,0.98,2.2,2.2S49.64,19.97,48.43,19.97L48.43,19.97z M47.33,22.17h2.2c2,0.01,3.75,1.36,4.25,3.3
		h-10.7C43.58,23.54,45.32,22.18,47.33,22.17L47.33,22.17z M50.46,33.43c-1.33-0.33-2.72-0.33-4.06,0c0.47-1.12,1.76-1.65,2.88-1.18
		C49.81,32.47,50.24,32.9,50.46,33.43z M34.12,2.36c1.82,0,3.3,1.48,3.3,3.3s-1.48,3.3-3.3,3.3s-3.3-1.48-3.3-3.3v0
		C30.82,3.84,32.3,2.36,34.12,2.36z M4.4,11.17c0-2.43,1.97-4.4,4.4-4.4h19.92c0.17,0.8,0.52,1.55,1.02,2.2H7.7
		c-0.61,0-1.1,0.49-1.1,1.1l0,0v33.02c0,0.61,0.49,1.1,1.1,1.1l0,0h31.92c0,0.74,0.1,1.48,0.29,2.2H4.4L4.4,11.17z M5.5,55.2
		c-1.82,0-3.3-1.48-3.3-3.3v-3.3h38.61c0.5,0.87,1.15,1.65,1.92,2.3c-2.82,0.37-5.35,1.94-6.93,4.31L5.5,55.2z M60.54,66.2h-3.3
		v-4.4h-2.2v4.4H41.82v-4.4h-2.2v4.4h-3.3v-5.5c0.01-4.25,3.45-7.69,7.7-7.7h8.8c4.25,0.01,7.69,3.45,7.7,7.7L60.54,66.2z
		 M66.04,51.89c0,1.82-1.48,3.3-3.3,3.3h-1.67c-1.59-2.37-4.11-3.93-6.93-4.31c0.76-0.65,1.41-1.43,1.92-2.3h10L66.04,51.89z"/>
	<rect id="Rectangle_12" x="33.02" y="4.56" fill="#0063B0" width="2.2" height="2.2"/>
	<path id="Path_75" fill="#E50019" d="M12.1,39.78h19.81c0.61,0,1.1-0.49,1.1-1.1l0,0v-4.4c0-3.68-2.61-6.85-6.23-7.56
		c1.17-1.22,1.83-2.85,1.83-4.55v-2.2c0-3.65-2.96-6.6-6.6-6.6s-6.6,2.96-6.6,6.6v2.2c0,1.69,0.66,3.32,1.83,4.55
		c-3.61,0.71-6.22,3.87-6.23,7.56v4.4C11,39.29,11.5,39.78,12.1,39.78L12.1,39.78L12.1,39.78z M24.21,28.78c0,1.22-0.99,2.2-2.2,2.2
		c-1.21,0-2.19-0.98-2.2-2.2H24.21z M17.61,19.97c0-2.43,1.97-4.4,4.4-4.4s4.4,1.97,4.4,4.4v2.2c0,2.43-1.97,4.4-4.4,4.4
		s-4.4-1.97-4.4-4.4l0,0V19.97z M13.21,34.28c0.01-2.62,1.85-4.87,4.42-5.39c0.05,2.43,2.06,4.35,4.49,4.3
		c2.35-0.05,4.25-1.95,4.3-4.3c2.56,0.52,4.41,2.78,4.41,5.39v3.3h-2.2v-4.4h-2.2v4.4h-8.8v-4.4h-2.2v4.4h-2.2L13.21,34.28z"/>
</g>
</svg>
