<?xml version="1.0" encoding="utf-8"?>
<!-- Generator: Adobe Illustrator 25.0.1, SVG Export Plug-In . SVG Version: 6.00 Build 0)  -->
<svg version="1.2" baseProfile="tiny" id="Layer_1" xmlns="http://www.w3.org/2000/svg" xmlns:xlink="http://www.w3.org/1999/xlink"
	 x="0px" y="0px" viewBox="0 0 37 37" overflow="visible" xml:space="preserve">
<path id="data_image_svg_xml_-_2020-10-17T124149.827" fill="#0063B0" d="M18.5,18.5c-5.11,0-9.25-4.14-9.25-9.25S13.39,0,18.5,0
	s9.25,4.14,9.25,9.25S23.61,18.5,18.5,18.5z M18.5,3.7c-3.07,0-5.55,2.48-5.55,5.55s2.48,5.55,5.55,5.55s5.55-2.48,5.55-5.55l0,0
	C24.05,6.18,21.57,3.7,18.5,3.7z M37,35.15C37,28,31.2,22.2,24.05,22.2h0h-11.1C5.8,22.2,0,28,0,35.15c0,0,0,0,0,0
	C0,36.17,0.83,37,1.85,37c1.02,0,1.85-0.83,1.85-1.85c0-5.11,4.14-9.25,9.25-9.25h11.1c5.11,0,9.25,4.14,9.25,9.25
	c0,1.02,0.83,1.85,1.85,1.85C36.17,37,37,36.17,37,35.15z"/>
</svg>
