<?xml version="1.0" encoding="utf-8"?>
<!-- Generator: Adobe Illustrator 25.0.1, SVG Export Plug-In . SVG Version: 6.00 Build 0)  -->
<svg version="1.2" baseProfile="tiny" id="Layer_1" xmlns="http://www.w3.org/2000/svg" xmlns:xlink="http://www.w3.org/1999/xlink"
	 x="0px" y="0px" viewBox="0 0 67 67" overflow="visible" xml:space="preserve">
<g>
	<g id="Group_1663">
		<path id="Path_733" fill="#147BB8" d="M33.5,0C52,0,67,15,67,33.5S52,67,33.5,67S0,52,0,33.5S15,0,33.5,0z"/>
	</g>
	<g id="Group_1668" transform="translate(-164.388 -180.617)">
		<g id="Group_1665" transform="translate(181.388 197.617)">
			<rect id="Rectangle_268" x="0.7" y="10.98" fill="#FFFFFF" width="6.79" height="21.95"/>
			<path id="Path_738" fill="#FFFFFF" d="M4.06,8.1C6.3,8.12,8.13,6.32,8.14,4.08C8.16,1.85,6.36,0.02,4.13,0
				C1.89-0.02,0.06,1.78,0.04,4.02c0,0.01,0,0.02,0,0.03C0.04,6.28,1.83,8.09,4.06,8.1z"/>
		</g>
		<path id="Path_739" fill="#FFFFFF" d="M199.74,219.02c0-3.09,1.42-4.92,4.14-4.92c2.5,0,3.7,1.76,3.7,4.92v11.52h6.76v-13.89
			c0-5.88-3.33-8.72-7.99-8.72c-2.69-0.04-5.2,1.34-6.62,3.63v-2.96h-6.52v21.95h6.52L199.74,219.02z"/>
	</g>
</g>
</svg>
