<?xml version="1.0" encoding="utf-8"?>
<!-- Generator: Adobe Illustrator 25.0.1, SVG Export Plug-In . SVG Version: 6.00 Build 0)  -->
<svg version="1.2" baseProfile="tiny" id="Layer_1" xmlns="http://www.w3.org/2000/svg" xmlns:xlink="http://www.w3.org/1999/xlink"
	 x="0px" y="0px" viewBox="0 0 48.85 48.85" overflow="visible" xml:space="preserve">
<g>
	<linearGradient id="Path_734_1_" gradientUnits="userSpaceOnUse" x1="24.423" y1="0" x2="24.423" y2="48.846">
		<stop  offset="0" style="stop-color:#583EDE"/>
		<stop  offset="0.207" style="stop-color:#A744C6"/>
		<stop  offset="0.433" style="stop-color:#DF2699"/>
		<stop  offset="0.645" style="stop-color:#FA6152"/>
		<stop  offset="0.842" style="stop-color:#FA7853"/>
		<stop  offset="1" style="stop-color:#FAC351"/>
	</linearGradient>
	<path id="Path_734" fill="url(#Path_734_1_)" d="M24.42,0c13.49,0,24.42,10.93,24.42,24.42S37.91,48.85,24.42,48.85
		S0,37.91,0,24.42c0,0,0,0,0,0C0,10.93,10.93,0,24.42,0z"/>
	<g>
		<g id="Instagram" transform="translate(13.852 13.852)">
			<path id="Path_3" fill="#FFFFFF" d="M10.94,1.94c1.46-0.05,2.92-0.01,4.37,0.12c0.71-0.01,1.41,0.12,2.07,0.37
				c0.91,0.43,1.64,1.16,2.07,2.07c0.25,0.66,0.37,1.36,0.36,2.07c0,1.09,0.12,1.46,0.12,4.37c0.05,1.46,0.01,2.92-0.12,4.37
				c0.01,0.71-0.12,1.41-0.36,2.07c-0.42,0.91-1.16,1.64-2.07,2.07c-0.66,0.25-1.36,0.37-2.07,0.36c-1.09,0-1.46,0.12-4.37,0.12
				c-1.46,0.05-2.92,0.01-4.37-0.12c-0.7,0.01-1.4-0.12-2.06-0.37c-0.91-0.42-1.64-1.15-2.07-2.07c-0.25-0.66-0.37-1.36-0.37-2.07
				c0-1.09-0.12-1.46-0.12-4.37C1.89,9.48,1.93,8.02,2.07,6.56c-0.01-0.7,0.12-1.4,0.37-2.06c0.21-0.45,0.5-0.86,0.85-1.21
				C3.57,2.86,4,2.55,4.5,2.43c0.66-0.25,1.36-0.37,2.07-0.37C8.02,1.93,9.48,1.89,10.94,1.94 M10.94,0c-1.5-0.05-3-0.01-4.5,0.12
				c-0.91,0-1.82,0.16-2.67,0.49c-0.74,0.24-1.4,0.66-1.94,1.21C1.27,2.36,0.85,3.03,0.61,3.77C0.23,4.6,0.06,5.52,0.12,6.44
				c-0.13,1.49-0.18,3-0.12,4.5c-0.05,1.5-0.01,3,0.12,4.5c0,0.91,0.16,1.81,0.49,2.66c0.24,0.74,0.66,1.4,1.21,1.94
				c0.54,0.56,1.21,0.97,1.94,1.22c0.85,0.32,1.76,0.49,2.67,0.49c1.5,0.13,3,0.18,4.5,0.12c1.5,0.05,3,0.01,4.5-0.12
				c0.91,0,1.82-0.16,2.67-0.49c1.48-0.51,2.64-1.68,3.15-3.16c0.32-0.85,0.49-1.76,0.49-2.67c0-1.22,0.12-1.58,0.12-4.5
				c0.05-1.5,0.01-3-0.12-4.5c0-0.91-0.16-1.82-0.49-2.67c-0.24-0.74-0.66-1.4-1.22-1.94c-0.54-0.55-1.21-0.97-1.95-1.2
				c-0.85-0.32-1.76-0.49-2.67-0.49C13.94-0.01,12.44-0.05,10.94,0 M10.94,5.35C7.9,5.3,5.4,7.72,5.35,10.76c0,0.06,0,0.12,0,0.18
				c0,3.09,2.5,5.59,5.59,5.59s5.59-2.5,5.59-5.59S14.02,5.35,10.94,5.35 M10.94,14.58c-1.98,0.04-3.61-1.54-3.64-3.51
				c0-0.04,0-0.09,0-0.13C7.25,8.96,8.83,7.33,10.8,7.29c0.04,0,0.09,0,0.13,0c1.98-0.04,3.61,1.54,3.64,3.51c0,0.04,0,0.09,0,0.13
				c0.04,1.98-1.54,3.61-3.51,3.65C11.02,14.58,10.98,14.58,10.94,14.58 M16.77,3.77c-0.74,0-1.34,0.59-1.34,1.33
				c0,0.74,0.59,1.34,1.33,1.34s1.34-0.59,1.34-1.33c0,0,0-0.01,0-0.01C18.09,4.36,17.5,3.77,16.77,3.77"/>
		</g>
	</g>
</g>
</svg>
