<?xml version="1.0" encoding="utf-8"?>
<!-- Generator: Adobe Illustrator 25.0.1, SVG Export Plug-In . SVG Version: 6.00 Build 0)  -->
<svg version="1.2" baseProfile="tiny" id="Layer_1" xmlns="http://www.w3.org/2000/svg" xmlns:xlink="http://www.w3.org/1999/xlink"
	 x="0px" y="0px" viewBox="0 0 121.62 140.68" overflow="visible" xml:space="preserve">
<path id="Path_794" fill="#0063B0" d="M121.62,4.55v131.53c0,2.52-2.03,4.57-4.55,4.6H12.93c-2.54,0-4.6-2.06-4.6-4.6v-20.1H4.69
	c-2.51,0.07-4.61-1.9-4.68-4.42s1.9-4.61,4.42-4.68c0.09,0,0.18,0,0.27,0h3.65v-18.3H4.69c-2.53,0-4.57-2.05-4.57-4.57
	s2.05-4.57,4.57-4.57h3.65V61.19H4.69c-2.53,0-4.57-2.05-4.57-4.57c0-2.53,2.05-4.57,4.57-4.57h3.65V33.8H4.69
	c-2.53,0-4.57-2.05-4.57-4.57s2.05-4.57,4.57-4.57h3.65V4.55c0.02-2.52,2.08-4.56,4.6-4.55h104.13
	C119.57,0.02,121.6,2.04,121.62,4.55z M17.48,24.65h3.65c2.53,0,4.58,2.05,4.58,4.58s-2.05,4.58-4.58,4.58h-3.65v18.25h3.65
	c2.53,0,4.57,2.05,4.57,4.57c0,2.53-2.05,4.57-4.57,4.57l0,0h-3.65v18.25h3.65c2.53,0,4.57,2.05,4.57,4.57s-2.05,4.57-4.57,4.57
	h-3.65v18.29h3.65c2.51-0.07,4.61,1.9,4.68,4.42c0.07,2.51-1.9,4.61-4.42,4.68c-0.09,0-0.18,0-0.27,0h-3.65v15.55h94.99V9.15H17.48
	V24.65L17.48,24.65z M66.27,65.79h0.17c3.49-0.04,6.3-2.87,6.31-6.35c0-1.62-0.59-3.18-1.68-4.38l-0.21-0.17
	c-1.2-1.19-2.82-1.86-4.51-1.85c-1.69-0.02-3.32,0.65-4.51,1.85H61.8c-1.18,1.22-1.85,2.85-1.85,4.55
	c-0.01,1.69,0.65,3.31,1.85,4.51h0.04C63.01,65.12,64.6,65.79,66.27,65.79z M79.41,67.76c1.24,0.71,2.38,1.58,3.39,2.58l0.26,0.3
	c2.75,2.86,4.29,6.68,4.29,10.65V92.2c0,2.52-2.03,4.57-4.55,4.6H49.9c-2.52-0.01-4.56-2.06-4.55-4.58c0-0.01,0-0.01,0-0.02V81.29
	c-0.01-4.1,1.63-8.03,4.55-10.91v-0.04c1.02-0.99,2.16-1.84,3.39-2.53c-1.62-2.49-2.49-5.4-2.49-8.37
	c0.01-4.12,1.64-8.07,4.55-10.99l0,0c6.07-6.07,15.91-6.07,21.99,0l0.26,0.3c2.75,2.88,4.27,6.71,4.25,10.69
	C81.88,62.39,81.02,65.29,79.41,67.76L79.41,67.76z M71.85,74.93H60.81c-1.67,0-3.28,0.66-4.47,1.85l-0.04,0.04
	c-1.18,1.19-1.85,2.79-1.85,4.47v6.36H78.2v-6.36c0.02-1.59-0.58-3.13-1.67-4.29l-0.17-0.17C75.17,75.62,73.54,74.94,71.85,74.93
	L71.85,74.93z"/>
</svg>
