<?xml version="1.0" encoding="utf-8"?>
<!-- Generator: Adobe Illustrator 25.0.1, SVG Export Plug-In . SVG Version: 6.00 Build 0)  -->
<svg version="1.2" baseProfile="tiny" id="Layer_1" xmlns="http://www.w3.org/2000/svg" xmlns:xlink="http://www.w3.org/1999/xlink"
	 x="0px" y="0px" viewBox="0 0 469.29 123.92" overflow="visible" xml:space="preserve">
<g>
	<g id="Path_770">
		<polygon fill="#E50019" points="353.14,120.82 7.43,120.82 7.43,118.82 352.3,118.82 469.29,0 470.71,1.4 		"/>
	</g>
	<g id="Ellipse_30" transform="translate(0 115.921)">
		<g>
			<circle fill="#FFFFFF" cx="4" cy="4" r="4"/>
		</g>
		<g>
			<path fill="#E50019" d="M4,8C1.79,8,0,6.21,0,4s1.79-4,4-4s4,1.79,4,4S6.21,8,4,8z M4,2C2.9,2,2,2.9,2,4s0.9,2,2,2s2-0.9,2-2
				S5.1,2,4,2z"/>
		</g>
	</g>
	<g id="Group_2034" transform="translate(-471 -792.079)">
		<g id="Path_792">
			<path fill="#E50019" d="M840,912.68h101.04V810.44L840,912.68z"/>
		</g>
		<g id="data_image_svg_xml_-_2020-10-25T193343.729" transform="translate(909.012 892) rotate(-45)">
			<g id="Group_2035">
				<g id="Group_2034-2">
					<g id="Path_793">
						<path fill-rule="evenodd" fill="#FFFFFF" d="M0,8.48C0,3.8,3.8,0,8.48,0c4.68,0,8.48,3.8,8.48,8.48c0,4.68-3.8,8.48-8.48,8.48
							C3.8,16.95,0,13.16,0,8.48z M4.62,14.04l3.86-2.51l3.87,2.51l-1.2-4.44l3.59-2.9l-4.6-0.24l-1.65-4.3l-1.64,4.3L2.23,6.7
							l3.58,2.89L4.62,14.04z"/>
					</g>
				</g>
			</g>
		</g>
	</g>
</g>
</svg>
