<?xml version="1.0" encoding="utf-8"?>
<!-- Generator: Adobe Illustrator 25.0.1, SVG Export Plug-In . SVG Version: 6.00 Build 0)  -->
<svg version="1.2" baseProfile="tiny" id="Layer_1" xmlns="http://www.w3.org/2000/svg" xmlns:xlink="http://www.w3.org/1999/xlink"
	 x="0px" y="0px" viewBox="0 0 358.01 84.54" overflow="visible" xml:space="preserve">
<g>
	<g id="Group_10" transform="translate(342.667 11.825)">
		<g id="Group_9">
			<path id="Path_37" fill-rule="evenodd" fill="#FFFFFF" d="M7.48,15.3c-3.77-0.15-6.74-3.28-6.68-7.06c0-4.32,3.14-7.45,6.68-7.45
				c3.94,0.03,7.11,3.24,7.08,7.18c0,0.09,0,0.18-0.01,0.27c0.01,3.89-3.12,7.05-7.01,7.06C7.52,15.3,7.5,15.3,7.48,15.3z
				 M7.48,16.08c4.4-0.06,7.92-3.67,7.87-8.07c0-0.06,0-0.11,0-0.17C15.32,3.51,11.81,0.01,7.48,0C3.54,0,0,3.53,0,8.24
				C-0.02,12.44,3.28,15.9,7.48,16.08L7.48,16.08z M3.93,3.53h0.39c0.4,0,0.79,0,0.79,0.39v7.45c0,0.4,0,0.4-0.79,0.4H3.93v0.78
				h3.54v-0.78H7.08c-0.79,0-0.4-0.78-0.4-1.18V8.24h0.4c1.17,0,1.57,0.79,1.96,1.96c0.4,0.79,0.4,1.57,0.79,1.96
				c0.48,0.27,1.03,0.41,1.58,0.39h0.78v-0.78h-0.78c-0.42-0.43-0.69-0.98-0.79-1.57c-0.43-0.95-1.11-1.76-1.97-2.35
				c1.27-0.08,2.27-1.09,2.36-2.36c-0.02-0.73-0.3-1.42-0.79-1.96C9.35,3.2,8.41,3.07,7.48,3.13H3.93V3.53L3.93,3.53z M6.69,7.45
				V4.71c0-1.17,0-1.17,0.79-1.17c0.55-0.06,1.11,0.08,1.57,0.39c0.4,0.39,0.4,0.79,0.4,1.57C9.44,7.45,8.26,7.45,6.69,7.45
				L6.69,7.45z"/>
		</g>
	</g>
	<g id="Group_11" transform="translate(0 0)">
		<path id="Path_38" fill="#FFFFFF" d="M52.38,84.54H35.58L0,0h16.86l27.1,70.45L80.81,0h16.08L52.38,84.54z"/>
	</g>
	<g id="Group_12" transform="translate(84.291 0)">
		<path id="Path_39" fill="#FFFFFF" d="M37.89,45.08H11.31V12.17h26.57v11.25l10.29-2.23V8.23c0-4.54-3.68-8.23-8.23-8.23l0,0H8.23
			C3.69,0,0,3.68,0.01,8.23v40.8c0,4.54,3.68,8.23,8.23,8.23h31.71c4.55,0,8.23-3.69,8.23-8.23V34.65L37.89,32V45.08z"/>
	</g>
	<g id="Group_13" transform="translate(35.609 80.748)">
		<rect id="Rectangle_2" x="0.01" y="0" fill="#FFFFFF" width="314.73" height="3.8"/>
	</g>
	<g id="Group_14" transform="translate(134.992 23.675)">
		<path id="Path_40" fill="#FFFFFF" d="M8.77,28.8L0.01,1.46h6.77l3.33,11.56c0.93,3.28,1.78,6.37,2.43,9.78h0.12
			c0.69-3.29,1.55-6.53,2.48-9.65l3.49-11.69h6.57L15.99,28.8H8.77z"/>
		<path id="Path_41" fill="#FFFFFF" d="M33.18,3.44c0.01,1.7-1.36,3.08-3.05,3.09c-0.09,0-0.18,0-0.27-0.01
			c-1.7-0.13-2.97-1.62-2.84-3.32c0.13-1.7,1.62-2.97,3.32-2.84C31.94,0.49,33.18,1.83,33.18,3.44z M26.82,28.8V8.96h6.16V28.8
			H26.82z"/>
		<path id="Path_42" fill="#FFFFFF" d="M42.67,20.84c0.16,2.56,2.71,3.77,5.6,3.77c1.86,0.03,3.71-0.26,5.48-0.85l0.81,4.18
			c-2.29,0.88-4.73,1.31-7.18,1.26c-6.73,0-10.58-3.89-10.58-10.1c0-5.03,3.12-10.59,10.02-10.59c6.4,0,8.84,4.99,8.84,9.9
			c0,0.82-0.07,1.63-0.2,2.43L42.67,20.84z M48.23,0.32l4.02,6.17h-4.02L46.2,2.96h-0.08l-2.07,3.53h-4.02l4.05-6.17H48.23z
			 M49.93,16.63c0-1.5-0.65-4.02-3.49-4.02c-2.6,0-3.65,2.39-3.81,4.02H49.93z M48.96,34.88c0.04,1.55-1.17,2.83-2.72,2.88
			c-0.03,0-0.05,0-0.08,0c-1.58-0.04-2.83-1.35-2.79-2.93c0.04-1.54,1.29-2.78,2.83-2.79c1.51-0.02,2.74,1.19,2.76,2.7
			C48.96,34.79,48.96,34.83,48.96,34.88L48.96,34.88z"/>
		<path id="Path_43" fill="#FFFFFF" d="M66.24,3.61v5.35h4.42v4.54h-4.42v7.18c0,2.39,0.61,3.49,2.44,3.49
			c0.61,0.02,1.23-0.04,1.82-0.17l0.04,4.67c-1.29,0.38-2.63,0.56-3.97,0.53c-1.72,0.06-3.39-0.55-4.67-1.7
			c-1.14-1.18-1.71-3.08-1.71-5.88v-8.11h-2.64V8.96h2.64V5.28L66.24,3.61z"/>
		<path id="Path_44" fill="#FFFFFF" d="M102.66,28.07c-2.23,0.85-4.6,1.25-6.98,1.18c-9.45,0-14.32-5.92-14.32-13.71
			c0-9.33,6.65-14.48,14.92-14.48c2.31-0.1,4.61,0.31,6.74,1.21l-1.3,4.87c-1.64-0.69-3.41-1.04-5.2-1.02
			c-4.87,0-8.68,2.96-8.68,9.05c0,5.47,3.24,8.92,8.72,8.92c1.77,0.02,3.53-0.29,5.19-0.89L102.66,28.07z"/>
		<path id="Path_45" fill="#FFFFFF" d="M106.43,0h6.16v11.36h0.08c0.63-0.88,1.47-1.59,2.43-2.07c0.99-0.51,2.09-0.77,3.2-0.77
			c3.94,0,6.94,2.72,6.94,8.72V28.8h-6.16V17.89c0-2.6-0.9-4.38-3.21-4.38c-1.39,0-2.62,0.88-3.08,2.19
			c-0.16,0.43-0.23,0.88-0.21,1.34V28.8h-6.16L106.43,0z"/>
		<path id="Path_46" fill="#FFFFFF" d="M148.9,22.43c0,2.6,0.08,4.7,0.16,6.37h-5.36l-0.29-2.8h-0.12c-1.35,2.1-3.71,3.34-6.21,3.25
			c-4.05,0-6.98-2.52-6.98-8.64V8.96h6.16v10.67c0,2.88,0.94,4.62,3.13,4.62c1.38,0,2.61-0.85,3.09-2.15
			c0.17-0.42,0.25-0.88,0.24-1.34V8.96h6.17L148.9,22.43z"/>
		<path id="Path_47" fill="#FFFFFF" d="M158.46,8.96l2.96,9.78c0.33,1.14,0.73,2.64,0.97,3.69h0.16c0.25-1.1,0.57-2.56,0.85-3.73
			l2.47-9.74h6.57l-4.62,13.06c-2.84,7.91-4.74,11.04-6.98,13.02c-1.65,1.49-3.72,2.44-5.92,2.72l-1.34-5.19
			c0.94-0.22,1.84-0.57,2.67-1.05c1.05-0.6,1.93-1.45,2.56-2.48c0.18-0.26,0.3-0.57,0.32-0.89c-0.01-0.35-0.09-0.7-0.24-1.02
			l-7.3-18.17L158.46,8.96z"/>
		<path id="Path_48" fill="#FFFFFF" d="M179.19,20.84c0.16,2.56,2.72,3.77,5.6,3.77c1.86,0.03,3.71-0.26,5.48-0.85l0.81,4.18
			c-2.29,0.89-4.73,1.31-7.18,1.26c-6.73,0-10.59-3.89-10.59-10.1c0-5.03,3.12-10.59,10.02-10.59c6.41,0,8.84,4.99,8.84,9.9
			c0,0.82-0.07,1.63-0.21,2.43L179.19,20.84z M185.19,0.32l4.02,6.17h-4.01l-2.03-3.53h-0.08l-2.07,3.53H177l4.06-6.17H185.19z
			 M186.45,16.63c0-1.5-0.65-4.02-3.49-4.02c-2.6,0-3.65,2.39-3.81,4.02H186.45z"/>
		<path id="Path_49" fill="#FFFFFF" d="M195.86,15.29c0-2.47-0.08-4.54-0.16-6.33h5.35l0.28,2.76h0.12c1.35-2.05,3.67-3.26,6.12-3.2
			c4.06,0,7.1,2.72,7.1,8.56V28.8h-6.16V17.8c0-2.56-0.89-4.3-3.12-4.3c-1.44,0.02-2.71,0.95-3.16,2.32
			c-0.16,0.5-0.23,1.02-0.21,1.54V28.8h-6.16L195.86,15.29z"/>
	</g>
	<g id="Group_15" transform="translate(68.715 64.061)">
		<path id="Path_50" fill="#FFFFFF" d="M7.83,10.57c-0.86,0.36-1.8,0.52-2.73,0.49c-2.92,0-5.1-1.84-5.1-5.25
			c-0.17-2.83,2-5.27,4.83-5.43c0.19-0.01,0.38-0.01,0.57,0C6.25,0.34,7.09,0.5,7.86,0.84L7.52,1.93C6.87,1.63,6.16,1.48,5.45,1.5
			c-2.42,0-4.04,1.55-4.04,4.27c0,2.55,1.46,4.16,3.96,4.16c0.75,0.01,1.5-0.13,2.19-0.43L7.83,10.57z"/>
		<path id="Path_51" fill="#FFFFFF" d="M12.54,0h1.35v4.65h0.03c0.23-0.4,0.56-0.74,0.97-0.97c0.42-0.24,0.9-0.37,1.38-0.37
			c1,0,2.59,0.61,2.59,3.17v4.42h-1.35V6.63c0-1.2-0.45-2.2-1.72-2.2c-0.83,0.02-1.55,0.55-1.81,1.34
			c-0.07,0.21-0.11,0.43-0.09,0.64v4.48h-1.35V0z"/>
		<path id="Path_52" fill="#FFFFFF" d="M30.86,7.12c0.17,2-1.31,3.76-3.31,3.93c-0.13,0.01-0.26,0.01-0.39,0.01
			c-1.95,0.02-3.56-1.55-3.58-3.5c0-0.11,0-0.21,0.01-0.32c-0.16-2,1.32-3.75,3.32-3.92c0.12-0.01,0.24-0.01,0.36-0.01
			c1.94-0.04,3.55,1.5,3.59,3.44C30.87,6.87,30.87,6.99,30.86,7.12z M24.98,7.19c0,1.62,0.92,2.85,2.24,2.85
			c1.29,0,2.26-1.21,2.26-2.88c0-1.26-0.63-2.84-2.22-2.84S24.98,5.79,24.98,7.19L24.98,7.19z"/>
		<path id="Path_53" fill="#FFFFFF" d="M49.21,10.57c-0.86,0.36-1.8,0.52-2.73,0.49c-2.92,0-5.09-1.84-5.09-5.25
			c-0.17-2.83,2-5.26,4.83-5.43c0.19-0.01,0.38-0.01,0.57,0c0.84-0.03,1.68,0.12,2.45,0.46l-0.33,1.09
			c-0.65-0.3-1.36-0.45-2.07-0.43c-2.42,0-4.04,1.55-4.04,4.27c0,2.55,1.46,4.16,3.96,4.16c0.76,0.01,1.51-0.13,2.2-0.43
			L49.21,10.57z"/>
		<path id="Path_54" fill="#FFFFFF" d="M60.48,7.12c0.17,2-1.31,3.76-3.31,3.93c-0.13,0.01-0.26,0.02-0.39,0.01
			c-1.95,0.02-3.55-1.55-3.57-3.51c0-0.1,0-0.21,0.01-0.31c-0.16-2,1.32-3.75,3.32-3.92c0.12-0.01,0.24-0.01,0.36-0.01
			c1.94-0.04,3.55,1.5,3.59,3.44C60.49,6.87,60.49,6.99,60.48,7.12z M54.6,7.19c0,1.62,0.92,2.85,2.24,2.85
			c1.29,0,2.26-1.21,2.26-2.88c0-1.26-0.63-2.84-2.23-2.84C55.29,4.32,54.6,5.79,54.6,7.19z M57.3,0.26l1.47,2.2h-1.03l-0.91-1.44
			h-0.03l-0.88,1.44h-1.01l1.45-2.2H57.3z"/>
		<path id="Path_55" fill="#FFFFFF" d="M65.25,5.47c0-0.78-0.01-1.4-0.06-2.01h1.19l0.08,1.23h0.03c0.5-0.88,1.45-1.41,2.46-1.38
			c1.03,0,2.63,0.61,2.63,3.17v4.42h-1.35V6.61c0-1.2-0.45-2.2-1.72-2.2c-0.84,0.02-1.56,0.58-1.81,1.38
			c-0.07,0.2-0.1,0.42-0.09,0.63v4.47h-1.35L65.25,5.47z"/>
		<path id="Path_56" fill="#FFFFFF" d="M83.19,9.8c0,1.72-0.35,2.75-1.06,3.41c-0.77,0.61-1.73,0.93-2.71,0.89
			c-0.86,0.02-1.72-0.19-2.47-0.61l0.34-1.05c0.65,0.4,1.41,0.61,2.18,0.6c1.38,0,2.4-0.72,2.4-2.61V9.62h-0.03
			c-0.5,0.81-1.41,1.29-2.36,1.24c-1.84,0-3.16-1.56-3.16-3.62c0-2.52,1.64-3.93,3.36-3.93c0.95-0.05,1.85,0.44,2.31,1.27h0.03
			l0.04-1.12h1.2C83.22,3.99,83.2,4.6,83.2,5.49L83.19,9.8z M81.85,6.39c0.01-0.2-0.02-0.41-0.08-0.6c-0.22-0.86-1-1.45-1.89-1.44
			c-1.29,0-2.21,1.09-2.21,2.81c0,1.46,0.75,2.67,2.2,2.67c0.86,0,1.62-0.56,1.87-1.38c0.07-0.23,0.11-0.48,0.11-0.72V6.39z"/>
		<path id="Path_57" fill="#FFFFFF" d="M94.86,10.9V0.55h1.47l3.3,5.23c0.69,1.08,1.3,2.2,1.84,3.36l0.05-0.02
			c-0.12-1.38-0.15-2.64-0.15-4.25V0.55h1.26V10.9h-1.35l-3.29-5.25c-0.71-1.11-1.35-2.26-1.92-3.46l-0.04,0.02
			c0.08,1.3,0.09,2.55,0.09,4.27v4.42H94.86z"/>
		<path id="Path_58" fill="#FFFFFF" d="M114.34,9.8c0,1.72-0.35,2.75-1.06,3.41c-0.77,0.61-1.73,0.93-2.71,0.89
			c-0.86,0.02-1.72-0.19-2.47-0.61l0.34-1.05c0.65,0.4,1.41,0.61,2.18,0.6c1.38,0,2.39-0.72,2.39-2.61V9.62h-0.03
			c-0.5,0.81-1.41,1.29-2.36,1.24c-1.84,0-3.16-1.56-3.16-3.62c0-2.52,1.64-3.93,3.36-3.93c0.95-0.06,1.85,0.44,2.32,1.27h0.03
			l0.05-1.12h1.2c-0.05,0.52-0.06,1.14-0.06,2.02L114.34,9.8z M112.99,6.39c0.01-0.2-0.02-0.41-0.08-0.6
			c-0.22-0.86-1-1.45-1.89-1.44c-1.29,0-2.21,1.09-2.21,2.81c0,1.46,0.75,2.67,2.2,2.67c0.86,0.01,1.62-0.56,1.87-1.38
			c0.08-0.23,0.11-0.48,0.11-0.72L112.99,6.39z"/>
		<path id="Path_59" fill="#FFFFFF" d="M119.64,0h1.35v4.65h0.03c0.23-0.4,0.56-0.74,0.96-0.97c0.42-0.24,0.9-0.37,1.38-0.37
			c1,0,2.59,0.61,2.59,3.17v4.42h-1.35V6.63c0-1.2-0.45-2.2-1.72-2.2c-0.82,0.02-1.55,0.55-1.81,1.34c-0.07,0.21-0.1,0.43-0.09,0.64
			v4.48h-1.35V0z"/>
		<path id="Path_60" fill="#FFFFFF" d="M131.98,7.42c-0.12,1.31,0.85,2.46,2.16,2.58c0.13,0.01,0.26,0.01,0.39,0
			c0.7,0.02,1.41-0.11,2.05-0.39l0.25,0.97c-0.79,0.33-1.63,0.49-2.49,0.47c-1.91,0.11-3.55-1.34-3.66-3.25
			c-0.01-0.17-0.01-0.34,0.01-0.51c0-2.24,1.32-3.99,3.48-3.99c2.44,0,3.07,2.12,3.07,3.49c0,0.21-0.01,0.42-0.05,0.63L131.98,7.42z
			 M135.94,6.46c0.14-1.05-0.59-2.02-1.64-2.16c-0.08-0.01-0.16-0.02-0.23-0.02c-1.15,0.07-2.06,1.02-2.07,2.18H135.94z M134.4,0.26
			l1.48,2.2h-1.03l-0.89-1.44h-0.03l-0.89,1.44h-1.01l1.44-2.2H134.4z M134.69,12.92c0.02,0.42-0.31,0.77-0.72,0.78
			c-0.01,0-0.03,0-0.04,0c-0.42,0-0.76-0.34-0.77-0.76c0-0.01,0-0.02,0-0.03c0-0.44,0.35-0.79,0.78-0.8
			c0.42,0.01,0.76,0.36,0.75,0.78C134.69,12.9,134.69,12.91,134.69,12.92L134.69,12.92z"/>
		<path id="Path_61" fill="#FFFFFF" d="M149.69,1.68h-3.15V0.55h7.66v1.13h-3.16v9.22h-1.35V1.68z"/>
		<path id="Path_62" fill="#FFFFFF" d="M158.27,0h1.35v4.65h0.03c0.23-0.4,0.56-0.74,0.97-0.97c0.42-0.24,0.9-0.37,1.38-0.37
			c1,0,2.59,0.61,2.59,3.17v4.42h-1.35V6.63c0-1.2-0.44-2.2-1.72-2.2c-0.82,0.02-1.55,0.55-1.81,1.34c-0.07,0.21-0.1,0.43-0.09,0.64
			v4.48h-1.35V0z"/>
		<path id="Path_63" fill="#FFFFFF" d="M170.61,7.42c-0.12,1.31,0.84,2.46,2.15,2.58c0.13,0.01,0.26,0.01,0.4,0
			c0.71,0.02,1.41-0.11,2.06-0.39l0.24,0.97c-0.79,0.33-1.63,0.49-2.48,0.47c-1.91,0.11-3.55-1.34-3.66-3.25
			c-0.01-0.17-0.01-0.34,0.01-0.51c0-2.24,1.32-3.99,3.48-3.99c2.44,0,3.07,2.12,3.07,3.49c0.01,0.21-0.01,0.42-0.05,0.63
			L170.61,7.42z M174.57,6.46c0.15-1.05-0.58-2.01-1.63-2.16c-0.08-0.01-0.16-0.02-0.24-0.02c-1.15,0.07-2.06,1.02-2.08,2.18H174.57
			z M173.22,0.26l1.47,2.2h-1.03l-0.89-1.44h-0.03l-0.89,1.44h-1.01l1.44-2.2H173.22z"/>
		<path id="Path_64" fill="#FFFFFF" d="M180.62,5.47c0-0.78-0.03-1.4-0.06-2.01h1.18l0.06,1.21h0.04c0.46-0.87,1.37-1.4,2.35-1.37
			c0.94,0,1.79,0.59,2.09,1.49h0.03c0.21-0.38,0.49-0.71,0.84-0.97c0.46-0.36,1.04-0.55,1.63-0.52c0.99,0,2.46,0.65,2.46,3.23v4.36
			h-1.32V6.7c0-1.44-0.53-2.29-1.61-2.29c-0.74,0.03-1.38,0.51-1.61,1.21c-0.07,0.22-0.1,0.44-0.11,0.67v4.59h-1.32V6.44
			c0-1.18-0.52-2.03-1.55-2.03c-0.79,0.05-1.46,0.59-1.68,1.35c-0.07,0.21-0.11,0.44-0.1,0.66v4.47h-1.32L180.62,5.47z"/>
		<path id="Path_65" fill="#FFFFFF" d="M204.58,10.9l-3.39-10.35h1.46l1.61,5.1c0.43,1.39,0.81,2.65,1.1,3.87h0.03
			c0.29-1.2,0.71-2.5,1.18-3.85l1.75-5.11h1.43l-3.7,10.35L204.58,10.9z"/>
		<path id="Path_66" fill="#FFFFFF" d="M221.03,1.79c0.18,0.34,0.28,0.72,0.28,1.11c0.02,0.7-0.54,1.28-1.24,1.3
			c-0.02,0-0.04,0-0.06,0h-0.17v4.67c0,0.77,0.01,1.44,0.06,2.03h-1.2l-0.08-1.21h-0.03c-0.51,0.87-1.45,1.4-2.46,1.38
			c-1.16,0-2.56-0.66-2.56-3.25V3.46h1.35v4.11c0,1.41,0.44,2.36,1.66,2.36c0.79-0.01,1.49-0.51,1.78-1.24
			c0.08-0.22,0.13-0.46,0.12-0.69V3.46h1.08c0.52,0,0.72-0.22,0.72-0.61c-0.01-0.31-0.11-0.61-0.28-0.87L221.03,1.79z"/>
		<path id="Path_67" fill="#FFFFFF" d="M232.27,2.22c0.17,0.35,0.26,0.73,0.26,1.12c0.06,0.68-0.45,1.28-1.12,1.33
			c-0.1,0.01-0.2,0-0.3-0.01c0.52,0.71,0.79,1.57,0.77,2.45c0.17,2-1.32,3.76-3.32,3.93c-0.13,0.01-0.26,0.01-0.38,0.01
			c-1.95,0.02-3.55-1.55-3.57-3.5c0-0.11,0-0.21,0.01-0.32c-0.16-2,1.32-3.75,3.32-3.92c0.12-0.01,0.24-0.01,0.36-0.01
			c0.43,0,0.86,0.07,1.27,0.2c0.41,0.2,0.85,0.33,1.3,0.4c0.31,0.03,0.6-0.19,0.63-0.51c0-0.04,0-0.07,0-0.11
			c-0.01-0.31-0.1-0.62-0.26-0.89L232.27,2.22z M225.99,7.19c0,1.62,0.92,2.85,2.24,2.85c1.29,0,2.26-1.21,2.27-2.9
			c0-1.26-0.63-2.84-2.24-2.82C226.68,4.32,225.99,5.79,225.99,7.19L225.99,7.19z M229.01,12.92c0.01,0.42-0.32,0.77-0.74,0.78
			c-0.01,0-0.02,0-0.02,0c-0.43,0-0.77-0.35-0.76-0.78c0,0,0,0,0,0c-0.01-0.43,0.34-0.79,0.77-0.8c0,0,0,0,0,0
			c0.42,0,0.76,0.35,0.76,0.77C229.02,12.9,229.02,12.91,229.01,12.92L229.01,12.92z"/>
		<path id="Path_68" fill="#FFFFFF" d="M238.34,1.68v1.79h1.93v1.02h-1.93V8.5c0,0.92,0.26,1.44,1.01,1.44
			c0.26,0.01,0.53-0.02,0.78-0.1l0.06,1.03c-0.39,0.13-0.79,0.19-1.2,0.18c-0.54,0.02-1.07-0.18-1.46-0.56
			c-0.4-0.57-0.59-1.26-0.52-1.95V4.49h-1.15V3.46h1.15V2.08L238.34,1.68z"/>
		<path id="Path_69" fill="#FFFFFF" d="M252.56,1.68h-3.15V0.55h7.66v1.13h-3.16v9.22h-1.35L252.56,1.68z"/>
		<path id="Path_70" fill="#FFFFFF" d="M260.56,5.78c0-0.88-0.02-1.62-0.06-2.32h1.18l0.06,1.47h0.05c0.27-0.93,1.1-1.59,2.07-1.63
			c0.12,0,0.25,0.01,0.37,0.03v1.27c-0.15-0.03-0.31-0.04-0.46-0.03c-0.95,0.03-1.73,0.77-1.81,1.72c-0.03,0.21-0.05,0.42-0.04,0.63
			v3.96h-1.35L260.56,5.78z"/>
		<path id="Path_71" fill="#FFFFFF" d="M275.22,7.12c0.17,2-1.32,3.76-3.32,3.93c-0.13,0.01-0.26,0.01-0.38,0.01
			c-1.96,0.02-3.55-1.55-3.57-3.51c0-0.1,0-0.21,0.01-0.31c-0.17-2,1.32-3.76,3.32-3.93c0.12-0.01,0.24-0.01,0.37-0.01
			c1.94-0.04,3.55,1.5,3.59,3.44C275.23,6.86,275.23,6.99,275.22,7.12z M269.34,7.19c0,1.62,0.92,2.85,2.24,2.85
			c1.29,0,2.26-1.21,2.26-2.88c0-1.26-0.63-2.85-2.22-2.85S269.34,5.78,269.34,7.19z M272.02,0.26l1.47,2.2h-1.03l-0.89-1.44h-0.03
			l-0.89,1.44h-1.02l1.44-2.2H272.02z M272.33,12.92c0.02,0.42-0.31,0.77-0.72,0.78c-0.01,0-0.03,0-0.04,0
			c-0.42,0-0.77-0.34-0.77-0.76c0-0.01,0-0.01,0-0.02c0-0.44,0.35-0.79,0.79-0.8c0.42,0.01,0.76,0.35,0.75,0.78
			C272.33,12.9,272.33,12.91,272.33,12.92L272.33,12.92z"/>
		<path id="Path_72" fill="#FFFFFF" d="M281.5,1.37c0.01,0.45-0.34,0.82-0.78,0.83c-0.03,0-0.05,0-0.08,0
			c-0.44,0.01-0.81-0.35-0.81-0.79c0-0.01,0-0.03,0-0.04c-0.01-0.45,0.35-0.83,0.8-0.84c0.01,0,0.03,0,0.04,0
			c0.45-0.01,0.82,0.34,0.83,0.79C281.5,1.34,281.5,1.36,281.5,1.37z M280,10.89V3.46h1.35v7.43H280z"/>
	</g>
</g>
</svg>
