<?xml version="1.0" encoding="utf-8"?>
<!-- Generator: Adobe Illustrator 25.0.1, SVG Export Plug-In . SVG Version: 6.00 Build 0)  -->
<svg version="1.2" baseProfile="tiny" id="Layer_1" xmlns="http://www.w3.org/2000/svg" xmlns:xlink="http://www.w3.org/1999/xlink"
	 x="0px" y="0px" viewBox="0 0 68.4 68.24" overflow="visible" xml:space="preserve">
<g>
	<path id="Path_178" fill="#0063B0" d="M64.83,13.65h-7.96v-2.27H58c0.63,0,1.14-0.51,1.14-1.14c0,0,0,0,0,0V9.1h1.14
		c1.88,0,3.41-1.53,3.41-3.41V0h-2.27v5.69c0,0.63-0.51,1.14-1.14,1.14c0,0,0,0,0,0h-1.14V5.69c0-0.63-0.51-1.14-1.13-1.14
		c0,0,0,0,0,0H37.53c-0.63,0-1.14,0.51-1.14,1.14v4.55c0,0.63,0.51,1.14,1.14,1.14h1.14v2.27H3.41C1.53,13.65,0,15.18,0,17.06
		c0,0,0,0,0,0v45.49c0,0.63,0.51,1.14,1.14,1.14h4.55v3.41c0,0.63,0.51,1.14,1.14,1.14H18.2c0.63,0,1.14-0.51,1.14-1.14v-3.41H48.9
		v3.41c0,0.63,0.51,1.14,1.14,1.14h11.37c0.63,0,1.14-0.51,1.14-1.14v-3.41h4.55c0.63,0,1.14-0.51,1.14-1.14V17.06
		C68.24,15.18,66.71,13.65,64.83,13.65C64.83,13.65,64.83,13.65,64.83,13.65L64.83,13.65z M38.67,6.82h18.2V9.1h-18.2V6.82z
		 M54.59,11.37v2.27h-2.27v-2.27H54.59z M50.04,11.37v2.27h-4.55v-2.27H50.04z M43.22,11.37v2.27h-2.27v-2.27H43.22z M17.06,65.97
		h-9.1v-2.27h9.1V65.97z M60.28,65.97h-9.1v-2.27h9.1V65.97z M65.97,61.41H2.27v-4.55h63.69L65.97,61.41z M10.24,48.9H7.96v-2.27
		h2.27V48.9z M10.24,26.16H7.96v-2.28h2.27V26.16z M12.51,54.59V20.47h15.92v34.12L12.51,54.59z M30.71,54.59V20.47h4.55v34.12
		L30.71,54.59z M37.54,54.59V20.47h20.47v34.12L37.54,54.59z M65.97,54.59h-5.69V19.33c0-0.63-0.51-1.14-1.14-1.14l0,0H11.37
		c-0.63,0-1.14,0.51-1.14,1.14l0,0v2.27H6.83c-0.63,0-1.14,0.51-1.14,1.14v4.55c0,0.63,0.51,1.14,1.14,1.14h3.41v15.93H6.83
		c-0.63,0-1.14,0.51-1.14,1.14v4.55c0,0.63,0.51,1.14,1.14,1.14h3.41v3.41H2.28V17.06c0-0.63,0.51-1.14,1.14-1.14h61.42
		c0.63,0,1.14,0.51,1.14,1.14l0,0L65.97,54.59z"/>
	<path id="Path_179" fill="#E50019" d="M25.02,22.74h-9.1c-0.63,0-1.14,0.51-1.14,1.14v9.1c0,0.63,0.51,1.14,1.14,1.14h9.1
		c0.63,0,1.14-0.51,1.14-1.14v-9.1C26.16,23.25,25.65,22.74,25.02,22.74z M23.88,31.84h-6.82v-6.82h6.82L23.88,31.84z"/>
	<path id="Path_180" fill="#E50019" d="M47.53,40.5l7.96-10.24c0.39-0.5,0.3-1.21-0.2-1.6c-0.2-0.16-0.45-0.24-0.7-0.24h-3.68
		l2.38-3.96c0.32-0.54,0.15-1.24-0.38-1.56c-0.18-0.11-0.38-0.16-0.59-0.16h-5.69c-0.41,0-0.79,0.22-0.99,0.59l-5.69,10.24
		c-0.3,0.55-0.1,1.24,0.45,1.55c0.17,0.09,0.36,0.14,0.55,0.14h4.55v4.55c0,0.49,0.31,0.92,0.77,1.08c0.12,0.04,0.24,0.06,0.37,0.06
		C46.98,40.94,47.31,40.78,47.53,40.5L47.53,40.5z M42.88,32.98l4.43-7.96h3l-2.38,3.96c-0.32,0.54-0.14,1.24,0.4,1.56
		c0.17,0.1,0.37,0.16,0.58,0.16h3.36l-4.5,5.78v-2.37c0-0.63-0.51-1.14-1.14-1.14L42.88,32.98z"/>
	<rect id="Rectangle_62" x="14.79" y="36.4" fill="#E50019" width="11.37" height="2.27"/>
	<rect id="Rectangle_63" x="14.79" y="40.94" fill="#E50019" width="4.55" height="2.27"/>
	<rect id="Rectangle_64" x="21.61" y="40.94" fill="#E50019" width="4.55" height="2.27"/>
	<path id="Path_181" fill="#E50019" d="M53.46,50.04h-2.28v2.28h3.41c0.63,0,1.14-0.51,1.14-1.14v-6.82h-2.27V50.04z"/>
	<rect id="Rectangle_65" x="46.63" y="50.04" fill="#E50019" width="2.27" height="2.28"/>
	<rect id="Rectangle_66" x="42.08" y="50.04" fill="#E50019" width="2.28" height="2.28"/>
</g>
</svg>
