<?xml version="1.0" encoding="utf-8"?>
<!-- Generator: Adobe Illustrator 25.0.1, SVG Export Plug-In . SVG Version: 6.00 Build 0)  -->
<svg version="1.2" baseProfile="tiny" id="Layer_1" xmlns="http://www.w3.org/2000/svg" xmlns:xlink="http://www.w3.org/1999/xlink"
	 x="0px" y="0px" viewBox="0 0 64.69 64.7" overflow="visible" xml:space="preserve">
<g>
	<g id="Group_43" transform="translate(0 0)">
		<g>
			<g id="Group_42" transform="translate(0)">
				<path id="Path_121" fill="#E50019" d="M32.43,24.74c-4.16,0-7.53,3.37-7.53,7.52c0,4.16,3.37,7.53,7.53,7.53
					s7.53-3.37,7.53-7.52C39.96,28.11,36.59,24.74,32.43,24.74C32.44,24.74,32.43,24.74,32.43,24.74z M32.43,37.64
					c-2.97,0-5.38-2.41-5.38-5.38s2.41-5.38,5.38-5.38c2.97,0,5.38,2.41,5.38,5.38C37.81,35.23,35.41,37.64,32.43,37.64
					C32.44,37.64,32.44,37.64,32.43,37.64z"/>
				<path id="Path_122" fill="#E50019" d="M60.39,27.97c-1.96,0.01-3.66,1.33-4.15,3.23h-7.68v-3.23c0-0.59-0.48-1.08-1.07-1.08
					h-2.07l1.47-1.46c0.2-0.21,0.31-0.48,0.31-0.77c0-0.28-0.11-0.56-0.31-0.76l-6.09-6.08c-0.41-0.42-1.08-0.43-1.5-0.02
					c-0.01,0.01-0.02,0.02-0.02,0.02l-1.46,1.46v-2.08c0-0.59-0.48-1.07-1.08-1.07h-3.22V8.46c2.3-0.59,3.68-2.94,3.09-5.24
					s-2.94-3.68-5.24-3.09c-2.3,0.59-3.68,2.94-3.09,5.24c0.39,1.51,1.57,2.7,3.09,3.09v7.67h-3.22c-0.59,0-1.08,0.48-1.08,1.07
					v2.08l-1.46-1.46c-0.41-0.42-1.08-0.43-1.5-0.03c-0.01,0.01-0.02,0.02-0.03,0.03l-6.09,6.08c-0.2,0.2-0.31,0.48-0.31,0.76
					c0,0.29,0.11,0.56,0.31,0.77l1.47,1.46h-2.08c-0.59,0-1.07,0.48-1.07,1.08v3.23H8.63c-0.59-2.3-2.94-3.68-5.24-3.09
					c-2.3,0.59-3.68,2.94-3.09,5.24s2.94,3.68,5.24,3.09c1.51-0.39,2.7-1.57,3.09-3.09h7.68v3.23c0,0.59,0.48,1.07,1.07,1.08h2.07
					l-1.47,1.46c-0.2,0.21-0.31,0.48-0.31,0.76c0,0.29,0.11,0.56,0.31,0.77l6.09,6.07c0.41,0.42,1.08,0.43,1.5,0.03
					c0.01-0.01,0.02-0.02,0.03-0.03l1.46-1.46v2.08c0,0.59,0.48,1.07,1.07,1.07c0,0,0,0,0,0h3.23v7.68
					c-2.3,0.59-3.68,2.94-3.09,5.24s2.94,3.68,5.24,3.09c2.3-0.59,3.68-2.94,3.09-5.24c-0.39-1.51-1.57-2.7-3.09-3.09v-7.68h3.22
					c0.59,0,1.08-0.48,1.08-1.07l0,0v-2.08l1.46,1.46c0.41,0.42,1.08,0.43,1.5,0.02c0.01-0.01,0.02-0.02,0.02-0.02l6.09-6.07
					c0.2-0.21,0.31-0.48,0.31-0.77c0-0.28-0.11-0.56-0.31-0.76l-1.47-1.46h2.07c0.59,0,1.07-0.48,1.07-1.08v-3.23h7.68
					c0.6,2.3,2.94,3.67,5.24,3.07s3.67-2.94,3.07-5.24C64.06,29.28,62.35,27.96,60.39,27.97L60.39,27.97z M4.48,34.42
					c-1.19,0-2.15-0.96-2.15-2.15c0-1.19,0.96-2.15,2.15-2.15c1.19,0,2.15,0.96,2.15,2.15c0,1.18-0.95,2.15-2.14,2.15
					C4.49,34.42,4.48,34.42,4.48,34.42z M30.28,4.32c0-1.19,0.96-2.15,2.15-2.15c1.19,0,2.15,0.96,2.15,2.15
					c0,1.18-0.96,2.15-2.14,2.15C31.25,6.47,30.29,5.51,30.28,4.32C30.29,4.32,30.29,4.32,30.28,4.32L30.28,4.32z M34.58,60.23
					c0,1.19-0.97,2.15-2.16,2.14c-1.19,0-2.15-0.97-2.14-2.16c0-1.19,0.97-2.15,2.16-2.14c0,0,0,0,0,0c1.19,0,2.15,0.96,2.15,2.14
					c0,0,0,0,0,0.01L34.58,60.23z M46.41,35.5h-3.59c-0.59,0-1.08,0.48-1.08,1.07c0,0.29,0.11,0.56,0.32,0.77l2.54,2.54l-4.56,4.56
					l-2.54-2.54c-0.42-0.42-1.1-0.42-1.52,0c-0.2,0.2-0.32,0.48-0.32,0.77v3.59h-6.45v-3.59c0-0.59-0.48-1.08-1.07-1.08
					c-0.29,0-0.56,0.11-0.77,0.32l-2.54,2.54l-4.56-4.56l2.54-2.54c0.42-0.42,0.42-1.1,0.01-1.52c-0.2-0.21-0.48-0.32-0.77-0.32
					h-3.59v-6.46h3.59c0.59,0,1.08-0.47,1.08-1.07c0-0.29-0.11-0.57-0.32-0.77l-2.54-2.54l4.56-4.56l2.54,2.54
					c0.42,0.42,1.1,0.42,1.52,0c0.2-0.2,0.32-0.48,0.32-0.77v-3.59h6.45v3.59c0,0.59,0.48,1.08,1.07,1.08
					c0.29,0,0.56-0.11,0.77-0.32l2.54-2.54l4.56,4.56l-2.54,2.54c-0.42,0.42-0.42,1.1,0,1.52c0.2,0.2,0.48,0.32,0.77,0.32h3.59
					L46.41,35.5z M60.38,34.42c-1.19,0-2.15-0.96-2.15-2.15c0-1.19,0.96-2.15,2.15-2.15c1.19,0,2.15,0.96,2.15,2.15c0,0,0,0,0,0
					C62.53,33.46,61.57,34.42,60.38,34.42z"/>
			</g>
		</g>
	</g>
	<path id="Path_123" fill="#0063B0" d="M18.46,0.02H3.4c-1.78,0-3.22,1.44-3.22,3.22v8.6c0.01,1.78,1.45,3.22,3.22,3.23h4.3v2.15
		H5.55v2.15h10.75v-2.15h-2.15v-2.15h4.3c1.78-0.01,3.22-1.45,3.23-3.23v-8.6C21.68,1.46,20.24,0.02,18.46,0.02L18.46,0.02z
		 M12.01,17.22H9.85v-2.15h2.15V17.22z M19.53,11.84c0,0.59-0.48,1.07-1.07,1.07c0,0,0,0,0,0H3.4c-0.59,0-1.07-0.48-1.07-1.07
		c0,0,0,0,0,0v-1.08h17.2L19.53,11.84z M19.53,8.62H2.33V3.24c0-0.59,0.48-1.07,1.07-1.08h15.05c0.59,0,1.08,0.48,1.08,1.08V8.62z"
		/>
	<rect id="Rectangle_38" x="23.83" y="3.24" fill="#0063B0" width="2.15" height="2.15"/>
	<rect id="Rectangle_39" x="3.4" y="23.67" fill="#0063B0" width="2.15" height="2.15"/>
	<rect id="Rectangle_40" x="3.4" y="38.72" fill="#0063B0" width="2.15" height="2.15"/>
	<path id="Path_124" fill="#0063B0" d="M63.61,58.07v-7.53c0-1.78-1.45-3.22-3.22-3.22h-12.9c-1.78,0-3.22,1.44-3.22,3.22v7.53
		c-0.59,0-1.08,0.48-1.08,1.07c0,0,0,0,0,0v2.15c0,1.78,1.45,3.22,3.23,3.23h15.05c1.78-0.01,3.22-1.45,3.22-3.23v-2.14
		C64.69,58.56,64.21,58.08,63.61,58.07L63.61,58.07z M46.41,50.55c0-0.59,0.48-1.08,1.07-1.08c0,0,0,0,0,0h12.9
		c0.59,0,1.07,0.48,1.07,1.08v7.53H46.41V50.55z M62.54,61.3c0,0.59-0.48,1.07-1.07,1.08c0,0,0,0,0,0H46.41
		c-0.59,0-1.08-0.48-1.08-1.07c0,0,0,0,0,0v-1.07h17.2L62.54,61.3z"/>
	<rect id="Rectangle_41" x="38.88" y="59.15" fill="#0063B0" width="2.15" height="2.15"/>
	<rect id="Rectangle_42" x="23.83" y="59.15" fill="#0063B0" width="2.15" height="2.15"/>
	<rect id="Rectangle_43" x="59.31" y="38.72" fill="#0063B0" width="2.15" height="2.15"/>
	<rect id="Rectangle_44" x="59.31" y="43.02" fill="#0063B0" width="2.15" height="2.15"/>
	<g id="Group_45" transform="translate(0 0)">
		<g>
			<g id="Group_44" transform="translate(0)">
				<path id="Path_125" fill="#0063B0" d="M52.86,0.02c-6.53,0-11.82,5.3-11.82,11.83c0,6.53,5.3,11.82,11.83,11.82
					c6.53,0,11.82-5.3,11.82-11.82C64.69,5.31,59.4,0.02,52.86,0.02L52.86,0.02z M52.86,21.52c-5.34,0-9.68-4.33-9.68-9.68
					c0-5.34,4.33-9.68,9.68-9.68s9.68,4.33,9.68,9.68c0,0,0,0,0,0C62.54,17.18,58.2,21.52,52.86,21.52z"/>
				<path id="Path_126" fill="#0063B0" d="M12.01,40.87c-6.53,0-11.83,5.3-11.82,11.83c0,6.53,5.3,11.83,11.83,11.82
					s11.83-5.3,11.82-11.83c0,0,0,0,0,0C23.83,46.16,18.54,40.87,12.01,40.87C12.01,40.86,12.01,40.86,12.01,40.87L12.01,40.87z
					 M21.62,51.62h-4.26c-0.04-1.1-0.16-2.2-0.34-3.28c0.93-0.43,1.79-0.98,2.58-1.63C20.72,48.12,21.42,49.83,21.62,51.62z
					 M18.08,45.17c-0.48,0.39-1,0.73-1.55,1.02c-0.24-0.86-0.56-1.69-0.96-2.48C16.48,44.07,17.32,44.56,18.08,45.17L18.08,45.17z
					 M12.01,43.02c0.82,0,1.86,1.45,2.54,3.96c-1.66,0.46-3.41,0.46-5.07,0C10.15,44.47,11.19,43.02,12.01,43.02z M4.42,46.71
					c0.79,0.65,1.65,1.2,2.58,1.63c-0.19,1.08-0.3,2.18-0.35,3.28H2.4C2.59,49.83,3.29,48.12,4.42,46.71L4.42,46.71z M2.4,53.77
					h4.25c0.04,1.1,0.16,2.2,0.35,3.28c-0.93,0.43-1.79,0.98-2.58,1.63C3.29,57.27,2.59,55.56,2.4,53.77L2.4,53.77z M5.93,60.22
					c0.48-0.39,1-0.73,1.55-1.02c0.24,0.86,0.56,1.69,0.96,2.48C7.54,61.32,6.69,60.83,5.93,60.22L5.93,60.22z M7.48,46.19
					c-0.55-0.29-1.07-0.63-1.55-1.02c0.76-0.61,1.6-1.1,2.5-1.46C8.03,44.5,7.71,45.33,7.48,46.19L7.48,46.19z M12.01,62.37
					c-0.82,0-1.86-1.45-2.54-3.96c1.66-0.46,3.41-0.46,5.07,0C13.86,60.92,12.82,62.37,12.01,62.37z M14.97,56.31
					c-1.94-0.52-3.99-0.52-5.93,0c-0.13-0.84-0.21-1.69-0.24-2.54h6.41C15.18,54.62,15.1,55.47,14.97,56.31z M8.8,51.62
					c0.03-0.85,0.11-1.7,0.24-2.54c1.94,0.51,3.99,0.51,5.93,0c0.13,0.84,0.21,1.69,0.24,2.54H8.8z M15.58,61.68
					c0.4-0.8,0.72-1.63,0.96-2.48c0.55,0.29,1.07,0.63,1.55,1.02C17.32,60.83,16.48,61.32,15.58,61.68L15.58,61.68z M19.6,58.68
					c-0.79-0.65-1.65-1.2-2.58-1.63c0.18-1.09,0.3-2.18,0.34-3.28h4.26C21.42,55.56,20.72,57.27,19.6,58.68L19.6,58.68z"/>
			</g>
		</g>
	</g>
	<path id="Path_127" fill="#0063B0" d="M48.56,12.91v2.15h3.22v2.15h-4.3c-0.59,0-1.07-0.48-1.07-1.07l0,0v-4.3
		c0-0.59,0.48-1.07,1.07-1.08c0,0,0,0,0,0h2.15V8.61h-3.22V6.47h4.3c0.59,0,1.07,0.48,1.07,1.07c0,0,0,0,0,0v4.3
		c0,0.59-0.48,1.07-1.07,1.07c0,0,0,0,0,0L48.56,12.91z"/>
	<path id="Path_128" fill="#0063B0" d="M59.31,6.47v10.75h-2.15v-4.3h-3.22c-0.59,0-1.08-0.48-1.08-1.07l0,0V6.47h2.15v4.3h2.15
		v-4.3L59.31,6.47z"/>
	<rect id="Rectangle_46" x="59.31" y="23.67" fill="#0063B0" width="2.15" height="2.15"/>
	<rect id="Rectangle_47" x="38.88" y="3.24" fill="#0063B0" width="2.15" height="2.15"/>
</g>
</svg>
