<?xml version="1.0" encoding="utf-8"?>
<!-- Generator: Adobe Illustrator 25.0.1, SVG Export Plug-In . SVG Version: 6.00 Build 0)  -->
<svg version="1.2" baseProfile="tiny" id="Layer_1" xmlns="http://www.w3.org/2000/svg" xmlns:xlink="http://www.w3.org/1999/xlink"
	 x="0px" y="0px" viewBox="0 0 70 54.56" overflow="visible" xml:space="preserve">
<g id="Group_29" transform="translate(-64.606 -552.514)">
	<path id="Path_95" fill="#0063B0" d="M69.32,607.08h60.56c2.61-0.01,4.72-2.14,4.72-4.75v-2.76c0-1.01-0.81-1.82-1.82-1.83h-3.51
		c0.86-1.03,1.34-2.34,1.34-3.68v-12.97c0-0.57-0.46-1.03-1.03-1.03s-1.03,0.46-1.03,1.03l0,0v12.97c-0.01,1.8-1.3,3.35-3.07,3.68
		H73.72c-1.77-0.33-3.06-1.88-3.07-3.68V558.3c0-2.06,1.67-3.74,3.74-3.74h50.45c2.06,0,3.74,1.68,3.74,3.74v17.99
		c0,0.57,0.46,1.03,1.03,1.03s1.03-0.46,1.03-1.03V558.3c-0.01-3.2-2.6-5.79-5.79-5.79H74.38c-3.2,0.01-5.78,2.59-5.79,5.79v35.74
		c0,1.35,0.48,2.65,1.34,3.68h-3.51c-1.01,0-1.82,0.82-1.82,1.83v2.76C64.6,604.93,66.71,607.06,69.32,607.08L69.32,607.08z
		 M90.72,599.78h17.77v0.83c0,0.34-0.27,0.62-0.62,0.63H91.34c-0.34-0.01-0.62-0.29-0.61-0.63L90.72,599.78z M66.66,599.78h22.01
		v0.83c0,1.48,1.19,2.68,2.67,2.68h16.54c1.48-0.01,2.67-1.21,2.67-2.68v-0.83h22.01v2.54c0.01,1.48-1.19,2.69-2.67,2.7H69.32
		c-1.48-0.01-2.67-1.22-2.67-2.7L66.66,599.78z"/>
	<path id="Path_96" fill="#E50019" d="M97.21,558.82c0.57,0,1.03-0.46,1.03-1.03s-0.46-1.03-1.03-1.03H74.76
		c-1.04,0-1.88,0.84-1.88,1.88v35.01c0,1.04,0.84,1.88,1.88,1.88h49.7c1.04,0,1.88-0.84,1.88-1.88v-35.02
		c0-1.04-0.84-1.88-1.88-1.88H102c-0.57,0-1.03,0.46-1.03,1.03s0.46,1.03,1.03,1.03h22.29v3.02h-43.8v-3.02H97.21z M117.47,593.49
		h-10.01v-1.23c0-1.42,1.15-2.57,2.57-2.57h4.88c1.42,0,2.57,1.15,2.57,2.57V593.49z M110.43,585.6c0-1.12,0.91-2.04,2.03-2.04
		c1.12,0,2.04,0.91,2.04,2.03c0,1.12-0.91,2.04-2.03,2.04c-0.54,0-1.06-0.21-1.44-0.59C110.64,586.66,110.43,586.15,110.43,585.6z
		 M100.63,563.89h23.66v13.78h-4.77v-1.24c0-2.15-1.49-4.02-3.59-4.5c1.19-1.92,0.6-4.44-1.32-5.63s-4.44-0.6-5.63,1.32
		c-0.4,0.65-0.61,1.39-0.61,2.16c0,0.76,0.21,1.51,0.61,2.15c-2.1,0.49-3.58,2.35-3.58,4.5v1.23h-4.77V563.89z M114.9,573.87
		c1.42,0,2.57,1.15,2.57,2.57v1.23h-10.01v-1.24c0-1.42,1.15-2.57,2.57-2.57L114.9,573.87z M110.43,569.78
		c0-1.12,0.91-2.04,2.03-2.04c1.12,0,2.04,0.91,2.04,2.03c0,1.12-0.91,2.04-2.03,2.04c-0.54,0-1.06-0.21-1.44-0.59
		C110.64,570.84,110.43,570.32,110.43,569.78z M100.63,579.72h23.66v13.78h-4.77v-1.23c0-2.15-1.49-4.02-3.59-4.5
		c1.19-1.92,0.6-4.44-1.32-5.63s-4.44-0.6-5.63,1.32c-0.82,1.32-0.82,2.99,0,4.31c-2.1,0.48-3.58,2.35-3.58,4.5v1.23h-4.77V579.72z
		 M74.93,558.82h3.51v3.02h-3.51V558.82z M91.76,593.49H81.74v-1.23c0-1.42,1.15-2.57,2.57-2.57h4.88c1.42,0,2.57,1.15,2.57,2.57
		L91.76,593.49z M86.75,583.57c1.12,0,2.04,0.91,2.04,2.04s-0.91,2.04-2.04,2.04c-0.54,0-1.06-0.21-1.44-0.6
		c-0.79-0.8-0.79-2.09,0.01-2.88C85.7,583.78,86.22,583.57,86.75,583.57z M98.58,593.49h-4.77v-1.23c0-2.15-1.49-4.02-3.59-4.5
		c1.19-1.92,0.6-4.44-1.32-5.63s-4.44-0.6-5.63,1.32c-0.4,0.65-0.61,1.39-0.61,2.16c0,0.76,0.21,1.51,0.61,2.15
		c-2.1,0.48-3.58,2.35-3.58,4.5v1.23h-4.77v-13.78h23.65L98.58,593.49z M89.19,573.86c1.42,0,2.57,1.15,2.57,2.57v1.23H81.74v-1.23
		c0-1.42,1.15-2.57,2.57-2.57L89.19,573.86z M86.75,567.74c1.12,0,2.03,0.91,2.03,2.04s-0.91,2.03-2.04,2.03
		c-0.54,0-1.05-0.21-1.44-0.6c-0.79-0.8-0.79-2.09,0.01-2.88C85.7,567.95,86.22,567.74,86.75,567.74z M98.58,563.89v13.78h-4.77
		v-1.23c0-2.15-1.49-4.02-3.59-4.5c1.19-1.92,0.6-4.44-1.32-5.63s-4.44-0.6-5.63,1.32c-0.4,0.65-0.61,1.39-0.61,2.16
		c0,0.76,0.21,1.51,0.61,2.15c-2.1,0.49-3.58,2.35-3.58,4.5v1.23h-4.77v-13.77L98.58,563.89z"/>
</g>
</svg>
