<?xml version="1.0" encoding="utf-8"?>
<!-- Generator: Adobe Illustrator 25.0.1, SVG Export Plug-In . SVG Version: 6.00 Build 0)  -->
<svg version="1.2" baseProfile="tiny" id="Layer_1" xmlns="http://www.w3.org/2000/svg" xmlns:xlink="http://www.w3.org/1999/xlink"
	 x="0px" y="0px" viewBox="0 0 44 44" overflow="visible" xml:space="preserve">
<g id="Group_2013" transform="translate(-835 -690)">
	<circle id="Ellipse_7" fill="#F2F2F3" cx="857" cy="712" r="22"/>
	<g id="data_image_svg_xml_-_2020-10-25T172352.428" transform="translate(840.867 695.901)">
		<path id="Path_789" fill-rule="evenodd" fill="#E50019" d="M13.98,18.12h3.58l0.73-3.65h-3.58L13.98,18.12z M19.75,25.78
			l-3.58-0.72l0.66-3.3h-3.58l-0.8,4.01l-3.58-0.72l0.66-3.3H7v-3.64h3.25l0.73-3.65H7v-3.65h4.71l0.8-4.01l3.59,0.72l-0.66,3.3
			h3.58l0.8-4.01l3.58,0.71l-0.66,3.3h2.52v3.65h-3.25l-0.73,3.65h3.98v3.65h-4.71L19.75,25.78z"/>
	</g>
</g>
</svg>
