<?xml version="1.0" encoding="utf-8"?>
<!-- Generator: Adobe Illustrator 25.0.1, SVG Export Plug-In . SVG Version: 6.00 Build 0)  -->
<svg version="1.2" baseProfile="tiny" id="Layer_1" xmlns="http://www.w3.org/2000/svg" xmlns:xlink="http://www.w3.org/1999/xlink"
	 x="0px" y="0px" viewBox="0 0 63.57 75.76" overflow="visible" xml:space="preserve">
<g>
	<path id="Path_112" fill="#0063B0" d="M7.7,22.84c-0.61,0-1.11,0.5-1.11,1.11v43.52c0,0.94,0.76,1.7,1.7,1.7h46.99
		c0.94,0,1.7-0.76,1.7-1.7V8.21c0-0.94-0.76-1.7-1.7-1.7H8.29c-0.94,0-1.7,0.77-1.7,1.7v10.42c-0.02,0.61,0.46,1.13,1.08,1.14
		c0.61,0.02,1.13-0.46,1.14-1.08c0-0.02,0-0.04,0-0.07v-9.9h45.95v58.22H8.81v-43C8.81,23.34,8.31,22.84,7.7,22.84L7.7,22.84z"/>
	<path id="Path_113" fill="#0063B0" d="M57.13-0.08H6.43C2.88-0.08,0,2.8,0,6.35v62.98c0,3.55,2.88,6.43,6.43,6.43h40.06
		c0.61,0,1.11-0.5,1.11-1.12c0-0.61-0.5-1.1-1.11-1.11H6.43c-2.32,0-4.21-1.89-4.21-4.21V6.35c0-2.32,1.89-4.21,4.21-4.21h50.71
		c2.32,0,4.21,1.89,4.21,4.21v62.98c0,2.32-1.89,4.21-4.21,4.21h-5.27c-0.61,0-1.11,0.5-1.11,1.12c0,0.61,0.5,1.1,1.11,1.11h5.27
		c3.55,0,6.43-2.88,6.43-6.43V6.35C63.57,2.79,60.69-0.08,57.13-0.08L57.13-0.08z"/>
	<path id="Path_114" fill="#E50019" d="M14.97,25.79c0.46,0,0.87-0.28,1.04-0.71l0.72-1.9h4.88l0.71,1.89
		c0.23,0.57,0.88,0.84,1.45,0.61c0.55-0.22,0.83-0.84,0.63-1.4L20.45,13.8l-0.01-0.02c-0.21-0.51-0.7-0.85-1.26-0.85l0,0
		c-0.55,0-1.04,0.33-1.25,0.84l-0.01,0.02l-3.99,10.48c-0.21,0.58,0.08,1.22,0.66,1.43C14.72,25.75,14.85,25.78,14.97,25.79
		L14.97,25.79z M19.18,16.75l1.59,4.21h-3.19L19.18,16.75z"/>
	<path id="Path_115" fill="#E50019" d="M48.28,13.86c-0.15-0.73-0.86-1.2-1.59-1.05c-0.48,0.1-0.87,0.44-1.02,0.91l-0.01,0.04
		l-2.11,7.4l-2.19-7.41c0-0.01-0.01-0.03-0.01-0.04c-0.24-0.71-1.01-1.09-1.71-0.85c-0.47,0.16-0.81,0.55-0.9,1.04l-1.87,10.35
		c-0.11,0.6,0.29,1.18,0.9,1.29c0.6,0.11,1.18-0.29,1.29-0.9l1.21-6.73l1.99,6.77c0.23,0.71,1,1.1,1.71,0.87
		c0.42-0.14,0.75-0.47,0.88-0.89l1.93-6.76l1.29,6.75c0.11,0.6,0.7,1,1.3,0.89c0.6-0.11,1-0.7,0.89-1.3l0,0L48.28,13.86z"/>
	<path id="Path_116" fill="#E50019" d="M30.5,25.47c0.61,0,1.11-0.5,1.11-1.11c0,0,0,0,0,0v-9.51h1.84c0.61,0,1.11-0.5,1.11-1.11
		c0-0.61-0.5-1.11-1.11-1.11h-5.87c-0.61,0-1.11,0.5-1.11,1.11c0,0.61,0.5,1.11,1.11,1.11h1.81v9.51
		C29.39,24.97,29.89,25.47,30.5,25.47z"/>
	<path id="Path_117" fill="#E50019" d="M12.45,32.26v28.2c0,1.66,1.35,3.01,3.01,3.01h18.88c1.66,0,3.01-1.35,3.01-3.01v-28.2
		c0-1.66-1.35-3.01-3.01-3.01H15.45C13.79,29.26,12.45,30.6,12.45,32.26z M21.75,55.65v-4.38h6.07v4.38L21.75,55.65z M27.82,57.87
		v3.38h-6.07v-3.38L27.82,57.87z M14.67,51.27h4.85v4.38h-4.85L14.67,51.27z M30.04,51.27h5.08v4.38h-5.08V51.27z M35.12,49.05
		h-5.08V45.7h5.08V49.05z M27.82,49.05h-6.07V45.7h6.07V49.05z M19.52,49.05h-4.85V45.7h4.86L19.52,49.05z M14.66,60.47v-2.6h4.86
		v3.38h-4.07C15.02,61.25,14.67,60.9,14.66,60.47L14.66,60.47z M34.33,61.25h-4.29v-3.38h5.08v2.6
		C35.11,60.91,34.76,61.26,34.33,61.25L34.33,61.25z M14.66,32.26c0-0.43,0.35-0.78,0.79-0.79h18.88c0.43,0,0.78,0.35,0.79,0.79
		v11.21H14.66L14.66,32.26z"/>
	<path id="Path_118" fill="#E50019" d="M48.83,54.54h-6.86c-1.12,0-2.03,0.91-2.03,2.03v5.05c0,1.12,0.91,2.03,2.03,2.03h6.86
		c1.12,0,2.03-0.91,2.03-2.03v-5.05C50.86,55.45,49.95,54.54,48.83,54.54z M48.64,61.43h-6.48v-4.67h6.48V61.43z"/>
	<path id="Path_119" fill="#E50019" d="M50.86,31.29c0-1.12-0.91-2.03-2.03-2.03h-6.86c-1.12,0-2.03,0.91-2.03,2.03v17.96
		c0,1.12,0.91,2.03,2.03,2.03h6.86c1.12,0,2.03-0.91,2.03-2.03V31.29z M48.64,49.06h-6.48V31.48h6.48V49.06z"/>
	<path id="Path_120" fill="#E50019" d="M45.4,45.55c0.61,0,1.11-0.5,1.11-1.11V36.9c0-0.61-0.5-1.11-1.11-1.11
		c-0.61,0-1.11,0.5-1.11,1.11v7.55C44.29,45.06,44.79,45.55,45.4,45.55L45.4,45.55z"/>
</g>
</svg>
