<?xml version="1.0" encoding="utf-8"?>
<!-- Generator: Adobe Illustrator 25.0.1, SVG Export Plug-In . SVG Version: 6.00 Build 0)  -->
<svg version="1.2" baseProfile="tiny" id="Layer_1" xmlns="http://www.w3.org/2000/svg" xmlns:xlink="http://www.w3.org/1999/xlink"
	 x="0px" y="0px" viewBox="0 0 68.4 68.24" overflow="visible" xml:space="preserve">
<g>
	<path id="Path_91" fill="#0063B0" d="M35.26,0H3.41C1.53,0.01,0.01,1.53,0,3.41v56.86c0.01,1.88,1.53,3.4,3.41,3.41h2.27v3.41
		c0,0.63,0.51,1.14,1.14,1.14h4.55c0.63,0,1.14-0.51,1.14-1.14v-3.41h13.65v3.41c0,0.63,0.51,1.14,1.14,1.14h4.55
		c0.63,0,1.14-0.51,1.14-1.14c0,0,0,0,0,0v-3.41h2.28c1.88-0.01,3.4-1.53,3.41-3.41V3.41C38.67,1.53,37.14,0.01,35.26,0z
		 M10.24,65.96H7.96v-2.27h2.27L10.24,65.96z M30.71,65.96h-2.27v-2.27h2.27V65.96z M36.4,60.28c0,0.63-0.51,1.14-1.14,1.14l0,0
		H3.41c-0.63,0-1.14-0.51-1.14-1.13c0,0,0,0,0,0V3.41c0-0.63,0.51-1.14,1.13-1.14c0,0,0,0,0,0h31.85c0.63,0,1.14,0.51,1.14,1.14
		c0,0,0,0,0,0L36.4,60.28z"/>
	<path id="Path_92" fill="#0063B0" d="M32.98,29.57H5.69c-0.63,0-1.14,0.51-1.14,1.14V58c0,0.63,0.51,1.14,1.14,1.14h27.29
		c0.63,0,1.14-0.51,1.14-1.14V30.71C34.12,30.08,33.61,29.57,32.98,29.57L32.98,29.57z M31.84,56.87H6.82v-2.28h25.02V56.87z
		 M31.84,52.32H6.82v-2.28h25.02V52.32z M31.84,47.77H6.82v-2.28h25.02V47.77z M31.84,43.22H6.82v-2.27h25.02V43.22z M31.84,38.67
		H6.82V36.4h25.02V38.67z M31.84,34.12H6.82v-2.28h25.02V34.12z"/>
	<path id="Path_93" fill="#0063B0" d="M32.98,4.55H5.69c-0.63,0-1.14,0.51-1.14,1.14v13.65c0,0.63,0.51,1.14,1.14,1.14h27.29
		c0.63,0,1.14-0.51,1.14-1.14V5.69C34.12,5.06,33.61,4.55,32.98,4.55L32.98,4.55z M11.37,18.2H6.82v-2.28h4.55V18.2z M11.37,13.65
		H6.82v-2.28h4.55V13.65z M11.37,9.1H6.82V6.82h4.55V9.1z M18.2,18.2h-4.55v-2.28h4.55V18.2z M18.2,13.65h-4.55v-2.28h4.55V13.65z
		 M18.2,9.1h-4.55V6.82h4.55V9.1z M25.02,18.2h-4.55v-2.28h4.55V18.2z M25.02,13.65h-4.55v-2.28h4.55V13.65z M25.02,9.1h-4.55V6.83
		h4.55V9.1z M31.84,18.2h-4.55v-2.28h4.55V18.2z M31.84,13.65h-4.55v-2.28h4.55V13.65z M31.84,9.1h-4.55V6.83h4.55V9.1z"/>
	<rect id="Rectangle_13" x="29.57" y="23.88" fill="#0063B0" width="4.55" height="2.28"/>
	<rect id="Rectangle_14" x="4.55" y="23.88" fill="#0063B0" width="4.55" height="2.28"/>
	<path id="Path_94" fill="#E50019" d="M67.94,43.59c-0.22-0.24-0.52-0.37-0.84-0.38h-1.14c0-5.03-4.07-9.1-9.1-9.1
		s-9.1,4.07-9.1,9.1h-1.14c-0.32,0-0.63,0.14-0.84,0.38c-0.21,0.24-0.32,0.56-0.3,0.88l2.27,22.74c0.07,0.58,0.56,1.02,1.14,1.02
		h15.92c0.58-0.01,1.07-0.44,1.14-1.02l2.27-22.74C68.26,44.15,68.15,43.83,67.94,43.59L67.94,43.59z M56.86,36.39
		c3.77,0,6.82,3.05,6.82,6.82H50.04C50.04,39.45,53.1,36.39,56.86,36.39L56.86,36.39z M59.14,45.49v9.1h-4.55v-9.1H59.14z
		 M63.79,65.96H49.94l-2.05-20.47h4.42v10.23c0,0.63,0.51,1.14,1.14,1.14h6.83c0.63,0,1.14-0.51,1.14-1.14V45.49h4.43L63.79,65.96z"
		/>
	<rect id="Rectangle_15" x="55.73" y="9.1" fill="#E50019" width="2.28" height="2.28"/>
	<rect id="Rectangle_16" x="53.45" y="11.37" fill="#0063B0" width="2.27" height="2.28"/>
	<rect id="Rectangle_17" x="55.73" y="13.65" fill="#0063B0" width="2.28" height="2.27"/>
	<rect id="Rectangle_18" x="58" y="11.37" fill="#0063B0" width="2.28" height="2.28"/>
	<rect id="Rectangle_19" x="63.69" y="18.2" fill="#0063B0" width="2.27" height="2.27"/>
	<rect id="Rectangle_20" x="61.41" y="20.47" fill="#0063B0" width="2.28" height="2.28"/>
	<rect id="Rectangle_21" x="63.69" y="22.75" fill="#E50019" width="2.27" height="2.28"/>
	<rect id="Rectangle_22" x="65.96" y="20.47" fill="#0063B0" width="2.28" height="2.28"/>
	<rect id="Rectangle_23" x="63.69" y="0" fill="#E50019" width="2.27" height="2.28"/>
	<rect id="Rectangle_24" x="61.41" y="2.28" fill="#0063B0" width="2.28" height="2.27"/>
	<rect id="Rectangle_25" x="63.69" y="4.55" fill="#0063B0" width="2.27" height="2.28"/>
	<rect id="Rectangle_26" x="65.96" y="2.28" fill="#0063B0" width="2.28" height="2.27"/>
	<rect id="Rectangle_27" x="47.77" y="18.2" fill="#0063B0" width="2.27" height="2.27"/>
	<rect id="Rectangle_28" x="45.49" y="20.47" fill="#0063B0" width="2.28" height="2.28"/>
	<rect id="Rectangle_29" x="47.77" y="22.75" fill="#0063B0" width="2.27" height="2.28"/>
	<rect id="Rectangle_30" x="50.04" y="20.47" fill="#E50019" width="2.28" height="2.28"/>
	<rect id="Rectangle_31" x="47.77" y="0" fill="#E50019" width="2.27" height="2.28"/>
	<rect id="Rectangle_32" x="45.49" y="2.28" fill="#0063B0" width="2.28" height="2.27"/>
	<rect id="Rectangle_33" x="47.77" y="4.55" fill="#0063B0" width="2.27" height="2.28"/>
	<rect id="Rectangle_34" x="50.04" y="2.28" fill="#0063B0" width="2.28" height="2.27"/>
	<rect id="Rectangle_35" x="13.65" y="23.88" fill="#0063B0" width="11.37" height="2.28"/>
</g>
</svg>
