<?xml version="1.0" encoding="utf-8"?>
<!-- Generator: Adobe Illustrator 25.0.1, SVG Export Plug-In . SVG Version: 6.00 Build 0)  -->
<svg version="1.2" baseProfile="tiny" id="Layer_1" xmlns="http://www.w3.org/2000/svg" xmlns:xlink="http://www.w3.org/1999/xlink"
	 x="0px" y="0px" viewBox="0 0 33.7 27.39" overflow="visible" xml:space="preserve">
<g id="Group_227">
	<path id="Path_559" fill="#0F63B0" d="M2.48,5.04h28.56c1.37,0,2.48-1.11,2.48-2.48c0-1.37-1.11-2.48-2.48-2.48H2.48
		C1.11,0.07,0,1.18,0,2.56C0,3.93,1.11,5.04,2.48,5.04z M31.04,11.25H2.48c-1.37,0.03-2.46,1.16-2.43,2.53
		c0.03,1.33,1.1,2.41,2.43,2.43h28.56c1.37-0.03,2.46-1.16,2.43-2.53C33.45,12.35,32.37,11.27,31.04,11.25z M31.04,22.42H2.48
		C1.11,22.42,0,23.53,0,24.9c0,1.37,1.11,2.48,2.48,2.48h28.56c1.37,0,2.48-1.11,2.48-2.48C33.53,23.53,32.41,22.42,31.04,22.42z"/>
</g>
</svg>
