<?xml version="1.0" encoding="utf-8"?>
<!-- Generator: Adobe Illustrator 25.0.1, SVG Export Plug-In . SVG Version: 6.00 Build 0)  -->
<svg version="1.2" baseProfile="tiny" id="Layer_1" xmlns="http://www.w3.org/2000/svg" xmlns:xlink="http://www.w3.org/1999/xlink"
	 x="0px" y="0px" viewBox="0 0 20 20" overflow="visible" xml:space="preserve">
<rect id="Area" x="132.56" y="-23.89" fill="none" width="24" height="24"/>
<path fill="#AFAFAF" d="M19.71,18.29l-3.68-3.68C17.26,13.07,18,11.12,18,9c0-4.96-4.04-9-9-9S0,4.04,0,9s4.04,9,9,9
	c2.12,0,4.07-0.74,5.61-1.98l3.68,3.68C18.49,19.9,18.74,20,19,20s0.51-0.1,0.71-0.29C20.1,19.32,20.1,18.68,19.71,18.29z M2,9
	c0-3.86,3.14-7,7-7s7,3.14,7,7c0,1.92-0.78,3.66-2.03,4.93c-0.01,0.01-0.02,0.01-0.02,0.02s-0.01,0.02-0.02,0.02
	C12.66,15.22,10.92,16,9,16C5.14,16,2,12.86,2,9z"/>
</svg>
