<?xml version="1.0" encoding="utf-8"?>
<!-- Generator: Adobe Illustrator 25.0.1, SVG Export Plug-In . SVG Version: 6.00 Build 0)  -->
<svg version="1.2" baseProfile="tiny" id="Layer_1" xmlns="http://www.w3.org/2000/svg" xmlns:xlink="http://www.w3.org/1999/xlink"
	 x="0px" y="0px" viewBox="0 0 1087.43 648" overflow="visible" xml:space="preserve">
<g id="Group_2027" transform="translate(-393 -3950)">
	<line id="Line_16" fill="none" stroke="#0063B0" stroke-width="3" x1="1085.5" y1="4105.5" x2="1179.5" y2="4105.5"/>
	<line id="Line_18" fill="none" stroke="#0063B0" stroke-width="3" x1="551.5" y1="4184.5" x2="1329.5" y2="4184.5"/>
	<line id="Line_20" fill="none" stroke="#0063B0" stroke-width="3" x1="1190.5" y1="4358.5" x2="1299.5" y2="4358.5"/>
	<line id="Line_26" fill="none" stroke="#0063B0" stroke-width="3" x1="419.5" y1="4358.5" x2="528.5" y2="4358.5"/>
	<line id="Line_23" fill="none" stroke="#0063B0" stroke-width="3" x1="806.5" y1="4358.5" x2="915.5" y2="4358.5"/>
	<line id="Line_21" fill="none" stroke="#0063B0" stroke-width="3" x1="1190.5" y1="4461.5" x2="1299.5" y2="4461.5"/>
	<line id="Line_28" fill="none" stroke="#0063B0" stroke-width="3" x1="419.5" y1="4461.5" x2="528.5" y2="4461.5"/>
	<line id="Line_25" fill="none" stroke="#0063B0" stroke-width="3" x1="806.5" y1="4461.5" x2="915.5" y2="4461.5"/>
	<line id="Line_22" fill="none" stroke="#0063B0" stroke-width="3" x1="1190.5" y1="4564.5" x2="1299.5" y2="4564.5"/>
	<line id="Line_29" fill="none" stroke="#0063B0" stroke-width="3" x1="419.5" y1="4564.5" x2="528.5" y2="4564.5"/>
	<line id="Line_17" fill="none" stroke="#0063B0" stroke-width="3" x1="938.5" y1="4017.5" x2="938.5" y2="4222.5"/>
	<line id="Line_30" fill="none" stroke="#0063B0" stroke-width="3" x1="551.5" y1="4184.5" x2="551.5" y2="4226.5"/>
	<line id="Line_31" fill="none" stroke="#0063B0" stroke-width="3" x1="1329.5" y1="4184.5" x2="1329.5" y2="4226.5"/>
	<line id="Line_19" fill="none" stroke="#0063B0" stroke-width="3" x1="1190.5" y1="4281.5" x2="1190.5" y2="4565.5"/>
	<line id="Line_27" fill="none" stroke="#0063B0" stroke-width="3" x1="419.5" y1="4281.5" x2="419.5" y2="4565.5"/>
	<line id="Line_24" fill="none" stroke="#0063B0" stroke-width="3" x1="806.5" y1="4281.5" x2="806.5" y2="4462.5"/>
	<path id="Rectangle_122" fill="#FFFFFF" d="M794,3950h287c7.73,0,14,6.27,14,14v39c0,7.73-6.27,14-14,14H794c-7.73,0-14-6.27-14-14
		v-39C780,3956.27,786.27,3950,794,3950z"/>
	<path id="Rectangle_123" fill="#FFFFFF" d="M794,4072h287c7.73,0,14,6.27,14,14v39c0,7.73-6.27,14-14,14H794c-7.73,0-14-6.27-14-14
		v-39C780,4078.27,786.27,4072,794,4072z"/>
	<path id="Rectangle_125" fill="#29A2FF" d="M407,4222h287c7.73,0,14,6.27,14,14v39c0,7.73-6.27,14-14,14H407c-7.73,0-14-6.27-14-14
		v-39C393,4228.27,399.27,4222,407,4222z"/>
	<path id="Rectangle_126" fill="#EB9B02" d="M794,4222h287c7.73,0,14,6.27,14,14v39c0,7.73-6.27,14-14,14H794c-7.73,0-14-6.27-14-14
		v-39C780,4228.27,786.27,4222,794,4222z"/>
	<path id="Rectangle_127" fill="#D62D2D" d="M1178,4222h287c7.73,0,14,6.27,14,14v39c0,7.73-6.27,14-14,14h-287
		c-7.73,0-14-6.27-14-14v-39C1164,4228.27,1170.27,4222,1178,4222z"/>
	<path id="Rectangle_134" fill="#D62D2D" d="M1235,4325h230c7.73,0,14,6.27,14,14v39c0,7.73-6.27,14-14,14h-230
		c-7.73,0-14-6.27-14-14v-39C1221,4331.27,1227.27,4325,1235,4325z"/>
	<path id="Rectangle_139" fill="#29A2FF" d="M464,4325h230c7.73,0,14,6.27,14,14v39c0,7.73-6.27,14-14,14H464c-7.73,0-14-6.27-14-14
		v-39C450,4331.27,456.27,4325,464,4325z"/>
	<path id="Rectangle_137" fill="#EB9B02" d="M851,4325h230c7.73,0,14,6.27,14,14v39c0,7.73-6.27,14-14,14H851c-7.73,0-14-6.27-14-14
		v-39C837,4331.27,843.27,4325,851,4325z"/>
	<path id="Rectangle_135" fill="#D62D2D" d="M1235,4428h230c7.73,0,14,6.27,14,14v39c0,7.73-6.27,14-14,14h-230
		c-7.73,0-14-6.27-14-14v-39C1221,4434.27,1227.27,4428,1235,4428z"/>
	<path id="Rectangle_140" fill="#29A2FF" d="M464,4428h230c7.73,0,14,6.27,14,14v39c0,7.73-6.27,14-14,14H464c-7.73,0-14-6.27-14-14
		v-39C450,4434.27,456.27,4428,464,4428z"/>
	<path id="Rectangle_138" fill="#EB9B02" d="M851,4428h230c7.73,0,14,6.27,14,14v39c0,7.73-6.27,14-14,14H851c-7.73,0-14-6.27-14-14
		v-39C837,4434.27,843.27,4428,851,4428z"/>
	<path id="Rectangle_136" fill="#D62D2D" d="M1235,4531h230c7.73,0,14,6.27,14,14v39c0,7.73-6.27,14-14,14h-230
		c-7.73,0-14-6.27-14-14v-39C1221,4537.27,1227.27,4531,1235,4531z"/>
	<path id="Rectangle_141" fill="#29A2FF" d="M464,4531h230c7.73,0,14,6.27,14,14v39c0,7.73-6.27,14-14,14H464c-7.73,0-14-6.27-14-14
		v-39C450,4537.27,456.27,4531,464,4531z"/>
	<path id="Rectangle_124" fill="#98FAFC" d="M1178,4072h287c7.73,0,14,6.27,14,14v39c0,7.73-6.27,14-14,14h-287
		c-7.73,0-14-6.27-14-14v-39C1164,4078.27,1170.27,4072,1178,4072z"/>
	<g>
		<path fill="#0063B0" d="M829.51,3979.4h2.77v4.99h5.11v-4.99h2.77v12.6h-2.77v-5.06h-5.11v5.06h-2.77V3979.4z"/>
		<path fill="#0063B0" d="M849.31,3992.22c-0.97,0-1.87-0.17-2.68-0.51c-0.82-0.34-1.52-0.8-2.12-1.39
			c-0.59-0.58-1.06-1.27-1.39-2.05c-0.33-0.79-0.5-1.63-0.5-2.53v-0.04c0-0.9,0.17-1.74,0.5-2.53s0.8-1.48,1.4-2.07
			c0.59-0.59,1.3-1.06,2.12-1.4s1.72-0.51,2.69-0.51s1.87,0.17,2.68,0.51s1.52,0.8,2.12,1.39s1.06,1.27,1.39,2.05
			c0.33,0.79,0.49,1.63,0.49,2.53v0.04c0,0.9-0.17,1.74-0.5,2.53c-0.34,0.79-0.8,1.48-1.39,2.07s-1.3,1.06-2.12,1.4
			C851.18,3992.04,850.28,3992.22,849.31,3992.22z M849.35,3989.66c0.55,0,1.06-0.1,1.53-0.31c0.47-0.2,0.87-0.49,1.2-0.85
			c0.33-0.36,0.59-0.78,0.77-1.25c0.19-0.47,0.28-0.98,0.28-1.52v-0.04c0-0.54-0.09-1.05-0.28-1.53c-0.19-0.48-0.45-0.9-0.79-1.26
			c-0.34-0.36-0.75-0.65-1.21-0.86c-0.47-0.21-0.98-0.31-1.53-0.31c-0.56,0-1.08,0.1-1.54,0.31s-0.86,0.49-1.19,0.85
			c-0.33,0.36-0.59,0.78-0.77,1.25c-0.19,0.47-0.28,0.98-0.28,1.52v0.04c0,0.54,0.09,1.05,0.28,1.53c0.19,0.48,0.45,0.9,0.79,1.26
			c0.34,0.36,0.74,0.64,1.21,0.85S848.78,3989.66,849.35,3989.66z M848.03,3975.4h2.59l2.21,2.83h-2.11l-1.42-1.19l-1.42,1.19h-2.07
			L848.03,3975.4z M847.98,3993.73h2.88v2.43h-2.88V3993.73z"/>
		<path fill="#0063B0" d="M858.62,3979.4h2.77v12.6h-2.77V3979.4z"/>
		<path fill="#0063B0" d="M870.48,3986.94h-1.04v-2.05h1.04v-5.49h4.91c0.98,0,1.89,0.16,2.71,0.48c0.82,0.32,1.53,0.76,2.12,1.32
			s1.05,1.23,1.38,1.99c0.32,0.76,0.49,1.59,0.49,2.47v0.04c0,0.89-0.16,1.72-0.49,2.48c-0.32,0.77-0.78,1.43-1.38,2
			c-0.59,0.56-1.3,1.01-2.12,1.33c-0.82,0.32-1.73,0.49-2.71,0.49h-4.91V3986.94z M873.25,3986.94v2.56h2.14
			c0.56,0,1.08-0.09,1.55-0.27c0.47-0.18,0.87-0.44,1.2-0.77s0.59-0.73,0.77-1.19c0.19-0.46,0.28-0.97,0.28-1.53v-0.04
			c0-0.55-0.09-1.06-0.28-1.53c-0.19-0.47-0.44-0.87-0.77-1.21s-0.73-0.6-1.2-0.78c-0.47-0.19-0.98-0.28-1.55-0.28h-2.14v2.99h2.81
			v2.05H873.25z"/>
		<path fill="#0063B0" d="M890.68,3992.22c-0.97,0-1.87-0.17-2.68-0.51c-0.82-0.34-1.52-0.8-2.12-1.39s-1.06-1.27-1.39-2.05
			c-0.33-0.79-0.49-1.63-0.49-2.53v-0.04c0-0.9,0.17-1.74,0.5-2.53s0.8-1.48,1.39-2.07c0.59-0.59,1.3-1.06,2.12-1.4
			c0.82-0.34,1.72-0.51,2.69-0.51c0.97,0,1.87,0.17,2.68,0.51c0.82,0.34,1.52,0.8,2.11,1.39c0.59,0.58,1.06,1.27,1.39,2.05
			c0.33,0.79,0.5,1.63,0.5,2.53v0.04c0,0.9-0.17,1.74-0.5,2.53c-0.34,0.79-0.8,1.48-1.39,2.07s-1.3,1.06-2.12,1.4
			C892.54,3992.04,891.65,3992.22,890.68,3992.22z M890.71,3989.66c0.55,0,1.06-0.1,1.53-0.31c0.47-0.2,0.87-0.49,1.2-0.85
			c0.33-0.36,0.59-0.78,0.77-1.25c0.19-0.47,0.28-0.98,0.28-1.52v-0.04c0-0.54-0.09-1.05-0.28-1.53c-0.19-0.48-0.45-0.9-0.79-1.26
			c-0.34-0.36-0.75-0.65-1.21-0.86c-0.47-0.21-0.98-0.31-1.53-0.31c-0.56,0-1.08,0.1-1.54,0.31c-0.46,0.2-0.86,0.49-1.19,0.85
			c-0.33,0.36-0.59,0.78-0.77,1.25c-0.19,0.47-0.28,0.98-0.28,1.52v0.04c0,0.54,0.09,1.05,0.28,1.53c0.19,0.48,0.45,0.9,0.79,1.26
			c0.34,0.36,0.74,0.64,1.21,0.85C889.63,3989.55,890.15,3989.66,890.71,3989.66z M889.4,3975.4h2.59l2.21,2.83h-2.11l-1.42-1.19
			l-1.42,1.19h-2.07L889.4,3975.4z M891.83,3974.25l2.18-1.03l1.64,2.83h-1.87L891.83,3974.25z"/>
		<path fill="#0063B0" d="M899.86,3979.4h2.56l5.9,7.76v-7.76h2.74v12.6h-2.36l-6.1-8.01v8.01h-2.74V3979.4z"/>
		<path fill="#0063B0" d="M920.14,3992.22c-0.98,0-1.88-0.16-2.69-0.49c-0.81-0.32-1.51-0.77-2.09-1.35s-1.03-1.26-1.36-2.05
			c-0.32-0.79-0.49-1.66-0.49-2.59v-0.04c0-0.9,0.16-1.74,0.49-2.53s0.79-1.48,1.38-2.07c0.59-0.59,1.28-1.06,2.09-1.4
			c0.8-0.34,1.69-0.51,2.65-0.51c0.56,0,1.08,0.04,1.54,0.12c0.46,0.08,0.89,0.19,1.29,0.33c0.4,0.14,0.77,0.32,1.12,0.54
			c0.35,0.22,0.68,0.46,1.01,0.74l-1.75,2.11c-0.24-0.2-0.48-0.38-0.72-0.54c-0.24-0.16-0.49-0.29-0.75-0.4s-0.54-0.19-0.84-0.25
			c-0.3-0.06-0.63-0.09-0.99-0.09c-0.5,0-0.97,0.1-1.41,0.31s-0.82,0.49-1.15,0.85c-0.33,0.35-0.59,0.77-0.77,1.24
			c-0.19,0.47-0.28,0.98-0.28,1.52v0.04c0,0.58,0.09,1.11,0.28,1.59c0.19,0.49,0.45,0.91,0.79,1.27c0.34,0.36,0.74,0.64,1.21,0.84
			c0.46,0.2,0.98,0.3,1.54,0.3c1.03,0,1.9-0.25,2.61-0.76v-1.8h-2.79v-2.39h5.47v5.47c-0.65,0.55-1.42,1.02-2.31,1.41
			S921.29,3992.22,920.14,3992.22z"/>
		<path fill="#0063B0" d="M936.52,3981.96h-3.83v-2.56h10.44v2.56h-3.83V3992h-2.77V3981.96z"/>
		<path fill="#0063B0" d="M945.25,3979.4h2.77v4.99h5.11v-4.99h2.77v12.6h-2.77v-5.06h-5.11v5.06h-2.77V3979.4z"/>
		<path fill="#0063B0" d="M963.25,3979.31h2.56l5.4,12.69h-2.9l-1.15-2.83h-5.33l-1.15,2.83h-2.83L963.25,3979.31z M961.36,3976.07
			l2.36-1.03l2,3.19h-2.02L961.36,3976.07z M966.17,3986.73l-1.67-4.09l-1.67,4.09H966.17z"/>
		<path fill="#0063B0" d="M973.15,3979.4h2.56l5.9,7.76v-7.76h2.74v12.6h-2.36l-6.1-8.01v8.01h-2.74V3979.4z"/>
		<path fill="#0063B0" d="M987.37,3979.4h2.77v4.99h5.11v-4.99h2.77v12.6h-2.77v-5.06h-5.11v5.06h-2.77V3979.4z"/>
		<path fill="#0063B0" d="M1005.37,3979.4h3.06l3.29,8.87l3.29-8.87h2.99l-5.09,12.69h-2.45L1005.37,3979.4z"/>
		<path fill="#0063B0" d="M1020.08,3979.4h2.77v12.6h-2.77V3979.4z"/>
		<path fill="#0063B0" d="M1026,3979.4h9.5v2.47h-6.75v2.56h5.94v2.47h-5.94v2.65h6.84v2.47H1026V3979.4z M1029.47,3975.4h2.59
			l2.21,2.83h-2.11l-1.42-1.19l-1.42,1.19h-2.07L1029.47,3975.4z"/>
		<path fill="#0063B0" d="M1038.06,3979.4h2.56l5.9,7.76v-7.76h2.74v12.6h-2.36l-6.1-8.01v8.01h-2.74V3979.4z"/>
	</g>
	<g>
		<path fill="#0063B0" d="M844.58,4114.22c-0.98,0-1.88-0.16-2.69-0.49c-0.81-0.32-1.51-0.77-2.09-1.35s-1.04-1.26-1.36-2.05
			c-0.32-0.79-0.49-1.66-0.49-2.59v-0.04c0-0.9,0.17-1.74,0.5-2.53s0.79-1.48,1.38-2.07c0.59-0.59,1.28-1.06,2.09-1.4
			c0.8-0.34,1.69-0.51,2.65-0.51c0.56,0,1.08,0.04,1.54,0.12c0.46,0.08,0.89,0.19,1.29,0.33c0.4,0.14,0.77,0.32,1.12,0.54
			s0.68,0.46,1.01,0.74l-1.75,2.11c-0.24-0.2-0.48-0.38-0.72-0.54c-0.24-0.16-0.49-0.29-0.75-0.4s-0.54-0.19-0.84-0.25
			c-0.3-0.06-0.63-0.09-0.99-0.09c-0.5,0-0.98,0.1-1.41,0.31c-0.44,0.21-0.82,0.49-1.15,0.85c-0.33,0.35-0.59,0.77-0.77,1.24
			c-0.19,0.47-0.28,0.98-0.28,1.52v0.04c0,0.58,0.09,1.11,0.28,1.59s0.45,0.91,0.79,1.27c0.34,0.36,0.74,0.64,1.21,0.84
			c0.46,0.2,0.97,0.3,1.54,0.3c1.03,0,1.9-0.25,2.61-0.76v-1.8h-2.79v-2.39h5.47v5.47c-0.65,0.55-1.42,1.02-2.31,1.41
			C846.75,4114.02,845.73,4114.22,844.58,4114.22z"/>
		<path fill="#0063B0" d="M852.75,4101.4h2.77v12.6h-2.77V4101.4z"/>
		<path fill="#0063B0" d="M862.99,4101.31h2.56l5.4,12.69h-2.9l-1.15-2.83h-5.33l-1.15,2.83h-2.83L862.99,4101.31z M865.91,4108.73
			l-1.67-4.09l-1.67,4.09H865.91z M865.31,4097.04l2.36,1.03l-2.34,2.16h-2.02L865.31,4097.04z"/>
		<path fill="#0063B0" d="M872.89,4101.4h2.99l3.31,5.33l3.31-5.33h2.99v12.6h-2.75v-8.23l-3.55,5.38h-0.07l-3.51-5.33v8.17h-2.72
			V4101.4z"/>
		<path fill="#0063B0" d="M894.46,4108.94h-1.04v-2.05h1.04v-5.49h4.91c0.98,0,1.89,0.16,2.71,0.48c0.82,0.32,1.53,0.76,2.12,1.32
			c0.59,0.56,1.05,1.23,1.38,1.99c0.32,0.76,0.49,1.59,0.49,2.47v0.04c0,0.89-0.16,1.72-0.49,2.48c-0.32,0.77-0.78,1.43-1.38,2
			c-0.59,0.56-1.3,1.01-2.12,1.33c-0.82,0.32-1.72,0.49-2.71,0.49h-4.91V4108.94z M897.23,4108.94v2.56h2.14
			c0.56,0,1.08-0.09,1.55-0.27c0.47-0.18,0.87-0.44,1.2-0.77s0.59-0.73,0.77-1.19c0.19-0.46,0.28-0.97,0.28-1.53v-0.04
			c0-0.55-0.09-1.06-0.28-1.53c-0.19-0.47-0.44-0.87-0.77-1.21s-0.73-0.6-1.2-0.78c-0.47-0.19-0.98-0.28-1.55-0.28h-2.14v2.99h2.81
			v2.05H897.23z"/>
		<path fill="#0063B0" d="M914.65,4114.22c-0.97,0-1.87-0.17-2.68-0.51c-0.82-0.34-1.52-0.8-2.12-1.39
			c-0.59-0.58-1.06-1.27-1.39-2.05c-0.33-0.79-0.5-1.63-0.5-2.53v-0.04c0-0.9,0.17-1.74,0.5-2.53s0.8-1.48,1.4-2.07
			c0.59-0.59,1.3-1.06,2.12-1.4s1.72-0.51,2.69-0.51s1.87,0.17,2.68,0.51s1.52,0.8,2.12,1.39s1.06,1.27,1.39,2.05
			c0.33,0.79,0.49,1.63,0.49,2.53v0.04c0,0.9-0.17,1.74-0.5,2.53c-0.34,0.79-0.8,1.48-1.39,2.07s-1.3,1.06-2.12,1.4
			C916.52,4114.04,915.62,4114.22,914.65,4114.22z M914.69,4111.66c0.55,0,1.06-0.1,1.53-0.31c0.47-0.2,0.87-0.49,1.2-0.85
			c0.33-0.36,0.59-0.78,0.77-1.25c0.19-0.47,0.28-0.98,0.28-1.52v-0.04c0-0.54-0.09-1.05-0.28-1.53c-0.19-0.48-0.45-0.9-0.79-1.26
			c-0.34-0.36-0.75-0.65-1.21-0.86c-0.47-0.21-0.98-0.31-1.53-0.31c-0.56,0-1.08,0.1-1.54,0.31s-0.86,0.49-1.19,0.85
			c-0.33,0.36-0.59,0.78-0.77,1.25c-0.19,0.47-0.28,0.98-0.28,1.52v0.04c0,0.54,0.09,1.05,0.28,1.53c0.19,0.48,0.45,0.9,0.79,1.26
			c0.34,0.36,0.74,0.64,1.21,0.85S914.12,4111.66,914.69,4111.66z M913.37,4097.4h2.59l2.21,2.83h-2.11l-1.42-1.19l-1.42,1.19h-2.07
			L913.37,4097.4z M918.9,4098.05h-1.87l1.64-2.83l2.18,1.03L918.9,4098.05z"/>
		<path fill="#0063B0" d="M929.74,4114.22c-0.92,0-1.78-0.17-2.57-0.5s-1.48-0.79-2.05-1.38s-1.03-1.27-1.35-2.06
			s-0.49-1.64-0.49-2.54v-0.04c0-0.9,0.16-1.74,0.49-2.53s0.77-1.48,1.35-2.07c0.58-0.59,1.27-1.06,2.07-1.4
			c0.8-0.34,1.69-0.51,2.66-0.51c0.59,0,1.12,0.05,1.61,0.14c0.49,0.1,0.93,0.23,1.32,0.4c0.4,0.17,0.76,0.37,1.1,0.61
			s0.65,0.5,0.94,0.79l-1.76,2.03c-0.49-0.44-0.99-0.79-1.5-1.04c-0.51-0.25-1.08-0.38-1.72-0.38c-0.53,0-1.02,0.1-1.47,0.31
			s-0.84,0.49-1.16,0.85c-0.32,0.36-0.58,0.78-0.76,1.25c-0.18,0.47-0.27,0.98-0.27,1.52v0.04c0,0.54,0.09,1.05,0.27,1.53
			c0.18,0.48,0.43,0.9,0.75,1.26c0.32,0.36,0.7,0.64,1.15,0.85c0.45,0.21,0.95,0.32,1.49,0.32c0.72,0,1.33-0.13,1.83-0.4
			c0.5-0.26,0.99-0.62,1.48-1.08l1.76,1.78c-0.32,0.35-0.66,0.66-1.01,0.94c-0.35,0.28-0.73,0.51-1.14,0.71
			c-0.41,0.2-0.87,0.35-1.36,0.45C930.9,4114.17,930.35,4114.22,929.74,4114.22z"/>
		<path fill="#0063B0" d="M943.05,4108.94h-1.04v-2.05h1.04v-5.49h4.91c0.98,0,1.89,0.16,2.71,0.48c0.82,0.32,1.53,0.76,2.12,1.32
			c0.59,0.56,1.05,1.23,1.38,1.99c0.32,0.76,0.49,1.59,0.49,2.47v0.04c0,0.89-0.16,1.72-0.49,2.48c-0.32,0.77-0.78,1.43-1.38,2
			c-0.59,0.56-1.3,1.01-2.12,1.33c-0.82,0.32-1.72,0.49-2.71,0.49h-4.91V4108.94z M945.83,4108.94v2.56h2.14
			c0.56,0,1.08-0.09,1.55-0.27c0.47-0.18,0.87-0.44,1.2-0.77s0.59-0.73,0.77-1.19c0.19-0.46,0.28-0.97,0.28-1.53v-0.04
			c0-0.55-0.09-1.06-0.28-1.53c-0.19-0.47-0.44-0.87-0.77-1.21s-0.73-0.6-1.2-0.78c-0.47-0.19-0.98-0.28-1.55-0.28h-2.14v2.99h2.81
			v2.05H945.83z"/>
		<path fill="#0063B0" d="M957.26,4101.4h2.77v12.6h-2.77V4101.4z"/>
		<path fill="#0063B0" d="M963.18,4101.4h9.5v2.47h-6.75v2.56h5.94v2.47h-5.94v2.65h6.84v2.47h-9.59V4101.4z M966.65,4097.4h2.59
			l2.21,2.83h-2.11l-1.42-1.19l-1.42,1.19h-2.07L966.65,4097.4z M969.08,4096.25l2.18-1.03l1.64,2.83h-1.87L969.08,4096.25z"/>
		<path fill="#0063B0" d="M980.49,4114.2c-1.69,0-3.02-0.47-4-1.4c-0.97-0.94-1.46-2.33-1.46-4.19v-7.2h2.77v7.13
			c0,1.03,0.24,1.81,0.72,2.33c0.48,0.52,1.14,0.78,2,0.78c0.85,0,1.52-0.25,2-0.76c0.48-0.5,0.72-1.26,0.72-2.27v-7.22h2.77v7.11
			c0,0.96-0.13,1.79-0.39,2.5c-0.26,0.71-0.63,1.3-1.11,1.77c-0.48,0.47-1.06,0.83-1.75,1.06
			C982.1,4114.08,981.33,4114.2,980.49,4114.2z"/>
		<path fill="#0063B0" d="M994.25,4101.4h2.77v4.99h5.11v-4.99h2.77v12.6h-2.77v-5.06h-5.11v5.06h-2.77V4101.4z"/>
		<path fill="#0063B0" d="M1012.25,4101.31h2.56l5.4,12.69h-2.9l-1.15-2.83h-5.33l-1.15,2.83h-2.83L1012.25,4101.31z
			 M1010.36,4098.07l2.36-1.03l2,3.19h-2.02L1010.36,4098.07z M1015.16,4108.73l-1.67-4.09l-1.67,4.09H1015.16z"/>
		<path fill="#0063B0" d="M1022.15,4101.4h2.56l5.9,7.76v-7.76h2.74v12.6h-2.36l-6.1-8.01v8.01h-2.74V4101.4z"/>
		<path fill="#0063B0" d="M1036.37,4101.4h2.77v4.99h5.11v-4.99h2.77v12.6h-2.77v-5.06h-5.11v5.06h-2.77V4101.4z"/>
	</g>
	<g>
		<path fill="#FFFFFF" d="M460.51,4251.4h5.15c0.76,0,1.43,0.1,2.02,0.31c0.59,0.21,1.1,0.51,1.51,0.89
			c0.41,0.38,0.73,0.84,0.95,1.38s0.33,1.12,0.33,1.77v0.04c0,0.73-0.13,1.37-0.4,1.93c-0.26,0.55-0.63,1.01-1.09,1.39
			c-0.46,0.37-1,0.65-1.62,0.84c-0.62,0.19-1.28,0.28-1.99,0.28h-2.11v3.78h-2.77V4251.4z M465.48,4257.75
			c0.7,0,1.24-0.18,1.62-0.55c0.38-0.37,0.58-0.82,0.58-1.36v-0.04c0-0.62-0.2-1.1-0.6-1.42c-0.4-0.32-0.95-0.49-1.65-0.49h-2.14
			v3.85H465.48z"/>
		<path fill="#FFFFFF" d="M472.54,4251.4h2.77v4.99h5.11v-4.99h2.77v12.6h-2.77v-5.06h-5.11v5.06h-2.77V4251.4z"/>
		<path fill="#FFFFFF" d="M492.34,4264.22c-0.97,0-1.87-0.17-2.68-0.51c-0.82-0.34-1.52-0.8-2.12-1.39
			c-0.59-0.58-1.06-1.27-1.39-2.05c-0.33-0.79-0.5-1.63-0.5-2.53v-0.04c0-0.9,0.17-1.74,0.5-2.53s0.8-1.48,1.4-2.07
			c0.59-0.59,1.3-1.06,2.12-1.4c0.82-0.34,1.72-0.51,2.69-0.51s1.87,0.17,2.68,0.51c0.82,0.34,1.52,0.8,2.11,1.39
			c0.59,0.58,1.06,1.27,1.39,2.05c0.33,0.79,0.5,1.63,0.5,2.53v0.04c0,0.9-0.17,1.74-0.5,2.53c-0.34,0.79-0.8,1.48-1.4,2.07
			c-0.59,0.59-1.3,1.06-2.12,1.4C494.21,4264.04,493.31,4264.22,492.34,4264.22z M492.37,4261.66c0.55,0,1.06-0.1,1.53-0.31
			c0.47-0.2,0.87-0.49,1.2-0.85c0.33-0.36,0.59-0.78,0.77-1.25c0.19-0.47,0.28-0.98,0.28-1.52v-0.04c0-0.54-0.09-1.05-0.28-1.53
			c-0.19-0.48-0.45-0.9-0.79-1.26c-0.34-0.36-0.75-0.65-1.21-0.86c-0.47-0.21-0.98-0.31-1.53-0.31c-0.56,0-1.08,0.1-1.54,0.31
			s-0.86,0.49-1.19,0.85c-0.33,0.36-0.59,0.78-0.77,1.25c-0.19,0.47-0.28,0.98-0.28,1.52v0.04c0,0.54,0.09,1.05,0.28,1.53
			c0.19,0.48,0.45,0.9,0.79,1.26c0.34,0.36,0.74,0.64,1.21,0.85S491.81,4261.66,492.37,4261.66z M493.45,4247.04l2.36,1.03
			l-2.34,2.16h-2.02L493.45,4247.04z"/>
		<path fill="#FFFFFF" d="M512.98,4264.22c-0.98,0-1.88-0.16-2.69-0.49c-0.81-0.32-1.51-0.77-2.09-1.35s-1.03-1.26-1.36-2.05
			c-0.32-0.79-0.49-1.66-0.49-2.59v-0.04c0-0.9,0.16-1.74,0.5-2.53c0.33-0.79,0.79-1.48,1.38-2.07c0.59-0.59,1.28-1.06,2.09-1.4
			c0.8-0.34,1.69-0.51,2.65-0.51c0.56,0,1.08,0.04,1.54,0.12c0.46,0.08,0.89,0.19,1.29,0.33c0.4,0.14,0.77,0.32,1.12,0.54
			s0.68,0.46,1.01,0.74l-1.75,2.11c-0.24-0.2-0.48-0.38-0.72-0.54c-0.24-0.16-0.49-0.29-0.75-0.4c-0.26-0.11-0.54-0.19-0.84-0.25
			c-0.3-0.06-0.63-0.09-0.99-0.09c-0.5,0-0.98,0.1-1.41,0.31c-0.44,0.21-0.82,0.49-1.15,0.85c-0.33,0.35-0.59,0.77-0.77,1.24
			c-0.19,0.47-0.28,0.98-0.28,1.52v0.04c0,0.58,0.09,1.11,0.28,1.59s0.45,0.91,0.79,1.27c0.34,0.36,0.74,0.64,1.21,0.84
			c0.46,0.2,0.98,0.3,1.54,0.3c1.03,0,1.9-0.25,2.61-0.76v-1.8h-2.79v-2.39h5.47v5.47c-0.65,0.55-1.42,1.02-2.31,1.41
			S514.13,4264.22,512.98,4264.22z"/>
		<path fill="#FFFFFF" d="M521.57,4258.94h-1.04v-2.05h1.04v-5.49h4.91c0.98,0,1.89,0.16,2.71,0.48c0.82,0.32,1.53,0.76,2.12,1.32
			c0.59,0.56,1.05,1.23,1.38,1.99c0.32,0.76,0.49,1.59,0.49,2.47v0.04c0,0.89-0.16,1.72-0.49,2.48c-0.32,0.77-0.78,1.43-1.38,2
			c-0.59,0.56-1.3,1.01-2.12,1.33c-0.82,0.32-1.73,0.49-2.71,0.49h-4.91V4258.94z M524.34,4258.94v2.56h2.14
			c0.56,0,1.08-0.09,1.55-0.27c0.47-0.18,0.87-0.44,1.2-0.77s0.59-0.73,0.77-1.19c0.19-0.46,0.28-0.97,0.28-1.53v-0.04
			c0-0.55-0.09-1.06-0.28-1.53s-0.44-0.87-0.77-1.21s-0.73-0.6-1.2-0.78c-0.47-0.19-0.98-0.28-1.55-0.28h-2.14v2.99h2.81v2.05
			H524.34z"/>
		<path fill="#FFFFFF" d="M541.04,4251.4h2.77v5.51l5.11-5.51h3.35l-5.13,5.35l5.37,7.25h-3.33l-3.91-5.36l-1.46,1.51v3.85h-2.77
			V4251.4z"/>
		<path fill="#FFFFFF" d="M554.31,4251.4h2.77v12.6h-2.77V4251.4z"/>
		<path fill="#FFFFFF" d="M560.23,4251.4h2.56l5.9,7.76v-7.76h2.74v12.6h-2.36l-6.1-8.01v8.01h-2.74V4251.4z"/>
		<path fill="#FFFFFF" d="M574.45,4251.4h2.77v4.99h5.11v-4.99h2.77v12.6h-2.77v-5.06h-5.11v5.06h-2.77V4251.4z"/>
		<path fill="#FFFFFF" d="M593.53,4251.4h4.91c0.98,0,1.89,0.16,2.71,0.48c0.82,0.32,1.53,0.76,2.12,1.32s1.05,1.23,1.38,1.99
			c0.32,0.76,0.49,1.59,0.49,2.47v0.04c0,0.89-0.16,1.72-0.49,2.48c-0.32,0.77-0.78,1.43-1.38,2c-0.59,0.56-1.3,1.01-2.12,1.33
			c-0.82,0.32-1.73,0.49-2.71,0.49h-4.91V4251.4z M596.3,4253.9v7.6h2.14c0.56,0,1.08-0.09,1.55-0.27c0.47-0.18,0.87-0.44,1.2-0.77
			s0.59-0.73,0.77-1.19c0.19-0.46,0.28-0.97,0.28-1.53v-0.04c0-0.55-0.09-1.06-0.28-1.53c-0.19-0.47-0.44-0.87-0.77-1.21
			s-0.73-0.6-1.2-0.78c-0.47-0.19-0.98-0.28-1.55-0.28H596.3z"/>
		<path fill="#FFFFFF" d="M613.73,4264.22c-0.97,0-1.87-0.17-2.68-0.51c-0.82-0.34-1.52-0.8-2.12-1.39s-1.06-1.27-1.39-2.05
			c-0.33-0.79-0.5-1.63-0.5-2.53v-0.04c0-0.9,0.17-1.74,0.5-2.53s0.8-1.48,1.39-2.07c0.59-0.59,1.3-1.06,2.12-1.4
			c0.82-0.34,1.72-0.51,2.69-0.51s1.87,0.17,2.68,0.51c0.82,0.34,1.52,0.8,2.12,1.39s1.06,1.27,1.39,2.05
			c0.33,0.79,0.5,1.63,0.5,2.53v0.04c0,0.9-0.17,1.74-0.5,2.53c-0.34,0.79-0.8,1.48-1.39,2.07c-0.59,0.59-1.3,1.06-2.12,1.4
			C615.6,4264.04,614.7,4264.22,613.73,4264.22z M613.76,4261.66c0.55,0,1.06-0.1,1.53-0.31c0.47-0.2,0.87-0.49,1.2-0.85
			c0.33-0.36,0.59-0.78,0.77-1.25c0.19-0.47,0.28-0.98,0.28-1.52v-0.04c0-0.54-0.09-1.05-0.28-1.53c-0.19-0.48-0.45-0.9-0.79-1.26
			c-0.34-0.36-0.75-0.65-1.21-0.86s-0.98-0.31-1.53-0.31c-0.56,0-1.08,0.1-1.54,0.31s-0.86,0.49-1.19,0.85
			c-0.33,0.36-0.59,0.78-0.77,1.25c-0.19,0.47-0.28,0.98-0.28,1.52v0.04c0,0.54,0.09,1.05,0.28,1.53c0.19,0.48,0.45,0.9,0.79,1.26
			c0.34,0.36,0.74,0.64,1.21,0.85S613.2,4261.66,613.76,4261.66z"/>
		<path fill="#FFFFFF" d="M626.42,4251.31h2.56l5.4,12.69h-2.9l-1.15-2.83h-5.33l-1.15,2.83h-2.83L626.42,4251.31z M629.33,4258.73
			l-1.67-4.09l-1.67,4.09H629.33z"/>
		<path fill="#FFFFFF" d="M636.32,4251.4h2.56l5.9,7.76v-7.76h2.74v12.6h-2.36l-6.1-8.01v8.01h-2.74V4251.4z"/>
		<path fill="#FFFFFF" d="M650.54,4251.4h2.77v4.99h5.11v-4.99h2.77v12.6h-2.77v-5.06h-5.11v5.06h-2.77V4251.4z"/>
	</g>
	<g>
		<path fill="#FFFFFF" d="M520.62,4354.4h4.97c2.95,0,4.79,1.67,4.79,4.21v0.04c0,2.81-2.25,4.3-5.04,4.3h-2.5v4.05h-2.21V4354.4z
			 M525.41,4360.95c1.67,0,2.72-0.94,2.72-2.25v-0.04c0-1.49-1.06-2.25-2.72-2.25h-2.58v4.54H525.41z"/>
		<path fill="#FFFFFF" d="M532.39,4353.86h2.18v5.11c0.61-0.9,1.49-1.67,2.97-1.67c2.16,0,3.38,1.42,3.38,3.66v6.05h-2.18v-5.4
			c0-1.5-0.74-2.32-2.03-2.32c-1.28,0-2.14,0.86-2.14,2.36v5.37h-2.18V4353.86z"/>
		<path fill="#FFFFFF" d="M543.03,4362.3v-0.04c0-2.72,2.16-4.97,5.08-4.97c2.94,0,5.06,2.21,5.06,4.93v0.04
			c0,2.68-2.16,4.95-5.1,4.95C545.17,4367.22,543.03,4365,543.03,4362.3z M550.99,4362.3v-0.04c0-1.67-1.21-3.06-2.92-3.06
			c-1.75,0-2.86,1.37-2.86,3.02v0.04c0,1.66,1.22,3.06,2.9,3.06C549.89,4365.33,550.99,4363.94,550.99,4362.3z M545.88,4354.22
			l1.98-0.88l1.87,2.95h-1.64L545.88,4354.22z"/>
		<path fill="#FFFFFF" d="M555.38,4357.49h2.18v1.48c0.61-0.9,1.49-1.67,2.97-1.67c2.16,0,3.38,1.42,3.38,3.66v6.05h-2.18v-5.4
			c0-1.5-0.74-2.32-2.04-2.32c-1.28,0-2.14,0.86-2.14,2.36v5.37h-2.18V4357.49z"/>
		<path fill="#FFFFFF" d="M566.52,4368.78l0.81-1.64c1.01,0.63,2.09,1.01,3.39,1.01c1.94,0,3.01-0.99,3.01-2.92v-0.74
			c-0.79,1.03-1.78,1.75-3.35,1.75c-2.23,0-4.32-1.66-4.32-4.45v-0.04c0-2.81,2.09-4.47,4.32-4.47c1.6,0,2.59,0.74,3.33,1.62v-1.42
			h2.18v7.56c0,1.58-0.4,2.77-1.21,3.58c-0.86,0.86-2.18,1.28-3.91,1.28C569.19,4369.92,567.76,4369.54,566.52,4368.78z
			 M573.74,4361.8v-0.04c0-1.57-1.28-2.63-2.79-2.63c-1.51,0-2.7,1.04-2.7,2.61v0.04c0,1.57,1.21,2.63,2.7,2.63
			C572.46,4364.41,573.74,4363.33,573.74,4361.8z"/>
		<path fill="#FFFFFF" d="M584.25,4354.4h4.7c3.96,0,6.7,2.72,6.7,6.27v0.04c0,3.55-2.74,6.3-6.7,6.3h-4.7V4354.4z M588.95,4364.98
			c2.65,0,4.38-1.78,4.38-4.25v-0.04c0-2.47-1.73-4.29-4.38-4.29h-2.48v8.57H588.95z"/>
		<path fill="#FFFFFF" d="M597.97,4363.54v-6.05h2.18v5.4c0,1.5,0.74,2.32,2.04,2.32c1.28,0,2.14-0.86,2.14-2.36v-5.37h1.78
			c0.38-0.11,0.56-0.27,0.56-0.5c0-0.27-0.07-0.85-0.49-1.57h2.09c0.27,1.15,0.27,1.71,0.27,1.87c-0.02,1.1-0.7,1.8-2.04,2.07v7.63
			h-2.18v-1.48c-0.63,0.92-1.51,1.67-2.97,1.67C599.19,4367.2,597.97,4365.78,597.97,4363.54z M601.21,4368.21h2.02v2.25h-2.02
			V4368.21z"/>
		<path fill="#FFFFFF" d="M621.4,4367v-1.17c-0.65,0.77-1.64,1.37-3.08,1.37c-1.8,0-3.38-1.01-3.38-2.93v-0.04
			c0-2.11,1.62-3.12,3.85-3.12c1.15,0,1.89,0.16,2.63,0.4v-0.18c0-1.31-0.83-2.03-2.34-2.03c-1.08,0-1.85,0.23-2.72,0.59l-0.59-1.75
			c1.06-0.49,2.05-0.79,3.62-0.79c2.83,0,4.18,1.48,4.18,4.01v5.64H621.4z M621.46,4363.02c-0.56-0.22-1.33-0.38-2.18-0.38
			c-1.37,0-2.18,0.56-2.18,1.48v0.04c0,0.92,0.81,1.4,1.84,1.4c1.44,0,2.52-0.79,2.52-2V4363.02z M620.21,4353.33l1.98,0.88
			l-2.21,2.07h-1.64L620.21,4353.33z"/>
		<path fill="#FFFFFF" d="M626.15,4357.49h2.18v1.48c0.61-0.9,1.49-1.67,2.97-1.67c2.16,0,3.38,1.42,3.38,3.66v6.05h-2.18v-5.4
			c0-1.5-0.74-2.32-2.03-2.32c-1.28,0-2.14,0.86-2.14,2.36v5.37h-2.18V4357.49z"/>
	</g>
	<g>
		<path fill="#FFFFFF" d="M502.62,4457.4h4.97c2.95,0,4.79,1.67,4.79,4.21v0.04c0,2.81-2.25,4.3-5.04,4.3h-2.5v4.05h-2.21V4457.4z
			 M507.41,4463.95c1.67,0,2.72-0.94,2.72-2.25v-0.04c0-1.49-1.06-2.25-2.72-2.25h-2.58v4.54H507.41z"/>
		<path fill="#FFFFFF" d="M514.39,4456.86h2.18v5.11c0.61-0.9,1.49-1.67,2.97-1.67c2.16,0,3.38,1.42,3.38,3.66v6.05h-2.18v-5.4
			c0-1.5-0.74-2.32-2.03-2.32c-1.28,0-2.14,0.86-2.14,2.36v5.37h-2.18V4456.86z"/>
		<path fill="#FFFFFF" d="M525.03,4465.3v-0.04c0-2.72,2.16-4.97,5.08-4.97c2.94,0,5.06,2.21,5.06,4.93v0.04
			c0,2.68-2.16,4.95-5.1,4.95C527.17,4470.22,525.03,4468,525.03,4465.3z M532.99,4465.3v-0.04c0-1.67-1.21-3.06-2.92-3.06
			c-1.75,0-2.86,1.37-2.86,3.02v0.04c0,1.66,1.22,3.06,2.9,3.06C531.89,4468.33,532.99,4466.94,532.99,4465.3z M527.88,4457.22
			l1.98-0.88l1.87,2.95h-1.64L527.88,4457.22z"/>
		<path fill="#FFFFFF" d="M537.38,4460.49h2.18v1.48c0.61-0.9,1.49-1.67,2.97-1.67c2.16,0,3.38,1.42,3.38,3.66v6.05h-2.18v-5.4
			c0-1.5-0.74-2.32-2.04-2.32c-1.28,0-2.14,0.86-2.14,2.36v5.37h-2.18V4460.49z"/>
		<path fill="#FFFFFF" d="M548.52,4471.78l0.81-1.64c1.01,0.63,2.09,1.01,3.39,1.01c1.94,0,3.01-0.99,3.01-2.92v-0.74
			c-0.79,1.03-1.78,1.75-3.35,1.75c-2.23,0-4.32-1.66-4.32-4.45v-0.04c0-2.81,2.09-4.47,4.32-4.47c1.6,0,2.59,0.74,3.33,1.62v-1.42
			h2.18v7.56c0,1.58-0.4,2.77-1.21,3.58c-0.86,0.86-2.18,1.28-3.91,1.28C551.19,4472.92,549.76,4472.54,548.52,4471.78z
			 M555.74,4464.8v-0.04c0-1.57-1.28-2.63-2.79-2.63c-1.51,0-2.7,1.04-2.7,2.61v0.04c0,1.57,1.21,2.63,2.7,2.63
			C554.46,4467.41,555.74,4466.33,555.74,4464.8z"/>
		<path fill="#FFFFFF" d="M566.25,4457.4h2.36l3.83,5.96l3.84-5.96h2.36v12.6h-2.21v-9.04l-3.98,5.94h-0.07l-3.94-5.91v9h-2.18
			V4457.4z"/>
		<path fill="#FFFFFF" d="M587.44,4470v-1.17c-0.65,0.77-1.64,1.37-3.08,1.37c-1.8,0-3.38-1.01-3.38-2.93v-0.04
			c0-2.11,1.62-3.12,3.85-3.12c1.15,0,1.89,0.16,2.63,0.4v-0.18c0-1.31-0.83-2.03-2.34-2.03c-1.08,0-1.86,0.23-2.72,0.59l-0.59-1.75
			c1.06-0.49,2.05-0.79,3.62-0.79c2.83,0,4.18,1.48,4.18,4.01v5.64H587.44z M587.49,4466.02c-0.56-0.22-1.33-0.38-2.18-0.38
			c-1.37,0-2.18,0.56-2.18,1.48v0.04c0,0.92,0.81,1.4,1.84,1.4c1.44,0,2.52-0.79,2.52-2V4466.02z"/>
		<path fill="#FFFFFF" d="M592.19,4460.49h2.18v2.14c0.59-1.44,1.69-2.39,3.37-2.32v2.3h-0.13c-1.93,0-3.24,1.24-3.24,3.76v3.62
			h-2.18V4460.49z"/>
		<path fill="#FFFFFF" d="M599.62,4456.86h2.18v7.85l3.94-4.21h2.65l-3.78,3.87l3.91,5.64H606l-2.86-4.11l-1.33,1.39v2.72h-2.18
			V4456.86z"/>
		<path fill="#FFFFFF" d="M609.58,4465.28v-0.04c0-2.74,1.93-4.95,4.65-4.95c3.03,0,4.55,2.38,4.55,5.11c0,0.2-0.02,0.4-0.04,0.61
			h-6.99c0.23,1.57,1.31,2.41,2.74,2.41c1.08,0,1.8-0.4,2.58-1.13l1.28,1.13c-0.92,1.08-2.14,1.78-3.89,1.78
			C611.72,4470.22,609.58,4468.22,609.58,4465.28z M616.62,4464.58c-0.14-1.39-0.97-2.5-2.41-2.5c-1.35,0-2.27,1.01-2.47,2.5H616.62
			z"/>
		<path fill="#FFFFFF" d="M621.42,4467.37v-5.01h-1.21v-1.87h1.21v-2.61h2.18v2.61h2.56v1.87h-2.56v4.66c0,0.85,0.43,1.19,1.17,1.19
			c0.47,0,0.92-0.11,1.35-0.32v1.78c-0.56,0.31-1.15,0.49-1.96,0.49C622.55,4470.16,621.42,4469.46,621.42,4467.37z"/>
		<path fill="#FFFFFF" d="M628.38,4456.96h2.34v2.07h-2.34V4456.96z M628.47,4460.49h2.18v9.51h-2.18V4460.49z"/>
		<path fill="#FFFFFF" d="M633.5,4460.49h2.18v1.48c0.61-0.9,1.49-1.67,2.97-1.67c2.16,0,3.38,1.42,3.38,3.66v6.05h-2.18v-5.4
			c0-1.5-0.74-2.32-2.03-2.32c-1.28,0-2.14,0.86-2.14,2.36v5.37h-2.18V4460.49z"/>
		<path fill="#FFFFFF" d="M644.64,4471.78l0.81-1.64c1.01,0.63,2.09,1.01,3.38,1.01c1.94,0,3.01-0.99,3.01-2.92v-0.74
			c-0.79,1.03-1.78,1.75-3.35,1.75c-2.23,0-4.32-1.66-4.32-4.45v-0.04c0-2.81,2.09-4.47,4.32-4.47c1.6,0,2.59,0.74,3.33,1.62v-1.42
			H654v7.56c0,1.58-0.4,2.77-1.21,3.58c-0.86,0.86-2.18,1.28-3.91,1.28C647.3,4472.92,645.88,4472.54,644.64,4471.78z
			 M651.86,4464.8v-0.04c0-1.57-1.28-2.63-2.79-2.63c-1.51,0-2.7,1.04-2.7,2.61v0.04c0,1.57,1.21,2.63,2.7,2.63
			C650.58,4467.41,651.86,4466.33,651.86,4464.8z"/>
	</g>
	<g>
		<path fill="#FFFFFF" d="M496.62,4560.4h4.97c2.95,0,4.79,1.67,4.79,4.21v0.04c0,2.81-2.25,4.3-5.04,4.3h-2.5v4.05h-2.21V4560.4z
			 M501.41,4566.95c1.67,0,2.72-0.94,2.72-2.25v-0.04c0-1.49-1.06-2.25-2.72-2.25h-2.58v4.54H501.41z"/>
		<path fill="#FFFFFF" d="M508.39,4559.86h2.18v5.11c0.61-0.9,1.49-1.67,2.97-1.67c2.16,0,3.38,1.42,3.38,3.66v6.05h-2.18v-5.4
			c0-1.5-0.74-2.32-2.03-2.32c-1.28,0-2.14,0.86-2.14,2.36v5.37h-2.18V4559.86z"/>
		<path fill="#FFFFFF" d="M519.03,4568.3v-0.04c0-2.72,2.16-4.97,5.08-4.97c2.94,0,5.06,2.21,5.06,4.93v0.04
			c0,2.68-2.16,4.95-5.1,4.95C521.17,4573.22,519.03,4571,519.03,4568.3z M526.99,4568.3v-0.04c0-1.67-1.21-3.06-2.92-3.06
			c-1.75,0-2.86,1.37-2.86,3.02v0.04c0,1.66,1.22,3.06,2.9,3.06C525.89,4571.33,526.99,4569.94,526.99,4568.3z M521.88,4560.22
			l1.98-0.88l1.87,2.95h-1.64L521.88,4560.22z"/>
		<path fill="#FFFFFF" d="M531.38,4563.49h2.18v1.48c0.61-0.9,1.49-1.67,2.97-1.67c2.16,0,3.38,1.42,3.38,3.66v6.05h-2.18v-5.4
			c0-1.5-0.74-2.32-2.03-2.32c-1.28,0-2.14,0.86-2.14,2.36v5.37h-2.18V4563.49z"/>
		<path fill="#FFFFFF" d="M542.52,4574.78l0.81-1.64c1.01,0.63,2.09,1.01,3.39,1.01c1.94,0,3.01-0.99,3.01-2.92v-0.74
			c-0.79,1.03-1.78,1.75-3.35,1.75c-2.23,0-4.32-1.66-4.32-4.45v-0.04c0-2.81,2.09-4.47,4.32-4.47c1.6,0,2.59,0.74,3.33,1.62v-1.42
			h2.18v7.56c0,1.58-0.4,2.77-1.21,3.58c-0.86,0.86-2.18,1.28-3.91,1.28C545.19,4575.92,543.76,4575.54,542.52,4574.78z
			 M549.74,4567.8v-0.04c0-1.57-1.28-2.63-2.79-2.63c-1.51,0-2.7,1.04-2.7,2.61v0.04c0,1.57,1.21,2.63,2.7,2.63
			C548.46,4570.41,549.74,4569.33,549.74,4567.8z"/>
		<path fill="#FFFFFF" d="M560.25,4560.4h2.21v6.34l6-6.34h2.72l-5.24,5.42l5.47,7.18h-2.68l-4.3-5.67l-1.96,2.02v3.66h-2.21V4560.4
			z"/>
		<path fill="#FFFFFF" d="M573.08,4559.96h2.34v2.07h-2.34V4559.96z M573.17,4563.49h2.18v9.51h-2.18V4563.49z"/>
		<path fill="#FFFFFF" d="M578.2,4563.49h2.18v1.48c0.61-0.9,1.5-1.67,2.97-1.67c2.16,0,3.38,1.42,3.38,3.66v6.05h-2.18v-5.4
			c0-1.5-0.74-2.32-2.03-2.32c-1.28,0-2.14,0.86-2.14,2.36v5.37h-2.18V4563.49z"/>
		<path fill="#FFFFFF" d="M589.36,4559.86h2.18v5.11c0.61-0.9,1.5-1.67,2.97-1.67c2.16,0,3.38,1.42,3.38,3.66v6.05h-2.18v-5.4
			c0-1.5-0.74-2.32-2.03-2.32c-1.28,0-2.14,0.86-2.14,2.36v5.37h-2.18V4559.86z"/>
		<path fill="#FFFFFF" d="M605.43,4568.26v-0.04c0-3.17,2.14-4.93,4.41-4.93c1.57,0,2.54,0.79,3.24,1.67v-5.11h2.18V4573h-2.18
			v-1.58c-0.7,0.99-1.71,1.78-3.24,1.78C607.61,4573.2,605.43,4571.43,605.43,4568.26z M613.12,4568.26v-0.04
			c0-1.84-1.3-3.04-2.75-3.04c-1.5,0-2.74,1.15-2.74,3.04v0.04c0,1.84,1.24,3.04,2.74,3.04
			C611.82,4571.31,613.12,4570.08,613.12,4568.26z"/>
		<path fill="#FFFFFF" d="M617.45,4568.3v-0.04c0-2.72,2.16-4.97,5.08-4.97c2.93,0,5.06,2.21,5.06,4.93v0.04
			c0,2.68-2.16,4.95-5.1,4.95C619.6,4573.22,617.45,4571,617.45,4568.3z M625.41,4568.3v-0.04c0-1.67-1.21-3.06-2.92-3.06
			c-1.75,0-2.86,1.37-2.86,3.02v0.04c0,1.66,1.22,3.06,2.9,3.06C624.31,4571.33,625.41,4569.94,625.41,4568.3z"/>
		<path fill="#FFFFFF" d="M635.62,4573v-1.17c-0.65,0.77-1.64,1.37-3.08,1.37c-1.8,0-3.39-1.01-3.39-2.93v-0.04
			c0-2.11,1.62-3.12,3.85-3.12c1.15,0,1.89,0.16,2.63,0.4v-0.18c0-1.31-0.83-2.03-2.34-2.03c-1.08,0-1.85,0.23-2.72,0.59l-0.59-1.75
			c1.06-0.49,2.05-0.79,3.62-0.79c2.83,0,4.18,1.48,4.18,4.01v5.64H635.62z M635.67,4569.02c-0.56-0.22-1.33-0.38-2.18-0.38
			c-1.37,0-2.18,0.56-2.18,1.48v0.04c0,0.92,0.81,1.4,1.84,1.4c1.44,0,2.52-0.79,2.52-2V4569.02z"/>
		<path fill="#FFFFFF" d="M640.37,4563.49h2.18v1.48c0.61-0.9,1.49-1.67,2.97-1.67c2.16,0,3.38,1.42,3.38,3.66v6.05h-2.18v-5.4
			c0-1.5-0.74-2.32-2.03-2.32c-1.28,0-2.14,0.86-2.14,2.36v5.37h-2.18V4563.49z"/>
		<path fill="#FFFFFF" d="M651.53,4559.86h2.18v5.11c0.61-0.9,1.49-1.67,2.97-1.67c2.16,0,3.39,1.42,3.39,3.66v6.05h-2.18v-5.4
			c0-1.5-0.74-2.32-2.04-2.32c-1.28,0-2.14,0.86-2.14,2.36v5.37h-2.18V4559.86z"/>
	</g>
	<g>
		<path fill="#FFFFFF" d="M855.51,4251.4h5.15c0.76,0,1.43,0.1,2.03,0.31c0.59,0.21,1.1,0.51,1.51,0.89
			c0.41,0.38,0.73,0.84,0.95,1.38c0.22,0.53,0.33,1.12,0.33,1.77v0.04c0,0.73-0.13,1.37-0.4,1.93c-0.26,0.55-0.63,1.01-1.09,1.39
			c-0.46,0.37-1,0.65-1.62,0.84c-0.62,0.19-1.28,0.28-1.99,0.28h-2.11v3.78h-2.77V4251.4z M860.48,4257.75
			c0.7,0,1.24-0.18,1.62-0.55c0.38-0.37,0.58-0.82,0.58-1.36v-0.04c0-0.62-0.2-1.1-0.6-1.42c-0.4-0.32-0.95-0.49-1.65-0.49h-2.14
			v3.85H860.48z"/>
		<path fill="#FFFFFF" d="M867.54,4251.4h2.77v4.99h5.11v-4.99h2.77v12.6h-2.77v-5.06h-5.11v5.06h-2.77V4251.4z"/>
		<path fill="#FFFFFF" d="M887.34,4264.22c-0.97,0-1.87-0.17-2.68-0.51s-1.52-0.8-2.12-1.39s-1.06-1.27-1.39-2.05
			c-0.33-0.79-0.5-1.63-0.5-2.53v-0.04c0-0.9,0.17-1.74,0.5-2.53s0.8-1.48,1.39-2.07c0.59-0.59,1.3-1.06,2.12-1.4
			c0.82-0.34,1.72-0.51,2.69-0.51s1.87,0.17,2.68,0.51c0.82,0.34,1.52,0.8,2.11,1.39c0.59,0.58,1.06,1.27,1.39,2.05
			c0.33,0.79,0.5,1.63,0.5,2.53v0.04c0,0.9-0.17,1.74-0.5,2.53c-0.34,0.79-0.8,1.48-1.4,2.07c-0.59,0.59-1.3,1.06-2.12,1.4
			S888.31,4264.22,887.34,4264.22z M887.37,4261.66c0.55,0,1.06-0.1,1.53-0.31c0.47-0.2,0.87-0.49,1.2-0.85
			c0.33-0.36,0.59-0.78,0.77-1.25c0.19-0.47,0.28-0.98,0.28-1.52v-0.04c0-0.54-0.09-1.05-0.28-1.53c-0.19-0.48-0.45-0.9-0.79-1.26
			c-0.34-0.36-0.75-0.65-1.21-0.86s-0.98-0.31-1.53-0.31c-0.56,0-1.08,0.1-1.54,0.31s-0.86,0.49-1.19,0.85
			c-0.33,0.36-0.59,0.78-0.77,1.25c-0.19,0.47-0.28,0.98-0.28,1.52v0.04c0,0.54,0.09,1.05,0.28,1.53c0.19,0.48,0.45,0.9,0.79,1.26
			c0.34,0.36,0.74,0.64,1.21,0.85S886.81,4261.66,887.37,4261.66z M888.45,4247.04l2.36,1.03l-2.34,2.16h-2.02L888.45,4247.04z"/>
		<path fill="#FFFFFF" d="M907.98,4264.22c-0.98,0-1.88-0.16-2.69-0.49c-0.81-0.32-1.51-0.77-2.09-1.35s-1.03-1.26-1.36-2.05
			s-0.49-1.66-0.49-2.59v-0.04c0-0.9,0.16-1.74,0.5-2.53c0.33-0.79,0.79-1.48,1.38-2.07c0.59-0.59,1.28-1.06,2.09-1.4
			s1.69-0.51,2.65-0.51c0.56,0,1.08,0.04,1.54,0.12c0.46,0.08,0.89,0.19,1.29,0.33c0.4,0.14,0.77,0.32,1.12,0.54
			s0.68,0.46,1.01,0.74l-1.75,2.11c-0.24-0.2-0.48-0.38-0.72-0.54c-0.24-0.16-0.49-0.29-0.75-0.4c-0.26-0.11-0.54-0.19-0.84-0.25
			c-0.3-0.06-0.63-0.09-0.99-0.09c-0.5,0-0.97,0.1-1.41,0.31c-0.44,0.21-0.82,0.49-1.15,0.85c-0.33,0.35-0.59,0.77-0.77,1.24
			c-0.19,0.47-0.28,0.98-0.28,1.52v0.04c0,0.58,0.09,1.11,0.28,1.59s0.45,0.91,0.79,1.27c0.34,0.36,0.74,0.64,1.21,0.84
			c0.46,0.2,0.98,0.3,1.54,0.3c1.03,0,1.9-0.25,2.61-0.76v-1.8h-2.79v-2.39h5.47v5.47c-0.65,0.55-1.42,1.02-2.31,1.41
			C910.16,4264.02,909.13,4264.22,907.98,4264.22z"/>
		<path fill="#FFFFFF" d="M916.57,4258.94h-1.04v-2.05h1.04v-5.49h4.91c0.98,0,1.89,0.16,2.71,0.48c0.82,0.32,1.53,0.76,2.12,1.32
			s1.05,1.23,1.38,1.99c0.32,0.76,0.49,1.59,0.49,2.47v0.04c0,0.89-0.16,1.72-0.49,2.48c-0.32,0.77-0.78,1.43-1.38,2
			c-0.59,0.56-1.3,1.01-2.12,1.33c-0.82,0.32-1.73,0.49-2.71,0.49h-4.91V4258.94z M919.34,4258.94v2.56h2.14
			c0.56,0,1.08-0.09,1.55-0.27c0.47-0.18,0.87-0.44,1.2-0.77s0.59-0.73,0.77-1.19c0.19-0.46,0.28-0.97,0.28-1.53v-0.04
			c0-0.55-0.09-1.06-0.28-1.53c-0.19-0.47-0.44-0.87-0.77-1.21s-0.73-0.6-1.2-0.78c-0.47-0.19-0.98-0.28-1.55-0.28h-2.14v2.99h2.81
			v2.05H919.34z"/>
		<path fill="#FFFFFF" d="M936.58,4258.94h-1.04v-2.05h1.04v-5.49h4.91c0.98,0,1.89,0.16,2.71,0.48c0.82,0.32,1.53,0.76,2.12,1.32
			s1.05,1.23,1.38,1.99c0.32,0.76,0.49,1.59,0.49,2.47v0.04c0,0.89-0.16,1.72-0.49,2.48c-0.32,0.77-0.78,1.43-1.38,2
			c-0.59,0.56-1.3,1.01-2.12,1.33c-0.82,0.32-1.73,0.49-2.71,0.49h-4.91V4258.94z M939.36,4258.94v2.56h2.14
			c0.56,0,1.08-0.09,1.55-0.27c0.47-0.18,0.87-0.44,1.2-0.77s0.59-0.73,0.77-1.19c0.19-0.46,0.28-0.97,0.28-1.53v-0.04
			c0-0.55-0.09-1.06-0.28-1.53c-0.19-0.47-0.44-0.87-0.77-1.21s-0.73-0.6-1.2-0.78c-0.47-0.19-0.98-0.28-1.55-0.28h-2.14v2.99h2.81
			v2.05H939.36z"/>
		<path fill="#FFFFFF" d="M950.79,4251.4h2.77v12.6h-2.77V4251.4z"/>
		<path fill="#FFFFFF" d="M956.71,4251.4h9.5v2.47h-6.75v2.56h5.94v2.47h-5.94v2.65h6.84v2.47h-9.59V4251.4z M960.18,4247.4h2.59
			l2.21,2.83h-2.11l-1.42-1.19l-1.42,1.19h-2.07L960.18,4247.4z M962.61,4246.25l2.18-1.03l1.64,2.83h-1.87L962.61,4246.25z"/>
		<path fill="#FFFFFF" d="M974.02,4264.2c-1.69,0-3.02-0.47-4-1.4c-0.97-0.94-1.46-2.33-1.46-4.19v-7.2h2.77v7.13
			c0,1.03,0.24,1.81,0.72,2.33c0.48,0.52,1.15,0.78,2,0.78s1.52-0.25,2-0.76s0.72-1.26,0.72-2.27v-7.22h2.77v7.11
			c0,0.96-0.13,1.79-0.39,2.5s-0.63,1.3-1.11,1.77s-1.06,0.83-1.75,1.06C975.62,4264.08,974.86,4264.2,974.02,4264.2z"/>
		<path fill="#FFFFFF" d="M987.78,4251.4h2.77v4.99h5.11v-4.99h2.77v12.6h-2.77v-5.06h-5.11v5.06h-2.77V4251.4z"/>
		<path fill="#FFFFFF" d="M1005.77,4251.31h2.56l5.4,12.69h-2.9l-1.15-2.83h-5.33l-1.15,2.83h-2.83L1005.77,4251.31z
			 M1003.88,4248.07l2.36-1.03l2,3.19h-2.02L1003.88,4248.07z M1008.69,4258.73l-1.67-4.09l-1.67,4.09H1008.69z"/>
		<path fill="#FFFFFF" d="M1015.67,4251.4h2.56l5.9,7.76v-7.76h2.74v12.6h-2.36l-6.1-8.01v8.01h-2.74V4251.4z"/>
		<path fill="#FFFFFF" d="M1029.89,4251.4h2.77v4.99h5.11v-4.99h2.77v12.6h-2.77v-5.06h-5.11v5.06h-2.77V4251.4z"/>
	</g>
	<g>
		<path fill="#FFFFFF" d="M877.62,4341.4h4.97c2.95,0,4.79,1.67,4.79,4.21v0.04c0,2.81-2.25,4.3-5.04,4.3h-2.5v4.05h-2.21V4341.4z
			 M882.41,4347.95c1.67,0,2.72-0.94,2.72-2.25v-0.04c0-1.49-1.06-2.25-2.72-2.25h-2.58v4.54H882.41z"/>
		<path fill="#FFFFFF" d="M887.45,4351.53h2.4v2.47h-2.4V4351.53z"/>
		<path fill="#FFFFFF" d="M898.09,4341.4h2.21v6.34l6-6.34h2.72l-5.24,5.42l5.47,7.18h-2.68l-4.3-5.67l-1.96,2.02v3.66h-2.21V4341.4
			z"/>
		<path fill="#FFFFFF" d="M910.58,4356.36l0.74-1.62c0.41,0.22,0.83,0.36,1.28,0.36c0.63,0,0.99-0.25,1.35-1.1l-3.96-9.51h2.32
			l2.7,7.06l2.47-7.06h2.27l-3.78,9.78c-0.76,1.94-1.6,2.66-3.13,2.66C911.91,4356.93,911.24,4356.72,910.58,4356.36z
			 M911.6,4343.09c0.41-1.44,0.92-2.23,2.02-2.23c1.01,0,1.94,0.72,2.59,0.72c0.52,0,0.72-0.27,0.99-0.9l1.21,0.36
			c-0.41,1.46-0.92,2.25-2.02,2.25c-0.99,0-1.96-0.72-2.59-0.72c-0.52,0-0.72,0.27-0.99,0.9L911.6,4343.09z"/>
		<path fill="#FFFFFF" d="M927.46,4351.37v-5.01h-1.21v-1.87h1.21v-2.61h2.18v2.61h2.56v1.87h-2.56v4.66c0,0.85,0.43,1.19,1.17,1.19
			c0.47,0,0.92-0.11,1.35-0.32v1.78c-0.56,0.31-1.15,0.49-1.96,0.49C928.6,4354.16,927.46,4353.46,927.46,4351.37z"/>
		<path fill="#FFFFFF" d="M934.39,4340.86h2.18v5.11c0.61-0.9,1.49-1.67,2.97-1.67c2.16,0,3.38,1.42,3.38,3.66v6.05h-2.18v-5.4
			c0-1.5-0.74-2.32-2.03-2.32c-1.28,0-2.14,0.86-2.14,2.36v5.37h-2.18V4340.86z"/>
		<path fill="#FFFFFF" d="M945.44,4350.54v-6.05h2.18v5.4c0,1.5,0.74,2.32,2.03,2.32c1.28,0,2.14-0.86,2.14-2.36v-5.37h2.18v9.51
			h-2.18v-1.48c-0.63,0.92-1.51,1.67-2.97,1.67C946.67,4354.2,945.44,4352.78,945.44,4350.54z"/>
		<path fill="#FFFFFF" d="M962.53,4354v-1.17c-0.65,0.77-1.64,1.37-3.08,1.37c-1.8,0-3.39-1.01-3.39-2.93v-0.04
			c0-2.11,1.62-3.12,3.85-3.12c1.15,0,1.89,0.16,2.63,0.4v-0.18c0-1.31-0.83-2.03-2.34-2.03c-1.08,0-1.85,0.23-2.72,0.59l-0.59-1.75
			c1.06-0.49,2.05-0.79,3.62-0.79c2.83,0,4.18,1.48,4.18,4.01v5.64H962.53z M959.75,4340.64h2.02l2.11,2.65h-1.73l-1.4-1.21
			l-1.39,1.21h-1.69L959.75,4340.64z M962.58,4350.02c-0.56-0.22-1.33-0.38-2.18-0.38c-1.37,0-2.18,0.56-2.18,1.48v0.04
			c0,0.92,0.81,1.4,1.84,1.4c1.44,0,2.52-0.79,2.52-2V4350.02z M959.65,4355.21h2.02v2.25h-2.02V4355.21z"/>
		<path fill="#FFFFFF" d="M967.73,4351.37v-5.01h-1.21v-1.87h1.21v-2.61h2.18v2.61h2.56v1.87h-2.56v4.66c0,0.85,0.43,1.19,1.17,1.19
			c0.47,0,0.92-0.11,1.35-0.32v1.78c-0.56,0.31-1.15,0.49-1.96,0.49C968.86,4354.16,967.73,4353.46,967.73,4351.37z"/>
		<path fill="#FFFFFF" d="M980.18,4340.86h2.18V4354h-2.18V4340.86z"/>
		<path fill="#FFFFFF" d="M991.02,4354v-1.17c-0.65,0.77-1.64,1.37-3.08,1.37c-1.8,0-3.38-1.01-3.38-2.93v-0.04
			c0-2.11,1.62-3.12,3.85-3.12c1.15,0,1.89,0.16,2.63,0.4v-0.18c0-1.31-0.83-2.03-2.34-2.03c-1.08,0-1.85,0.23-2.72,0.59l-0.59-1.75
			c1.06-0.49,2.05-0.79,3.62-0.79c2.83,0,4.18,1.48,4.18,4.01v5.64H991.02z M986.46,4340.71h1.49c0.22,0.65,0.67,1.1,1.58,1.1
			c0.92,0,1.37-0.45,1.58-1.1h1.51c-0.14,1.66-1.37,2.61-3.1,2.61S986.59,4342.37,986.46,4340.71z M991.07,4350.02
			c-0.56-0.22-1.33-0.38-2.18-0.38c-1.37,0-2.18,0.56-2.18,1.48v0.04c0,0.92,0.81,1.4,1.84,1.4c1.44,0,2.52-0.79,2.52-2V4350.02z
			 M990.37,4337.74l1.98,0.88l-2.21,2.07h-1.64L990.37,4337.74z"/>
		<path fill="#FFFFFF" d="M995.77,4344.49h2.18v1.58c0.7-1.01,1.69-1.78,3.22-1.78c2.23,0,4.43,1.76,4.43,4.93v0.04
			c0,3.17-2.16,4.93-4.43,4.93c-1.57,0-2.56-0.79-3.22-1.67v4.36h-2.18V4344.49z M1003.39,4349.26v-0.04c0-1.84-1.22-3.04-2.72-3.04
			s-2.77,1.22-2.77,3.04v0.04c0,1.84,1.28,3.04,2.77,3.04S1003.39,4351.14,1003.39,4349.26z"/>
		<path fill="#FFFFFF" d="M1017.44,4341.86h2.95v-1.01h2.18v1.01h1.24v1.31h-1.24V4354h-2.18v-1.58c-0.7,0.99-1.71,1.78-3.24,1.78
			c-2.23,0-4.41-1.76-4.41-4.93v-0.04c0-3.17,2.14-4.93,4.41-4.93c1.57,0,2.54,0.79,3.24,1.67v-2.79h-2.95V4341.86z
			 M1020.43,4349.26v-0.04c0-1.84-1.3-3.04-2.75-3.04c-1.49,0-2.74,1.15-2.74,3.04v0.04c0,1.84,1.24,3.04,2.74,3.04
			C1019.14,4352.31,1020.43,4351.08,1020.43,4349.26z"/>
		<path fill="#FFFFFF" d="M1031.12,4354v-1.17c-0.65,0.77-1.64,1.37-3.08,1.37c-1.8,0-3.38-1.01-3.38-2.93v-0.04
			c0-2.11,1.62-3.12,3.85-3.12c1.15,0,1.89,0.16,2.63,0.4v-0.18c0-1.31-0.83-2.03-2.34-2.03c-1.08,0-1.85,0.23-2.72,0.59l-0.59-1.75
			c1.06-0.49,2.05-0.79,3.62-0.79c2.83,0,4.18,1.48,4.18,4.01v5.64H1031.12z M1026.57,4340.71h1.49c0.22,0.65,0.67,1.1,1.58,1.1
			c0.92,0,1.37-0.45,1.58-1.1h1.51c-0.14,1.66-1.37,2.61-3.1,2.61S1026.69,4342.37,1026.57,4340.71z M1031.18,4350.02
			c-0.56-0.22-1.33-0.38-2.18-0.38c-1.37,0-2.18,0.56-2.18,1.48v0.04c0,0.92,0.81,1.4,1.84,1.4c1.44,0,2.52-0.79,2.52-2V4350.02z
			 M1028.24,4355.21h2.02v2.25h-2.02V4355.21z"/>
		<path fill="#FFFFFF" d="M1036.32,4351.37v-5.01h-1.21v-1.87h1.21v-2.61h2.18v2.61h2.56v1.87h-2.56v4.66
			c0,0.85,0.43,1.19,1.17,1.19c0.47,0,0.92-0.11,1.35-0.32v1.78c-0.56,0.31-1.15,0.49-1.96,0.49
			C1037.46,4354.16,1036.32,4353.46,1036.32,4351.37z"/>
	</g>
	<g>
		<path fill="#FFFFFF" d="M876.47,4369.49h2.34l2.56,6.99l2.58-6.99h2.29l-3.89,9.58h-1.96L876.47,4369.49z"/>
		<path fill="#FFFFFF" d="M893.89,4379v-1.17c-0.65,0.77-1.64,1.37-3.08,1.37c-1.8,0-3.39-1.01-3.39-2.93v-0.04
			c0-2.11,1.62-3.12,3.85-3.12c1.15,0,1.89,0.16,2.63,0.4v-0.18c0-1.31-0.83-2.03-2.34-2.03c-1.08,0-1.85,0.23-2.72,0.59l-0.59-1.75
			c1.06-0.49,2.05-0.79,3.62-0.79c2.83,0,4.18,1.48,4.18,4.01v5.64H893.89z M893.95,4375.02c-0.56-0.22-1.33-0.38-2.18-0.38
			c-1.37,0-2.18,0.56-2.18,1.48v0.04c0,0.92,0.81,1.4,1.84,1.4c1.44,0,2.52-0.79,2.52-2V4375.02z M889.75,4366.22l1.98-0.88
			l1.87,2.95h-1.64L889.75,4366.22z"/>
		<path fill="#FFFFFF" d="M903.56,4374.26v-0.04c0-3.17,2.14-4.93,4.41-4.93c1.57,0,2.54,0.79,3.24,1.67v-5.11h2.18V4379h-2.18
			v-1.58c-0.7,0.99-1.71,1.78-3.24,1.78C905.74,4379.2,903.56,4377.43,903.56,4374.26z M911.25,4374.26v-0.04
			c0-1.84-1.3-3.04-2.75-3.04c-1.5,0-2.74,1.15-2.74,3.04v0.04c0,1.84,1.24,3.04,2.74,3.04
			C909.95,4377.31,911.25,4376.08,911.25,4374.26z"/>
		<path fill="#FFFFFF" d="M916.14,4365.96h2.34v2.07h-2.34V4365.96z M916.23,4369.49h2.18v9.51h-2.18V4369.49z M916.34,4380.21h2.02
			v2.25h-2.02V4380.21z"/>
		<path fill="#FFFFFF" d="M920.73,4374.3v-0.04c0-2.7,2.09-4.97,4.93-4.97c1.8,0,2.92,0.65,3.8,1.64l-1.35,1.46
			c-0.67-0.7-1.37-1.19-2.47-1.19c-1.58,0-2.74,1.37-2.74,3.02v0.04c0,1.67,1.17,3.06,2.84,3.06c1.03,0,1.76-0.49,2.47-1.19
			l1.31,1.3c-0.94,1.06-2.03,1.78-3.89,1.78C922.82,4379.22,920.73,4377,920.73,4374.3z"/>
		<path fill="#FFFFFF" d="M931.53,4365.86h2.18v5.11c0.61-0.9,1.5-1.67,2.97-1.67c2.16,0,3.38,1.42,3.38,3.66v6.05h-2.18v-5.4
			c0-1.5-0.74-2.32-2.03-2.32c-1.28,0-2.14,0.86-2.14,2.36v5.37h-2.18V4365.86z"/>
		<path fill="#FFFFFF" d="M947.19,4369.49h2.34l2.56,6.99l2.58-6.99h2.29l-3.89,9.58h-1.96L947.19,4369.49z"/>
		<path fill="#FFFFFF" d="M958.69,4375.54v-6.05h2.18v5.4c0,1.5,0.74,2.32,2.04,2.32c1.28,0,2.14-0.86,2.14-2.36v-5.37h2.18v9.51
			h-2.18v-1.48c-0.63,0.92-1.51,1.67-2.97,1.67C959.92,4379.2,958.69,4377.78,958.69,4375.54z M961.93,4380.21h2.02v2.25h-2.02
			V4380.21z"/>
		<path fill="#FFFFFF" d="M975.36,4365.86h2.18v5.11c0.61-0.9,1.49-1.67,2.97-1.67c2.16,0,3.38,1.42,3.38,3.66v6.05h-2.18v-5.4
			c0-1.5-0.74-2.32-2.04-2.32c-1.28,0-2.14,0.86-2.14,2.36v5.37h-2.18V4365.86z"/>
		<path fill="#FFFFFF" d="M992.33,4379v-1.17c-0.65,0.77-1.64,1.37-3.08,1.37c-1.8,0-3.38-1.01-3.38-2.93v-0.04
			c0-2.11,1.62-3.12,3.85-3.12c1.15,0,1.89,0.16,2.63,0.4v-0.18c0-1.31-0.83-2.03-2.34-2.03c-1.08,0-1.85,0.23-2.72,0.59l-0.59-1.75
			c1.06-0.49,2.05-0.79,3.62-0.79c2.83,0,4.18,1.48,4.18,4.01v5.64H992.33z M989.56,4365.64h2.02l2.11,2.65h-1.73l-1.41-1.21
			l-1.39,1.21h-1.69L989.56,4365.64z M992.39,4375.02c-0.56-0.22-1.33-0.38-2.18-0.38c-1.37,0-2.18,0.56-2.18,1.48v0.04
			c0,0.92,0.81,1.4,1.84,1.4c1.44,0,2.52-0.79,2.52-2V4375.02z M989.45,4380.21h2.02v2.25h-2.02V4380.21z"/>
		<path fill="#FFFFFF" d="M996.98,4375.54v-6.05h2.18v5.4c0,1.5,0.74,2.32,2.03,2.32c1.28,0,2.14-0.86,2.14-2.36v-5.37h2.18v9.51
			h-2.18v-1.48c-0.63,0.92-1.51,1.67-2.97,1.67C998.2,4379.2,996.98,4377.78,996.98,4375.54z"/>
		<path fill="#FFFFFF" d="M1013.64,4369.49h2.18v1.44c0.61-0.85,1.44-1.64,2.9-1.64c1.37,0,2.32,0.67,2.83,1.67
			c0.77-1.01,1.78-1.67,3.22-1.67c2.09,0,3.33,1.31,3.33,3.64v6.07h-2.18v-5.4c0-1.51-0.7-2.32-1.93-2.32
			c-1.21,0-2.03,0.83-2.03,2.36v5.37h-2.18v-5.42c0-1.49-0.7-2.3-1.93-2.3s-2.04,0.88-2.04,2.38v5.35h-2.18V4369.49z"/>
		<path fill="#FFFFFF" d="M1036.56,4379v-1.17c-0.65,0.77-1.64,1.37-3.08,1.37c-1.8,0-3.39-1.01-3.39-2.93v-0.04
			c0-2.11,1.62-3.12,3.85-3.12c1.15,0,1.89,0.16,2.63,0.4v-0.18c0-1.31-0.83-2.03-2.34-2.03c-1.08,0-1.85,0.23-2.72,0.59l-0.59-1.75
			c1.06-0.49,2.05-0.79,3.62-0.79c2.83,0,4.18,1.48,4.18,4.01v5.64H1036.56z M1031.43,4368.09c0.41-1.44,0.92-2.23,2.02-2.23
			c1.01,0,1.94,0.72,2.59,0.72c0.52,0,0.72-0.27,0.99-0.9l1.21,0.36c-0.41,1.46-0.92,2.25-2.02,2.25c-0.99,0-1.96-0.72-2.59-0.72
			c-0.52,0-0.72,0.27-0.99,0.9L1031.43,4368.09z M1036.61,4375.02c-0.56-0.22-1.33-0.38-2.18-0.38c-1.37,0-2.18,0.56-2.18,1.48v0.04
			c0,0.92,0.81,1.4,1.84,1.4c1.44,0,2.52-0.79,2.52-2V4375.02z"/>
		<path fill="#FFFFFF" d="M1041.35,4365.96h2.34v2.07h-2.34V4365.96z M1041.44,4369.49h2.18v9.51h-2.18V4369.49z"/>
	</g>
	<g>
		<path fill="#FFFFFF" d="M858.62,4454.4h4.97c2.95,0,4.79,1.67,4.79,4.21v0.04c0,2.81-2.25,4.3-5.04,4.3h-2.5v4.05h-2.21V4454.4z
			 M863.41,4460.95c1.67,0,2.72-0.94,2.72-2.25v-0.04c0-1.49-1.06-2.25-2.72-2.25h-2.58v4.54H863.41z"/>
		<path fill="#FFFFFF" d="M868.45,4464.53h2.4v2.47h-2.4V4464.53z"/>
		<path fill="#FFFFFF" d="M879.09,4454.4h2.21v5.24h6.01v-5.24h2.21v12.6h-2.21v-5.31h-6.01v5.31h-2.21V4454.4z"/>
		<path fill="#FFFFFF" d="M898.33,4467v-1.17c-0.65,0.77-1.64,1.37-3.08,1.37c-1.8,0-3.38-1.01-3.38-2.93v-0.04
			c0-2.11,1.62-3.12,3.85-3.12c1.15,0,1.89,0.16,2.63,0.4v-0.18c0-1.31-0.83-2.03-2.34-2.03c-1.08,0-1.86,0.23-2.72,0.59l-0.59-1.75
			c1.06-0.49,2.05-0.79,3.62-0.79c2.83,0,4.18,1.48,4.18,4.01v5.64H898.33z M898.38,4463.02c-0.56-0.22-1.33-0.38-2.18-0.38
			c-1.37,0-2.18,0.56-2.18,1.48v0.04c0,0.92,0.81,1.4,1.84,1.4c1.44,0,2.52-0.79,2.52-2V4463.02z M894.19,4454.22l1.98-0.88
			l1.87,2.95h-1.64L894.19,4454.22z"/>
		<path fill="#FFFFFF" d="M903.08,4457.49h2.18v1.48c0.61-0.9,1.5-1.67,2.97-1.67c2.16,0,3.38,1.42,3.38,3.66v6.05h-2.18v-5.4
			c0-1.5-0.74-2.32-2.03-2.32c-1.28,0-2.14,0.86-2.14,2.36v5.37h-2.18V4457.49z"/>
		<path fill="#FFFFFF" d="M914.24,4453.86h2.18v5.11c0.61-0.9,1.5-1.67,2.97-1.67c2.16,0,3.38,1.42,3.38,3.66v6.05h-2.18v-5.4
			c0-1.5-0.74-2.32-2.03-2.32c-1.28,0-2.14,0.86-2.14,2.36v5.37h-2.18V4453.86z"/>
		<path fill="#FFFFFF" d="M930.28,4462.3v-0.04c0-2.7,2.09-4.97,4.93-4.97c1.8,0,2.92,0.65,3.8,1.64l-1.35,1.46
			c-0.67-0.7-1.37-1.19-2.47-1.19c-1.58,0-2.74,1.37-2.74,3.02v0.04c0,1.67,1.17,3.06,2.84,3.06c1.03,0,1.76-0.49,2.47-1.19
			l1.31,1.3c-0.94,1.06-2.04,1.78-3.89,1.78C932.37,4467.22,930.28,4465,930.28,4462.3z"/>
		<path fill="#FFFFFF" d="M941.08,4453.86h2.18v5.11c0.61-0.9,1.49-1.67,2.97-1.67c2.16,0,3.38,1.42,3.38,3.66v6.05h-2.18v-5.4
			c0-1.5-0.74-2.32-2.04-2.32c-1.28,0-2.14,0.86-2.14,2.36v5.37h-2.18V4453.86z"/>
		<path fill="#FFFFFF" d="M954.24,4453.33l1.98,0.88l-2.21,2.07h-1.64L954.24,4453.33z M952.36,4457.49h2.18v9.51h-2.18V4457.49z"/>
		<path fill="#FFFFFF" d="M957.39,4457.49h2.18v1.48c0.61-0.9,1.49-1.67,2.97-1.67c2.16,0,3.38,1.42,3.38,3.66v6.05h-2.18v-5.4
			c0-1.5-0.74-2.32-2.03-2.32c-1.28,0-2.14,0.86-2.14,2.36v5.37h-2.18V4457.49z"/>
		<path fill="#FFFFFF" d="M968.54,4453.86h2.18v5.11c0.61-0.9,1.5-1.67,2.97-1.67c2.16,0,3.38,1.42,3.38,3.66v6.05h-2.18v-5.4
			c0-1.5-0.74-2.32-2.03-2.32c-1.28,0-2.14,0.86-2.14,2.36v5.37h-2.18V4453.86z"/>
		<path fill="#FFFFFF" d="M992.42,4465.54c-1.08,1.01-2.34,1.64-3.87,1.64c-2.34,0-4.11-1.42-4.11-3.6v-0.04
			c0-1.64,0.95-2.79,2.68-3.53c-0.72-0.92-1.04-1.71-1.04-2.63v-0.04c0-1.67,1.39-3.17,3.62-3.17c2,0,3.35,1.35,3.35,3.04v0.04
			c0,1.66-1.1,2.65-2.77,3.28l2.16,2.2c0.49-0.72,0.94-1.55,1.35-2.43l1.68,0.88c-0.5,1.01-1.06,2-1.71,2.88l1.98,2.02l-1.64,1.17
			L992.42,4465.54z M991.16,4464.25l-2.81-2.86c-1.17,0.5-1.67,1.28-1.67,2.09v0.04c0,1.08,0.88,1.84,2.11,1.84
			C989.64,4465.34,990.43,4464.95,991.16,4464.25z M991.08,4457.38v-0.04c0-0.85-0.59-1.42-1.44-1.42c-0.92,0-1.49,0.63-1.49,1.51
			v0.04c0,0.63,0.25,1.1,0.95,1.87C990.4,4458.86,991.08,4458.3,991.08,4457.38z"/>
		<path fill="#FFFFFF" d="M1003.28,4454.4h2.05l6.75,8.71v-8.71h2.18v12.6h-1.85l-6.95-8.97v8.97h-2.18V4454.4z"/>
		<path fill="#FFFFFF" d="M1017.25,4453.86h2.18v5.11c0.61-0.9,1.49-1.67,2.97-1.67c2.16,0,3.39,1.42,3.39,3.66v6.05h-2.18v-5.4
			c0-1.5-0.74-2.32-2.04-2.32c-1.28,0-2.14,0.86-2.14,2.36v5.37h-2.18V4453.86z"/>
		<path fill="#FFFFFF" d="M1034.23,4467v-1.17c-0.65,0.77-1.64,1.37-3.08,1.37c-1.8,0-3.39-1.01-3.39-2.93v-0.04
			c0-2.11,1.62-3.12,3.85-3.12c1.15,0,1.89,0.16,2.63,0.4v-0.18c0-1.31-0.83-2.03-2.34-2.03c-1.08,0-1.85,0.23-2.72,0.59l-0.59-1.75
			c1.06-0.49,2.05-0.79,3.62-0.79c2.83,0,4.18,1.48,4.18,4.01v5.64H1034.23z M1031.46,4453.64h2.02l2.11,2.65h-1.73l-1.4-1.21
			l-1.39,1.21h-1.69L1031.46,4453.64z M1034.28,4463.02c-0.56-0.22-1.33-0.38-2.18-0.38c-1.37,0-2.18,0.56-2.18,1.48v0.04
			c0,0.92,0.81,1.4,1.84,1.4c1.44,0,2.52-0.79,2.52-2V4463.02z"/>
		<path fill="#FFFFFF" d="M1038.98,4457.49h2.18v1.48c0.61-0.9,1.5-1.67,2.97-1.67c2.16,0,3.39,1.42,3.39,3.66v6.05h-2.18v-5.4
			c0-1.5-0.74-2.32-2.04-2.32c-1.28,0-2.14,0.86-2.14,2.36v5.37h-2.18V4457.49z"/>
		<path fill="#FFFFFF" d="M1054.76,4465.76l0.97-1.48c1.03,0.77,2.12,1.17,3.12,1.17c0.94,0,1.48-0.4,1.48-1.03v-0.04
			c0-0.72-1.01-0.99-2.12-1.33c-1.39-0.38-2.97-0.97-2.97-2.79v-0.04c0-1.8,1.49-2.9,3.38-2.9c1.21,0,2.48,0.41,3.49,1.08
			l-0.86,1.55c-0.92-0.56-1.89-0.9-2.68-0.9c-0.85,0-1.33,0.4-1.33,0.95v0.04c0,0.65,1.04,0.99,2.14,1.33
			c1.37,0.43,2.95,1.06,2.95,2.77v0.04c0,2-1.55,2.99-3.53,2.99C1057.43,4467.18,1055.97,4466.69,1054.76,4465.76z"/>
		<path fill="#FFFFFF" d="M1064.43,4463.54v-6.05h2.18v5.4c0,1.5,0.74,2.32,2.03,2.32c1.28,0,2.14-0.86,2.14-2.36v-5.37h1.78
			c0.38-0.11,0.56-0.27,0.56-0.5c0-0.27-0.07-0.85-0.49-1.57h2.09c0.27,1.15,0.27,1.71,0.27,1.87c-0.02,1.1-0.7,1.8-2.03,2.07v7.63
			h-2.18v-1.48c-0.63,0.92-1.51,1.67-2.97,1.67C1065.65,4467.2,1064.43,4465.78,1064.43,4463.54z M1067.67,4468.21h2.02v2.25h-2.02
			V4468.21z"/>
	</g>
	<g>
		<path fill="#FFFFFF" d="M1218.45,4253.96h-3.83v-2.56h10.44v2.56h-3.83V4264h-2.77V4253.96z"/>
		<path fill="#FFFFFF" d="M1227.18,4251.4h5.15c0.76,0,1.43,0.1,2.03,0.31c0.59,0.21,1.1,0.51,1.51,0.89
			c0.41,0.38,0.73,0.84,0.95,1.38c0.22,0.53,0.33,1.12,0.33,1.77v0.04c0,0.73-0.13,1.37-0.4,1.93c-0.26,0.55-0.63,1.01-1.09,1.39
			c-0.46,0.37-1,0.65-1.62,0.84c-0.62,0.19-1.28,0.28-1.99,0.28h-2.11v3.78h-2.77V4251.4z M1232.14,4257.75
			c0.7,0,1.24-0.18,1.62-0.55c0.38-0.37,0.58-0.82,0.58-1.36v-0.04c0-0.62-0.2-1.1-0.6-1.42c-0.4-0.32-0.95-0.49-1.65-0.49h-2.14
			v3.85H1232.14z"/>
		<path fill="#FFFFFF" d="M1237,4261.12h2.92v2.88H1237V4261.12z"/>
		<path fill="#FFFFFF" d="M1247.95,4251.4h2.77v5.51l5.11-5.51h3.35l-5.13,5.35l5.37,7.25h-3.33l-3.91-5.36l-1.46,1.51v3.85h-2.77
			V4251.4z"/>
		<path fill="#FFFFFF" d="M1261.09,4251.4h9.5v2.47h-6.75v2.56h5.94v2.47h-5.94v2.65h6.84v2.47h-9.59V4251.4z M1264.56,4247.4h2.59
			l2.21,2.83h-2.11l-1.42-1.19l-1.42,1.19h-2.07L1264.56,4247.4z M1270.09,4248.05h-1.87l1.64-2.83l2.18,1.03L1270.09,4248.05z"/>
		<path fill="#FFFFFF" d="M1281.48,4253.96h-3.83v-2.56h10.44v2.56h-3.83V4264h-2.77V4253.96z"/>
		<path fill="#FFFFFF" d="M1295.79,4264.22c-0.97,0-1.87-0.17-2.68-0.51s-1.52-0.8-2.12-1.39s-1.06-1.27-1.39-2.05
			c-0.33-0.79-0.5-1.63-0.5-2.53v-0.04c0-0.9,0.17-1.74,0.5-2.53s0.8-1.48,1.39-2.07c0.59-0.59,1.3-1.06,2.12-1.4
			c0.82-0.34,1.72-0.51,2.69-0.51s1.87,0.17,2.68,0.51c0.82,0.34,1.52,0.8,2.11,1.39c0.59,0.58,1.06,1.27,1.39,2.05
			c0.33,0.79,0.5,1.63,0.5,2.53v0.04c0,0.9-0.17,1.74-0.5,2.53c-0.34,0.79-0.8,1.48-1.4,2.07c-0.59,0.59-1.3,1.06-2.12,1.4
			S1296.76,4264.22,1295.79,4264.22z M1295.83,4261.66c0.55,0,1.06-0.1,1.53-0.31c0.47-0.2,0.87-0.49,1.2-0.85
			c0.33-0.36,0.59-0.78,0.77-1.25c0.19-0.47,0.28-0.98,0.28-1.52v-0.04c0-0.54-0.09-1.05-0.28-1.53c-0.19-0.48-0.45-0.9-0.79-1.26
			c-0.34-0.36-0.75-0.65-1.21-0.86s-0.98-0.31-1.53-0.31c-0.56,0-1.08,0.1-1.54,0.31s-0.86,0.49-1.19,0.85
			c-0.33,0.36-0.59,0.78-0.77,1.25c-0.19,0.47-0.28,0.98-0.28,1.52v0.04c0,0.54,0.09,1.05,0.28,1.53c0.19,0.48,0.45,0.9,0.79,1.26
			c0.34,0.36,0.74,0.64,1.21,0.85S1295.26,4261.66,1295.83,4261.66z"/>
		<path fill="#FFFFFF" d="M1308.48,4251.31h2.56l5.4,12.69h-2.9l-1.15-2.83h-5.33l-1.15,2.83h-2.83L1308.48,4251.31z
			 M1311.4,4258.73l-1.67-4.09l-1.67,4.09H1311.4z M1310.8,4247.04l2.36,1.03l-2.34,2.16h-2.02L1310.8,4247.04z"/>
		<path fill="#FFFFFF" d="M1318.38,4251.4h2.56l5.9,7.76v-7.76h2.74v12.6h-2.36l-6.1-8.01v8.01h-2.74V4251.4z"/>
		<path fill="#FFFFFF" d="M1337.39,4257.11h5.54v2.63h-5.54V4257.11z"/>
		<path fill="#FFFFFF" d="M1353.68,4253.96h-3.83v-2.56h10.44v2.56h-3.83V4264h-2.77V4253.96z"/>
		<path fill="#FFFFFF" d="M1365.11,4251.31h2.56l5.4,12.69h-2.9l-1.15-2.83h-5.33l-1.15,2.83h-2.83L1365.11,4251.31z
			 M1363.22,4248.07l2.36-1.03l2,3.19h-2.02L1363.22,4248.07z M1368.02,4258.73l-1.67-4.09l-1.67,4.09H1368.02z"/>
		<path fill="#FFFFFF" d="M1375.13,4251.4h2.77v12.6h-2.77V4251.4z"/>
		<path fill="#FFFFFF" d="M1392.36,4264.22c-0.92,0-1.78-0.17-2.57-0.5s-1.48-0.79-2.05-1.38s-1.03-1.27-1.35-2.06
			c-0.32-0.79-0.49-1.64-0.49-2.54v-0.04c0-0.9,0.16-1.74,0.49-2.53c0.32-0.79,0.77-1.48,1.35-2.07c0.58-0.59,1.27-1.06,2.07-1.4
			c0.8-0.34,1.69-0.51,2.66-0.51c0.59,0,1.12,0.05,1.61,0.14c0.49,0.1,0.93,0.23,1.32,0.4c0.4,0.17,0.76,0.37,1.1,0.61
			s0.65,0.5,0.94,0.79l-1.76,2.03c-0.49-0.44-0.99-0.79-1.5-1.04c-0.51-0.25-1.08-0.38-1.72-0.38c-0.53,0-1.02,0.1-1.47,0.31
			s-0.84,0.49-1.16,0.85c-0.32,0.36-0.58,0.78-0.76,1.25c-0.18,0.47-0.27,0.98-0.27,1.52v0.04c0,0.54,0.09,1.05,0.27,1.53
			c0.18,0.48,0.43,0.9,0.75,1.26c0.32,0.36,0.7,0.64,1.15,0.85c0.45,0.21,0.94,0.32,1.48,0.32c0.72,0,1.33-0.13,1.83-0.4
			c0.5-0.26,0.99-0.62,1.49-1.08l1.76,1.78c-0.32,0.35-0.66,0.66-1.01,0.94c-0.35,0.28-0.73,0.51-1.14,0.71
			c-0.41,0.2-0.87,0.35-1.36,0.45C1393.52,4264.17,1392.97,4264.22,1392.36,4264.22z"/>
		<path fill="#FFFFFF" d="M1399.74,4251.4h2.77v4.99h5.11v-4.99h2.77v12.6h-2.77v-5.06h-5.11v5.06h-2.77V4251.4z"/>
		<path fill="#FFFFFF" d="M1413.55,4251.4h2.77v12.6h-2.77V4251.4z M1415.89,4247.04l2.36,1.03l-2.34,2.16h-2.02L1415.89,4247.04z"
			/>
		<path fill="#FFFFFF" d="M1419.47,4251.4h2.56l5.9,7.76v-7.76h2.74v12.6h-2.36l-6.1-8.01v8.01h-2.74V4251.4z"/>
		<path fill="#FFFFFF" d="M1433.69,4251.4h2.77v4.99h5.11v-4.99h2.77v12.6h-2.77v-5.06h-5.11v5.06h-2.77V4251.4z"/>
	</g>
	<g>
		<path fill="#FFFFFF" d="M1272.62,4354.4h2.21v6.34l6-6.34h2.72l-5.24,5.42l5.47,7.18h-2.68l-4.3-5.67l-1.96,2.02v3.66h-2.21
			V4354.4z"/>
		<path fill="#FFFFFF" d="M1284.9,4362.28v-0.04c0-2.74,1.93-4.95,4.64-4.95c3.03,0,4.56,2.38,4.56,5.11c0,0.2-0.02,0.4-0.04,0.61
			h-6.99c0.23,1.57,1.31,2.41,2.74,2.41c1.08,0,1.8-0.4,2.58-1.13l1.28,1.13c-0.92,1.08-2.14,1.78-3.89,1.78
			C1287.04,4367.22,1284.9,4365.22,1284.9,4362.28z M1288.5,4353.64h2.02l2.11,2.65h-1.73l-1.4-1.21l-1.39,1.21h-1.69
			L1288.5,4353.64z M1291.94,4361.58c-0.14-1.39-0.97-2.5-2.41-2.5c-1.35,0-2.27,1.01-2.47,2.5H1291.94z M1293.65,4351.35l1.98,0.88
			l-2.21,2.07h-1.64L1293.65,4351.35z"/>
		<path fill="#FFFFFF" d="M1302.14,4364.37v-5.01h-1.21v-1.87h1.21v-2.61h2.18v2.61h2.56v1.87h-2.56v4.66
			c0,0.85,0.43,1.19,1.17,1.19c0.47,0,0.92-0.11,1.35-0.32v1.78c-0.56,0.31-1.15,0.49-1.96,0.49
			C1303.27,4367.16,1302.14,4366.46,1302.14,4364.37z"/>
		<path fill="#FFFFFF" d="M1308.55,4362.3v-0.04c0-2.72,2.16-4.97,5.08-4.97c2.93,0,5.06,2.21,5.06,4.93v0.04
			c0,2.68-2.16,4.95-5.1,4.95C1310.69,4367.22,1308.55,4365,1308.55,4362.3z M1316.51,4362.3v-0.04c0-1.67-1.21-3.06-2.92-3.06
			c-1.75,0-2.86,1.37-2.86,3.02v0.04c0,1.66,1.22,3.06,2.9,3.06C1315.41,4365.33,1316.51,4363.94,1316.51,4362.3z"/>
		<path fill="#FFFFFF" d="M1326.71,4367v-1.17c-0.65,0.77-1.64,1.37-3.08,1.37c-1.8,0-3.38-1.01-3.38-2.93v-0.04
			c0-2.11,1.62-3.12,3.85-3.12c1.15,0,1.89,0.16,2.63,0.4v-0.18c0-1.31-0.83-2.03-2.34-2.03c-1.08,0-1.85,0.23-2.72,0.59l-0.59-1.75
			c1.06-0.49,2.05-0.79,3.62-0.79c2.83,0,4.18,1.48,4.18,4.01v5.64H1326.71z M1326.77,4363.02c-0.56-0.22-1.33-0.38-2.18-0.38
			c-1.37,0-2.18,0.56-2.18,1.48v0.04c0,0.92,0.81,1.4,1.84,1.4c1.44,0,2.52-0.79,2.52-2V4363.02z M1325.52,4353.33l1.98,0.88
			l-2.21,2.07h-1.64L1325.52,4353.33z"/>
		<path fill="#FFFFFF" d="M1331.46,4357.49h2.18v1.48c0.61-0.9,1.5-1.67,2.97-1.67c2.16,0,3.38,1.42,3.38,3.66v6.05h-2.18v-5.4
			c0-1.5-0.74-2.32-2.03-2.32c-1.28,0-2.14,0.86-2.14,2.36v5.37h-2.18V4357.49z"/>
		<path fill="#FFFFFF" d="M1348.47,4364.37v-5.01h-1.21v-1.87h1.21v-2.61h2.18v2.61h2.56v1.87h-2.56v4.66
			c0,0.85,0.43,1.19,1.17,1.19c0.47,0,0.92-0.11,1.35-0.32v1.78c-0.56,0.31-1.15,0.49-1.96,0.49
			C1349.61,4367.16,1348.47,4366.46,1348.47,4364.37z"/>
		<path fill="#FFFFFF" d="M1354.88,4362.3v-0.04c0-2.72,2.16-4.97,5.08-4.97c2.93,0,5.06,2.21,5.06,4.93v0.04
			c0,2.68-2.16,4.95-5.1,4.95C1357.02,4367.22,1354.88,4365,1354.88,4362.3z M1358.93,4353.64h2.02l2.11,2.65h-1.73l-1.4-1.21
			l-1.39,1.21h-1.69L1358.93,4353.64z M1362.84,4362.3v-0.04c0-1.67-1.21-3.06-2.92-3.06c-1.75,0-2.86,1.37-2.86,3.02v0.04
			c0,1.66,1.22,3.06,2.9,3.06C1361.74,4365.33,1362.84,4363.94,1362.84,4362.3z M1362.44,4353.26c0.7-0.07,1.13-0.31,1.13-0.95
			c0-0.16-0.14-0.45-0.56-0.45c-0.22,0-0.54,0.14-0.76,0.67l-1.19-0.56c0.54-1.22,1.44-1.46,2-1.46c1.06,0,1.91,0.77,1.91,1.78
			c0,1.04-0.68,1.53-1.35,1.76l-0.09,0.7h-0.97L1362.44,4353.26z"/>
		<path fill="#FFFFFF" d="M1367.23,4357.49h2.18v1.48c0.61-0.9,1.5-1.67,2.97-1.67c2.16,0,3.38,1.42,3.38,3.66v6.05h-2.18v-5.4
			c0-1.5-0.74-2.32-2.03-2.32c-1.28,0-2.14,0.86-2.14,2.36v5.37h-2.18V4357.49z"/>
		<path fill="#FFFFFF" d="M1378.37,4368.78l0.81-1.64c1.01,0.63,2.09,1.01,3.38,1.01c1.94,0,3.01-0.99,3.01-2.92v-0.74
			c-0.79,1.03-1.78,1.75-3.35,1.75c-2.23,0-4.32-1.66-4.32-4.45v-0.04c0-2.81,2.09-4.47,4.32-4.47c1.6,0,2.59,0.74,3.33,1.62v-1.42
			h2.18v7.56c0,1.58-0.4,2.77-1.21,3.58c-0.86,0.86-2.18,1.28-3.91,1.28C1381.03,4369.92,1379.61,4369.54,1378.37,4368.78z
			 M1385.59,4361.8v-0.04c0-1.57-1.28-2.63-2.79-2.63c-1.51,0-2.7,1.04-2.7,2.61v0.04c0,1.57,1.21,2.63,2.7,2.63
			C1384.31,4364.41,1385.59,4363.33,1385.59,4361.8z"/>
		<path fill="#FFFFFF" d="M1395.85,4353.86h2.18v5.11c0.61-0.9,1.49-1.67,2.97-1.67c2.16,0,3.38,1.42,3.38,3.66v6.05h-2.18v-5.4
			c0-1.5-0.74-2.32-2.03-2.32c-1.28,0-2.14,0.86-2.14,2.36v5.37h-2.18V4353.86z"/>
		<path fill="#FFFFFF" d="M1406.48,4362.3v-0.04c0-2.72,2.16-4.97,5.08-4.97c1.22,0,2.3,0.4,3.17,1.06
			c0.38-0.13,0.58-0.31,0.58-0.52c0-0.27-0.07-0.85-0.49-1.57h2.09c0.27,1.15,0.27,1.71,0.27,1.87c-0.02,0.79-0.4,1.39-1.13,1.76
			c0.36,0.7,0.58,1.48,0.58,2.32v0.04c0,2.68-2.16,4.95-5.1,4.95C1408.63,4367.22,1406.48,4365,1406.48,4362.3z M1414.44,4362.3
			v-0.04c0-1.67-1.21-3.06-2.92-3.06c-1.75,0-2.86,1.37-2.86,3.02v0.04c0,1.66,1.22,3.06,2.9,3.06
			C1413.34,4365.33,1414.44,4363.94,1414.44,4362.3z M1410.52,4368.21h2.02v2.25h-2.02V4368.21z"/>
		<path fill="#FFFFFF" d="M1418.83,4357.49h2.18v1.58c0.7-1.01,1.69-1.78,3.22-1.78c2.23,0,4.43,1.76,4.43,4.93v0.04
			c0,3.17-2.16,4.93-4.43,4.93c-1.57,0-2.56-0.79-3.22-1.67v4.36h-2.18V4357.49z M1426.45,4362.26v-0.04c0-1.84-1.22-3.04-2.72-3.04
			c-1.49,0-2.77,1.22-2.77,3.04v0.04c0,1.84,1.28,3.04,2.77,3.04C1425.22,4365.31,1426.45,4364.14,1426.45,4362.26z"/>
	</g>
	<g>
		<path fill="#FFFFFF" d="M1265.62,4457.4h2.21v6.34l6-6.34h2.72l-5.24,5.42l5.47,7.18h-2.68l-4.3-5.67l-1.96,2.02v3.66h-2.21
			V4457.4z"/>
		<path fill="#FFFFFF" d="M1277.9,4465.28v-0.04c0-2.74,1.93-4.95,4.64-4.95c3.03,0,4.56,2.38,4.56,5.11c0,0.2-0.02,0.4-0.04,0.61
			h-6.99c0.23,1.57,1.31,2.41,2.74,2.41c1.08,0,1.8-0.4,2.58-1.13l1.28,1.13c-0.92,1.08-2.14,1.78-3.89,1.78
			C1280.04,4470.22,1277.9,4468.22,1277.9,4465.28z M1281.5,4456.64h2.02l2.11,2.65h-1.73l-1.4-1.21l-1.39,1.21h-1.69
			L1281.5,4456.64z M1284.94,4464.58c-0.14-1.39-0.97-2.5-2.41-2.5c-1.35,0-2.27,1.01-2.47,2.5H1284.94z M1286.65,4454.35l1.98,0.88
			l-2.21,2.07h-1.64L1286.65,4454.35z"/>
		<path fill="#FFFFFF" d="M1295.14,4467.37v-5.01h-1.21v-1.87h1.21v-2.61h2.18v2.61h2.56v1.87h-2.56v4.66
			c0,0.85,0.43,1.19,1.17,1.19c0.47,0,0.92-0.11,1.35-0.32v1.78c-0.56,0.31-1.15,0.49-1.96,0.49
			C1296.27,4470.16,1295.14,4469.46,1295.14,4467.37z"/>
		<path fill="#FFFFFF" d="M1301.55,4465.3v-0.04c0-2.72,2.16-4.97,5.08-4.97c2.93,0,5.06,2.21,5.06,4.93v0.04
			c0,2.68-2.16,4.95-5.1,4.95C1303.69,4470.22,1301.55,4468,1301.55,4465.3z M1309.51,4465.3v-0.04c0-1.67-1.21-3.06-2.92-3.06
			c-1.75,0-2.86,1.37-2.86,3.02v0.04c0,1.66,1.22,3.06,2.9,3.06C1308.41,4468.33,1309.51,4466.94,1309.51,4465.3z"/>
		<path fill="#FFFFFF" d="M1319.71,4470v-1.17c-0.65,0.77-1.64,1.37-3.08,1.37c-1.8,0-3.38-1.01-3.38-2.93v-0.04
			c0-2.11,1.62-3.12,3.85-3.12c1.15,0,1.89,0.16,2.63,0.4v-0.18c0-1.31-0.83-2.03-2.34-2.03c-1.08,0-1.85,0.23-2.72,0.59l-0.59-1.75
			c1.06-0.49,2.05-0.79,3.62-0.79c2.83,0,4.18,1.48,4.18,4.01v5.64H1319.71z M1319.77,4466.02c-0.56-0.22-1.33-0.38-2.18-0.38
			c-1.37,0-2.18,0.56-2.18,1.48v0.04c0,0.92,0.81,1.4,1.84,1.4c1.44,0,2.52-0.79,2.52-2V4466.02z M1318.52,4456.33l1.98,0.88
			l-2.21,2.07h-1.64L1318.52,4456.33z"/>
		<path fill="#FFFFFF" d="M1324.46,4460.49h2.18v1.48c0.61-0.9,1.5-1.67,2.97-1.67c2.16,0,3.38,1.42,3.38,3.66v6.05h-2.18v-5.4
			c0-1.5-0.74-2.32-2.03-2.32c-1.28,0-2.14,0.86-2.14,2.36v5.37h-2.18V4460.49z"/>
		<path fill="#FFFFFF" d="M1341.47,4467.37v-5.01h-1.21v-1.87h1.21v-2.61h2.18v2.61h2.56v1.87h-2.56v4.66
			c0,0.85,0.43,1.19,1.17,1.19c0.47,0,0.92-0.11,1.35-0.32v1.78c-0.56,0.31-1.15,0.49-1.96,0.49
			C1342.61,4470.16,1341.47,4469.46,1341.47,4467.37z"/>
		<path fill="#FFFFFF" d="M1348.4,4456.86h2.18v5.11c0.61-0.9,1.5-1.67,2.97-1.67c2.16,0,3.38,1.42,3.38,3.66v6.05h-2.18v-5.4
			c0-1.5-0.74-2.32-2.03-2.32c-1.28,0-2.14,0.86-2.14,2.36v5.37h-2.18V4456.86z"/>
		<path fill="#FFFFFF" d="M1365.38,4470v-1.17c-0.65,0.77-1.64,1.37-3.08,1.37c-1.8,0-3.39-1.01-3.39-2.93v-0.04
			c0-2.11,1.62-3.12,3.85-3.12c1.15,0,1.89,0.16,2.63,0.4v-0.18c0-1.31-0.83-2.03-2.34-2.03c-1.08,0-1.85,0.23-2.72,0.59l-0.59-1.75
			c1.06-0.49,2.05-0.79,3.62-0.79c2.83,0,4.18,1.48,4.18,4.01v5.64H1365.38z M1365.43,4466.02c-0.56-0.22-1.33-0.38-2.18-0.38
			c-1.37,0-2.18,0.56-2.18,1.48v0.04c0,0.92,0.81,1.4,1.84,1.4c1.44,0,2.52-0.79,2.52-2V4466.02z"/>
		<path fill="#FFFFFF" d="M1370.13,4460.49h2.18v1.48c0.61-0.9,1.5-1.67,2.97-1.67c2.16,0,3.38,1.42,3.38,3.66v6.05h-2.18v-5.4
			c0-1.5-0.74-2.32-2.03-2.32c-1.28,0-2.14,0.86-2.14,2.36v5.37h-2.18V4460.49z"/>
		<path fill="#FFFFFF" d="M1381.29,4456.86h2.18v5.11c0.61-0.9,1.49-1.67,2.97-1.67c2.16,0,3.38,1.42,3.38,3.66v6.05h-2.18v-5.4
			c0-1.5-0.74-2.32-2.04-2.32c-1.28,0-2.14,0.86-2.14,2.36v5.37h-2.18V4456.86z"/>
		<path fill="#FFFFFF" d="M1398.3,4467.37v-5.01h-1.21v-1.87h1.21v-2.61h2.18v2.61h2.56v1.87h-2.56v4.66c0,0.85,0.43,1.19,1.17,1.19
			c0.47,0,0.92-0.11,1.35-0.32v1.78c-0.56,0.31-1.15,0.49-1.96,0.49C1399.43,4470.16,1398.3,4469.46,1398.3,4467.37z"/>
		<path fill="#FFFFFF" d="M1404.7,4465.3v-0.04c0-2.72,2.16-4.97,5.08-4.97c2.93,0,5.06,2.21,5.06,4.93v0.04
			c0,2.68-2.16,4.95-5.1,4.95C1406.85,4470.22,1404.7,4468,1404.7,4465.3z M1412.66,4465.3v-0.04c0-1.67-1.21-3.06-2.92-3.06
			c-1.75,0-2.86,1.37-2.86,3.02v0.04c0,1.66,1.22,3.06,2.9,3.06C1411.56,4468.33,1412.66,4466.94,1412.66,4465.3z"/>
		<path fill="#FFFFFF" d="M1422.87,4470v-1.17c-0.65,0.77-1.64,1.37-3.08,1.37c-1.8,0-3.38-1.01-3.38-2.93v-0.04
			c0-2.11,1.62-3.12,3.85-3.12c1.15,0,1.89,0.16,2.63,0.4v-0.18c0-1.31-0.83-2.03-2.34-2.03c-1.08,0-1.85,0.23-2.72,0.59l-0.59-1.75
			c1.06-0.49,2.05-0.79,3.62-0.79c2.83,0,4.18,1.48,4.18,4.01v5.64H1422.87z M1422.92,4466.02c-0.56-0.22-1.33-0.38-2.18-0.38
			c-1.37,0-2.18,0.56-2.18,1.48v0.04c0,0.92,0.81,1.4,1.84,1.4c1.44,0,2.52-0.79,2.52-2V4466.02z M1421.68,4456.33l1.98,0.88
			l-2.21,2.07h-1.64L1421.68,4456.33z"/>
		<path fill="#FFFFFF" d="M1427.62,4460.49h2.18v1.48c0.61-0.9,1.5-1.67,2.97-1.67c2.16,0,3.39,1.42,3.39,3.66v6.05h-2.18v-5.4
			c0-1.5-0.74-2.32-2.04-2.32c-1.28,0-2.14,0.86-2.14,2.36v5.37h-2.18V4460.49z"/>
	</g>
	<g>
		<path fill="#FFFFFF" d="M1287.62,4560.4h2.21v6.34l6-6.34h2.72l-5.24,5.42l5.47,7.18h-2.68l-4.3-5.67l-1.96,2.02v3.66h-2.21
			V4560.4z"/>
		<path fill="#FFFFFF" d="M1299.9,4568.28v-0.04c0-2.74,1.93-4.95,4.64-4.95c3.03,0,4.56,2.38,4.56,5.11c0,0.2-0.02,0.4-0.04,0.61
			h-6.99c0.23,1.57,1.31,2.41,2.74,2.41c1.08,0,1.8-0.4,2.58-1.13l1.28,1.13c-0.92,1.08-2.14,1.78-3.89,1.78
			C1302.04,4573.22,1299.9,4571.22,1299.9,4568.28z M1303.5,4559.64h2.02l2.11,2.65h-1.73l-1.4-1.21l-1.39,1.21h-1.69
			L1303.5,4559.64z M1306.94,4567.58c-0.14-1.39-0.97-2.5-2.41-2.5c-1.35,0-2.27,1.01-2.47,2.5H1306.94z M1308.65,4557.35l1.98,0.88
			l-2.21,2.07h-1.64L1308.65,4557.35z"/>
		<path fill="#FFFFFF" d="M1317.14,4570.37v-5.01h-1.21v-1.87h1.21v-2.61h2.18v2.61h2.56v1.87h-2.56v4.66
			c0,0.85,0.43,1.19,1.17,1.19c0.47,0,0.92-0.11,1.35-0.32v1.78c-0.56,0.31-1.15,0.49-1.96,0.49
			C1318.27,4573.16,1317.14,4572.46,1317.14,4570.37z"/>
		<path fill="#FFFFFF" d="M1323.55,4568.3v-0.04c0-2.72,2.16-4.97,5.08-4.97c2.93,0,5.06,2.21,5.06,4.93v0.04
			c0,2.68-2.16,4.95-5.1,4.95C1325.69,4573.22,1323.55,4571,1323.55,4568.3z M1331.51,4568.3v-0.04c0-1.67-1.21-3.06-2.92-3.06
			c-1.75,0-2.86,1.37-2.86,3.02v0.04c0,1.66,1.22,3.06,2.9,3.06C1330.41,4571.33,1331.51,4569.94,1331.51,4568.3z"/>
		<path fill="#FFFFFF" d="M1341.71,4573v-1.17c-0.65,0.77-1.64,1.37-3.08,1.37c-1.8,0-3.38-1.01-3.38-2.93v-0.04
			c0-2.11,1.62-3.12,3.85-3.12c1.15,0,1.89,0.16,2.63,0.4v-0.18c0-1.31-0.83-2.03-2.34-2.03c-1.08,0-1.85,0.23-2.72,0.59l-0.59-1.75
			c1.06-0.49,2.05-0.79,3.62-0.79c2.83,0,4.18,1.48,4.18,4.01v5.64H1341.71z M1341.77,4569.02c-0.56-0.22-1.33-0.38-2.18-0.38
			c-1.37,0-2.18,0.56-2.18,1.48v0.04c0,0.92,0.81,1.4,1.84,1.4c1.44,0,2.52-0.79,2.52-2V4569.02z M1340.52,4559.33l1.98,0.88
			l-2.21,2.07h-1.64L1340.52,4559.33z"/>
		<path fill="#FFFFFF" d="M1346.46,4563.49h2.18v1.48c0.61-0.9,1.5-1.67,2.97-1.67c2.16,0,3.38,1.42,3.38,3.66v6.05h-2.18v-5.4
			c0-1.5-0.74-2.32-2.03-2.32c-1.28,0-2.14,0.86-2.14,2.36v5.37h-2.18V4563.49z"/>
		<path fill="#FFFFFF" d="M1362.12,4563.49h2.34l2.56,6.99l2.58-6.99h2.29l-3.89,9.58h-1.96L1362.12,4563.49z"/>
		<path fill="#FFFFFF" d="M1379.55,4573v-1.17c-0.65,0.77-1.64,1.37-3.08,1.37c-1.8,0-3.39-1.01-3.39-2.93v-0.04
			c0-2.11,1.62-3.12,3.85-3.12c1.15,0,1.89,0.16,2.63,0.4v-0.18c0-1.31-0.83-2.03-2.34-2.03c-1.08,0-1.85,0.23-2.72,0.59l-0.59-1.75
			c1.06-0.49,2.05-0.79,3.62-0.79c2.83,0,4.18,1.48,4.18,4.01v5.64H1379.55z M1376.77,4559.64h2.02l2.11,2.65h-1.73l-1.4-1.21
			l-1.39,1.21h-1.69L1376.77,4559.64z M1379.6,4569.02c-0.56-0.22-1.33-0.38-2.18-0.38c-1.37,0-2.18,0.56-2.18,1.48v0.04
			c0,0.92,0.81,1.4,1.84,1.4c1.44,0,2.52-0.79,2.52-2V4569.02z M1376.67,4574.21h2.02v2.25h-2.02V4574.21z"/>
		<path fill="#FFFFFF" d="M1384.75,4570.37v-5.01h-1.21v-1.87h1.21v-2.61h2.18v2.61h2.56v1.87h-2.56v4.66
			c0,0.85,0.43,1.19,1.17,1.19c0.47,0,0.92-0.11,1.35-0.32v1.78c-0.56,0.31-1.15,0.49-1.96,0.49
			C1385.88,4573.16,1384.75,4572.46,1384.75,4570.37z"/>
		<path fill="#FFFFFF" d="M1397.53,4570.37v-5.01h-1.21v-1.87h1.21v-2.61h2.18v2.61h2.56v1.87h-2.56v4.66
			c0,0.85,0.43,1.19,1.17,1.19c0.47,0,0.92-0.11,1.35-0.32v1.78c-0.56,0.31-1.15,0.49-1.96,0.49
			C1398.66,4573.16,1397.53,4572.46,1397.53,4570.37z"/>
		<path fill="#FFFFFF" d="M1404.35,4569.54v-6.05h2.18v5.4c0,1.5,0.74,2.32,2.03,2.32c1.28,0,2.14-0.86,2.14-2.36v-5.37h1.78
			c0.38-0.11,0.56-0.27,0.56-0.5c0-0.27-0.07-0.85-0.49-1.57h2.09c0.27,1.15,0.27,1.71,0.27,1.87c-0.02,1.1-0.7,1.8-2.03,2.07v7.63
			h-2.18v-1.48c-0.63,0.92-1.51,1.67-2.97,1.67C1405.57,4573.2,1404.35,4571.78,1404.35,4569.54z"/>
	</g>
	<g>
		<path fill="#0063B0" d="M1187.51,4100.4h5.15c0.76,0,1.43,0.1,2.03,0.31c0.59,0.21,1.1,0.51,1.51,0.89
			c0.41,0.38,0.73,0.84,0.95,1.38c0.22,0.53,0.33,1.12,0.33,1.77v0.04c0,0.73-0.13,1.37-0.4,1.93c-0.26,0.55-0.63,1.01-1.09,1.39
			c-0.46,0.37-1,0.65-1.62,0.84c-0.62,0.19-1.28,0.28-1.99,0.28h-2.11v3.78h-2.77V4100.4z M1192.48,4106.75
			c0.7,0,1.24-0.18,1.62-0.55c0.38-0.37,0.58-0.82,0.58-1.36v-0.04c0-0.62-0.2-1.1-0.6-1.42c-0.4-0.32-0.95-0.49-1.65-0.49h-2.14
			v3.85H1192.48z"/>
		<path fill="#0063B0" d="M1197.34,4110.12h2.92v2.88h-2.92V4110.12z"/>
		<path fill="#0063B0" d="M1208.28,4100.4h2.56l5.9,7.76v-7.76h2.74v12.6h-2.36l-6.1-8.01v8.01h-2.74V4100.4z"/>
		<path fill="#0063B0" d="M1228.57,4113.22c-0.98,0-1.88-0.16-2.69-0.49c-0.81-0.32-1.51-0.77-2.09-1.35s-1.04-1.26-1.36-2.05
			s-0.49-1.66-0.49-2.59v-0.04c0-0.9,0.17-1.74,0.5-2.53c0.33-0.79,0.79-1.48,1.38-2.07c0.59-0.59,1.28-1.06,2.09-1.4
			c0.8-0.34,1.69-0.51,2.65-0.51c0.56,0,1.08,0.04,1.54,0.12s0.89,0.19,1.29,0.33c0.4,0.14,0.77,0.32,1.12,0.54
			c0.35,0.22,0.68,0.46,1.01,0.74l-1.75,2.11c-0.24-0.2-0.48-0.38-0.72-0.54c-0.24-0.16-0.49-0.29-0.75-0.4
			c-0.26-0.11-0.54-0.19-0.84-0.25c-0.3-0.06-0.63-0.09-0.99-0.09c-0.5,0-0.98,0.1-1.41,0.31c-0.44,0.21-0.82,0.49-1.15,0.85
			c-0.33,0.35-0.59,0.77-0.77,1.24c-0.19,0.47-0.28,0.98-0.28,1.52v0.04c0,0.58,0.09,1.11,0.28,1.59c0.19,0.49,0.45,0.91,0.79,1.27
			c0.34,0.36,0.74,0.64,1.21,0.84c0.46,0.2,0.97,0.3,1.54,0.3c1.03,0,1.9-0.25,2.61-0.76v-1.8h-2.79v-2.39h5.47v5.47
			c-0.65,0.55-1.42,1.02-2.31,1.41S1229.72,4113.22,1228.57,4113.22z"/>
		<path fill="#0063B0" d="M1236.62,4100.4h2.77v4.99h5.11v-4.99h2.77v12.6h-2.77v-5.06h-5.11v5.06h-2.77V4100.4z"/>
		<path fill="#0063B0" d="M1250.42,4100.4h2.77v12.6h-2.77V4100.4z"/>
		<path fill="#0063B0" d="M1256.34,4100.4h9.5v2.47h-6.75v2.56h5.94v2.47h-5.94v2.65h6.84v2.47h-9.59V4100.4z M1259.82,4096.4h2.59
			l2.21,2.83h-2.11l-1.42-1.19l-1.42,1.19h-2.07L1259.82,4096.4z"/>
		<path fill="#0063B0" d="M1268.4,4100.4h2.55l5.9,7.76v-7.76h2.74v12.6h-2.36l-6.1-8.01v8.01h-2.74V4100.4z"/>
		<path fill="#0063B0" d="M1293.93,4113.22c-0.92,0-1.78-0.17-2.57-0.5c-0.79-0.34-1.48-0.79-2.05-1.38s-1.03-1.27-1.35-2.06
			s-0.49-1.64-0.49-2.54v-0.04c0-0.9,0.16-1.74,0.49-2.53s0.77-1.48,1.35-2.07c0.58-0.59,1.27-1.06,2.07-1.4
			c0.8-0.34,1.69-0.51,2.66-0.51c0.59,0,1.12,0.05,1.61,0.14s0.93,0.23,1.32,0.4c0.4,0.17,0.76,0.37,1.1,0.61
			c0.33,0.24,0.65,0.5,0.94,0.79l-1.76,2.03c-0.49-0.44-0.99-0.79-1.5-1.04s-1.08-0.38-1.72-0.38c-0.53,0-1.02,0.1-1.47,0.31
			c-0.45,0.2-0.84,0.49-1.16,0.85c-0.32,0.36-0.58,0.78-0.76,1.25c-0.18,0.47-0.27,0.98-0.27,1.52v0.04c0,0.54,0.09,1.05,0.27,1.53
			c0.18,0.48,0.43,0.9,0.75,1.26c0.32,0.36,0.7,0.64,1.15,0.85s0.94,0.32,1.49,0.32c0.72,0,1.33-0.13,1.83-0.4
			c0.5-0.26,0.99-0.62,1.49-1.08l1.76,1.78c-0.32,0.35-0.66,0.66-1.01,0.94c-0.35,0.28-0.73,0.51-1.14,0.71
			c-0.41,0.2-0.87,0.35-1.36,0.45C1295.09,4113.17,1294.54,4113.22,1293.93,4113.22z"/>
		<path fill="#0063B0" d="M1306.56,4113.2c-1.69,0-3.02-0.47-4-1.4c-0.97-0.94-1.46-2.33-1.46-4.19v-7.2h2.77v7.13
			c0,1.03,0.24,1.81,0.72,2.33c0.48,0.52,1.14,0.78,2,0.78c0.85,0,1.52-0.25,2-0.76s0.72-1.26,0.72-2.27v-7.22h0.56v-0.02
			c0.01,0.01,0.04,0.02,0.07,0.02h0.99c0.34-0.07,0.58-0.24,0.73-0.51c0.15-0.27,0.22-0.62,0.21-1.05h2.21
			c0,0.74-0.16,1.37-0.48,1.88c-0.32,0.51-0.82,0.86-1.52,1.05v5.74c0,0.96-0.13,1.79-0.39,2.5c-0.26,0.71-0.63,1.3-1.11,1.77
			s-1.06,0.83-1.75,1.06C1308.17,4113.08,1307.4,4113.2,1306.56,4113.2z M1307.37,4096.04l2.36,1.03l-2.34,2.16h-2.02
			L1307.37,4096.04z"/>
		<path fill="#0063B0" d="M1320.17,4113.2c-1.69,0-3.02-0.47-4-1.4c-0.97-0.94-1.46-2.33-1.46-4.19v-7.2h2.77v7.13
			c0,1.03,0.24,1.81,0.72,2.33c0.48,0.52,1.15,0.78,2,0.78c0.85,0,1.52-0.25,2-0.76c0.48-0.5,0.72-1.26,0.72-2.27v-7.22h2.77v7.11
			c0,0.96-0.13,1.79-0.39,2.5c-0.26,0.71-0.63,1.3-1.11,1.77c-0.48,0.47-1.06,0.83-1.75,1.06
			C1321.77,4113.08,1321.01,4113.2,1320.17,4113.2z"/>
		<path fill="#0063B0" d="M1340.94,4111.78c-0.52,0.42-1.08,0.76-1.68,1.02c-0.61,0.26-1.27,0.39-2.01,0.39
			c-0.6,0-1.16-0.08-1.67-0.25s-0.96-0.41-1.34-0.73s-0.67-0.7-0.89-1.14c-0.22-0.44-0.32-0.95-0.32-1.51v-0.04
			c0-0.8,0.21-1.49,0.63-2.06s1.03-1.04,1.82-1.4c-0.31-0.43-0.54-0.85-0.67-1.26s-0.21-0.83-0.21-1.26v-0.04
			c0-0.43,0.08-0.85,0.25-1.24c0.17-0.4,0.41-0.75,0.74-1.05c0.32-0.31,0.72-0.55,1.2-0.74c0.47-0.19,1.02-0.28,1.63-0.28
			c0.54,0,1.03,0.08,1.46,0.24c0.43,0.16,0.8,0.39,1.12,0.67c0.31,0.29,0.55,0.62,0.72,1.01s0.25,0.8,0.25,1.24v0.04
			c0,0.42-0.06,0.8-0.19,1.14s-0.31,0.64-0.54,0.91c-0.23,0.26-0.51,0.5-0.84,0.7c-0.32,0.2-0.68,0.38-1.08,0.54l1.67,1.67
			c0.2-0.32,0.41-0.67,0.61-1.04s0.41-0.74,0.61-1.12l2.03,1.12c-0.24,0.44-0.5,0.89-0.77,1.35s-0.57,0.89-0.88,1.31l1.85,1.85
			l-2.03,1.42L1340.94,4111.78z M1337.58,4110.91c0.31,0,0.62-0.06,0.93-0.19c0.31-0.13,0.6-0.3,0.89-0.53l-2.41-2.45
			c-0.42,0.22-0.72,0.47-0.9,0.76s-0.27,0.59-0.27,0.9v0.04c0,0.44,0.16,0.8,0.5,1.07
			C1336.64,4110.78,1337.06,4110.91,1337.58,4110.91z M1337.87,4105.22c0.55-0.2,0.97-0.43,1.25-0.69c0.28-0.26,0.42-0.58,0.42-0.98
			v-0.04c0-0.36-0.11-0.64-0.33-0.85s-0.51-0.32-0.85-0.32c-0.37,0-0.67,0.12-0.89,0.35c-0.22,0.23-0.33,0.54-0.33,0.93v0.04
			c0,0.28,0.06,0.53,0.17,0.76C1337.41,4104.66,1337.6,4104.92,1337.87,4105.22z"/>
		<path fill="#0063B0" d="M1351.85,4100.4h5.15c0.76,0,1.43,0.1,2.02,0.31c0.59,0.21,1.1,0.51,1.51,0.89
			c0.41,0.38,0.73,0.84,0.95,1.38c0.22,0.53,0.33,1.12,0.33,1.77v0.04c0,0.73-0.13,1.37-0.4,1.93c-0.26,0.55-0.63,1.01-1.09,1.39
			c-0.46,0.37-1,0.65-1.62,0.84c-0.62,0.19-1.28,0.28-1.99,0.28h-2.11v3.78h-2.77V4100.4z M1356.82,4106.75
			c0.7,0,1.24-0.18,1.62-0.55c0.38-0.37,0.58-0.82,0.58-1.36v-0.04c0-0.62-0.2-1.1-0.6-1.42c-0.4-0.32-0.95-0.49-1.65-0.49h-2.14
			v3.85H1356.82z"/>
		<path fill="#0063B0" d="M1363.87,4100.4h2.77v4.99h5.11v-4.99h2.77v12.6h-2.77v-5.06h-5.11v5.06h-2.77V4100.4z"/>
		<path fill="#0063B0" d="M1381.87,4100.31h2.56l5.4,12.69h-2.9l-1.15-2.83h-5.33l-1.15,2.83h-2.83L1381.87,4100.31z
			 M1384.79,4107.73l-1.67-4.09l-1.67,4.09H1384.79z M1384.2,4096.04l2.36,1.03l-2.34,2.16h-2.02L1384.2,4096.04z"/>
		<path fill="#0063B0" d="M1393.09,4102.96h-3.83v-2.56h10.44v2.56h-3.83V4113h-2.77V4102.96z"/>
		<path fill="#0063B0" d="M1410.15,4102.96h-3.83v-2.56h10.44v2.56h-3.83V4113h-2.77V4102.96z"/>
		<path fill="#0063B0" d="M1418.88,4100.4h5.76c1.6,0,2.82,0.43,3.67,1.28c0.72,0.72,1.08,1.68,1.08,2.88v0.04
			c0,1.02-0.25,1.85-0.75,2.49c-0.5,0.64-1.15,1.11-1.95,1.41l3.08,4.5h-3.24l-2.7-4.03h-2.18v4.03h-2.77V4100.4z M1424.46,4106.52
			c0.68,0,1.21-0.16,1.58-0.49s0.55-0.76,0.55-1.3v-0.04c0-0.6-0.19-1.05-0.58-1.35c-0.38-0.3-0.92-0.45-1.6-0.45h-2.75v3.62
			H1424.46z"/>
		<path fill="#0063B0" d="M1432.02,4100.4h2.77v12.6h-2.77V4100.4z"/>
		<path fill="#0063B0" d="M1437.94,4100.4h9.5v2.47h-6.75v2.56h5.94v2.47h-5.94v2.65h6.84v2.47h-9.59V4100.4z M1441.42,4096.4h2.59
			l2.21,2.83h-2.11l-1.42-1.19l-1.42,1.19h-2.07L1441.42,4096.4z M1445.32,4096.04c0.73-0.02,1.1-0.16,1.1-0.4
			c0-0.06-0.03-0.12-0.1-0.17c-0.07-0.05-0.17-0.08-0.3-0.08c-0.12,0-0.26,0.01-0.41,0.02s-0.35,0.11-0.59,0.31l-1.08-0.77
			c0.61-0.53,1.36-0.78,2.25-0.76c0.6,0.01,1.09,0.15,1.48,0.4c0.38,0.26,0.57,0.6,0.56,1.04c-0.01,0.4-0.15,0.7-0.41,0.91
			s-0.59,0.36-0.97,0.46l-0.04,0.36h-1.37L1445.32,4096.04z"/>
		<path fill="#0063B0" d="M1450,4100.4h2.56l5.9,7.76v-7.76h2.74v12.6h-2.36l-6.1-8.01v8.01H1450V4100.4z"/>
	</g>
	<g id="data_image_svg_xml_-_2020-10-17T115628.615" transform="translate(925.694 4070.388) rotate(-90)">
		<path fill="#FFFFFF" d="M29.81,25.21l-1.06-1.06l-10.3-10.3l-1.06-1.06l1.06-1.06l10.3-10.3l1.06-1.06l1.06,1.06l2.92,2.92
			l1.06,1.06l-1.06,1.06l-6.32,6.31l6.32,6.31l1.06,1.06l-1.06,1.06l-2.92,2.92L29.81,25.21z"/>
		<path fill="#1477D2" d="M29.81,2.5l-10.3,10.3l10.3,10.3l2.92-2.92l-7.38-7.37l7.38-7.37L29.81,2.5 M29.81-1.74l2.12,2.12
			l2.92,2.92l2.12,2.12l-2.12,2.12L29.6,12.8l5.25,5.25l2.12,2.12l-2.12,2.12l-2.92,2.92l-2.12,2.12l-2.12-2.12l-10.3-10.3
			l-2.12-2.12l2.12-2.12l10.3-10.3L29.81-1.74z"/>
	</g>
	<g id="data_image_svg_xml_-_2020-10-17T115628.615-2" transform="translate(1156.61 4118.065) rotate(180)">
		<path fill="#FFFFFF" d="M29.81,25.21l-1.06-1.06l-10.3-10.3l-1.06-1.06l1.06-1.06l10.3-10.3l1.06-1.06l1.06,1.06l2.92,2.92
			l1.06,1.06l-1.06,1.06l-6.32,6.31l6.32,6.31l1.06,1.06l-1.06,1.06l-2.92,2.92L29.81,25.21z"/>
		<path fill="#1477D2" d="M29.81,2.5l-10.3,10.3l10.3,10.3l2.92-2.92l-7.38-7.37l7.38-7.37L29.81,2.5 M29.81-1.74l2.12,2.12
			l2.92,2.92l2.12,2.12l-2.12,2.12L29.6,12.8l5.25,5.25l2.12,2.12l-2.12,2.12l-2.92,2.92l-2.12,2.12l-2.12-2.12l-10.3-10.3
			l-2.12-2.12l2.12-2.12l10.3-10.3L29.81-1.74z"/>
	</g>
	<g id="data_image_svg_xml_-_2020-10-17T115628.615-3" transform="translate(925.694 4231.388) rotate(-90)">
		<path fill="#FFFFFF" d="M29.81,25.21l-1.06-1.06l-10.3-10.3l-1.06-1.06l1.06-1.06l10.3-10.3l1.06-1.06l1.06,1.06l2.92,2.92
			l1.06,1.06l-1.06,1.06l-6.32,6.31l6.32,6.31l1.06,1.06l-1.06,1.06l-2.92,2.92L29.81,25.21z"/>
		<path fill="#1477D2" d="M29.81,2.5l-10.3,10.3l10.3,10.3l2.92-2.92l-7.38-7.37l7.38-7.37L29.81,2.5 M29.81-1.74l2.12,2.12
			l2.92,2.92l2.12,2.12l-2.12,2.12L29.6,12.8l5.25,5.25l2.12,2.12l-2.12,2.12l-2.92,2.92l-2.12,2.12l-2.12-2.12l-10.3-10.3
			l-2.12-2.12l2.12-2.12l10.3-10.3L29.81-1.74z"/>
	</g>
	<g id="data_image_svg_xml_-_2020-10-17T115628.615-4" transform="translate(848.61 4371.065) rotate(180)">
		<path fill="#FFFFFF" d="M29.81,25.21l-1.06-1.06l-10.3-10.3l-1.06-1.06l1.06-1.06l10.3-10.3l1.06-1.06l1.06,1.06l2.92,2.92
			l1.06,1.06l-1.06,1.06l-6.32,6.31l6.32,6.31l1.06,1.06l-1.06,1.06l-2.92,2.92L29.81,25.21z"/>
		<path fill="#167EDF" d="M29.81,2.5l-10.3,10.3l10.3,10.3l2.92-2.92l-7.38-7.37l7.38-7.37L29.81,2.5 M29.81-1.74l2.12,2.12
			l2.92,2.92l2.12,2.12l-2.12,2.12L29.6,12.8l5.25,5.25l2.12,2.12l-2.12,2.12l-2.92,2.92l-2.12,2.12l-2.12-2.12l-10.3-10.3
			l-2.12-2.12l2.12-2.12l10.3-10.3L29.81-1.74z"/>
	</g>
	<g id="data_image_svg_xml_-_2020-10-17T115628.615-5" transform="translate(461.61 4371.065) rotate(180)">
		<path fill="#FFFFFF" d="M29.81,25.21l-1.06-1.06l-10.3-10.3l-1.06-1.06l1.06-1.06l10.3-10.3l1.06-1.06l1.06,1.06l2.92,2.92
			l1.06,1.06l-1.06,1.06l-6.32,6.31l6.32,6.31l1.06,1.06l-1.06,1.06l-2.92,2.92L29.81,25.21z"/>
		<path fill="#1782E6" d="M29.81,2.5l-10.3,10.3l10.3,10.3l2.92-2.92l-7.38-7.37l7.38-7.37L29.81,2.5 M29.81-1.74l2.12,2.12
			l2.92,2.92l2.12,2.12l-2.12,2.12L29.6,12.8l5.25,5.25l2.12,2.12l-2.12,2.12l-2.92,2.92l-2.12,2.12l-2.12-2.12l-10.3-10.3
			l-2.12-2.12l2.12-2.12l10.3-10.3L29.81-1.74z"/>
	</g>
	<g id="data_image_svg_xml_-_2020-10-17T115628.615-6" transform="translate(1231.61 4371.065) rotate(180)">
		<path fill="#FFFFFF" d="M29.81,25.21l-1.06-1.06l-10.3-10.3l-1.06-1.06l1.06-1.06l10.3-10.3l1.06-1.06l1.06,1.06l2.92,2.92
			l1.06,1.06l-1.06,1.06l-6.32,6.31l6.32,6.31l1.06,1.06l-1.06,1.06l-2.92,2.92L29.81,25.21z"/>
		<path fill="#167DDD" d="M29.81,2.5l-10.3,10.3l10.3,10.3l2.92-2.92l-7.38-7.37l7.38-7.37L29.81,2.5 M29.81-1.74l2.12,2.12
			l2.92,2.92l2.12,2.12l-2.12,2.12L29.6,12.8l5.25,5.25l2.12,2.12l-2.12,2.12l-2.92,2.92l-2.12,2.12l-2.12-2.12l-10.3-10.3
			l-2.12-2.12l2.12-2.12l10.3-10.3L29.81-1.74z"/>
	</g>
	<g id="data_image_svg_xml_-_2020-10-17T115628.615-7" transform="translate(461.61 4474.065) rotate(180)">
		<path fill="#FFFFFF" d="M29.81,25.21l-1.06-1.06l-10.3-10.3l-1.06-1.06l1.06-1.06l10.3-10.3l1.06-1.06l1.06,1.06l2.92,2.92
			l1.06,1.06l-1.06,1.06l-6.32,6.31l6.32,6.31l1.06,1.06l-1.06,1.06l-2.92,2.92L29.81,25.21z"/>
		<path fill="#1783E8" d="M29.81,2.5l-10.3,10.3l10.3,10.3l2.92-2.92l-7.38-7.37l7.38-7.37L29.81,2.5 M29.81-1.74l2.12,2.12
			l2.92,2.92l2.12,2.12l-2.12,2.12L29.6,12.8l5.25,5.25l2.12,2.12l-2.12,2.12l-2.92,2.92l-2.12,2.12l-2.12-2.12l-10.3-10.3
			l-2.12-2.12l2.12-2.12l10.3-10.3L29.81-1.74z"/>
	</g>
	<g id="data_image_svg_xml_-_2020-10-17T115628.615-8" transform="translate(1231.61 4474.065) rotate(180)">
		<path fill="#FFFFFF" d="M29.81,25.21l-1.06-1.06l-10.3-10.3l-1.06-1.06l1.06-1.06l10.3-10.3l1.06-1.06l1.06,1.06l2.92,2.92
			l1.06,1.06l-1.06,1.06l-6.32,6.31l6.32,6.31l1.06,1.06l-1.06,1.06l-2.92,2.92L29.81,25.21z"/>
		<path fill="#167DDD" d="M29.81,2.5l-10.3,10.3l10.3,10.3l2.92-2.92l-7.38-7.37l7.38-7.37L29.81,2.5 M29.81-1.74l2.12,2.12
			l2.92,2.92l2.12,2.12l-2.12,2.12L29.6,12.8l5.25,5.25l2.12,2.12l-2.12,2.12l-2.92,2.92l-2.12,2.12l-2.12-2.12l-10.3-10.3
			l-2.12-2.12l2.12-2.12l10.3-10.3L29.81-1.74z"/>
	</g>
	<g id="data_image_svg_xml_-_2020-10-17T115628.615-9" transform="translate(461.61 4577.065) rotate(180)">
		<path fill="#FFFFFF" d="M29.81,25.21l-1.06-1.06l-10.3-10.3l-1.06-1.06l1.06-1.06l10.3-10.3l1.06-1.06l1.06,1.06l2.92,2.92
			l1.06,1.06l-1.06,1.06l-6.32,6.31l6.32,6.31l1.06,1.06l-1.06,1.06l-2.92,2.92L29.81,25.21z"/>
		<path fill="#1783E8" d="M29.81,2.5l-10.3,10.3l10.3,10.3l2.92-2.92l-7.38-7.37l7.38-7.37L29.81,2.5 M29.81-1.74l2.12,2.12
			l2.92,2.92l2.12,2.12l-2.12,2.12L29.6,12.8l5.25,5.25l2.12,2.12l-2.12,2.12l-2.92,2.92l-2.12,2.12l-2.12-2.12l-10.3-10.3
			l-2.12-2.12l2.12-2.12l10.3-10.3L29.81-1.74z"/>
	</g>
	<g id="data_image_svg_xml_-_2020-10-17T115628.615-10" transform="translate(1231.61 4577.065) rotate(180)">
		<path fill="#FFFFFF" d="M29.81,25.21l-1.06-1.06l-10.3-10.3l-1.06-1.06l1.06-1.06l10.3-10.3l1.06-1.06l1.06,1.06l2.92,2.92
			l1.06,1.06l-1.06,1.06l-6.32,6.31l6.32,6.31l1.06,1.06l-1.06,1.06l-2.92,2.92L29.81,25.21z"/>
		<path fill="#167DDD" d="M29.81,2.5l-10.3,10.3l10.3,10.3l2.92-2.92l-7.38-7.37l7.38-7.37L29.81,2.5 M29.81-1.74l2.12,2.12
			l2.92,2.92l2.12,2.12l-2.12,2.12L29.6,12.8l5.25,5.25l2.12,2.12l-2.12,2.12l-2.92,2.92l-2.12,2.12l-2.12-2.12l-10.3-10.3
			l-2.12-2.12l2.12-2.12l10.3-10.3L29.81-1.74z"/>
	</g>
	<g id="data_image_svg_xml_-_2020-10-17T115628.615-11" transform="translate(848.61 4474.065) rotate(180)">
		<path fill="#FFFFFF" d="M29.81,25.21l-1.06-1.06l-10.3-10.3l-1.06-1.06l1.06-1.06l10.3-10.3l1.06-1.06l1.06,1.06l2.92,2.92
			l1.06,1.06l-1.06,1.06l-6.32,6.31l6.32,6.31l1.06,1.06l-1.06,1.06l-2.92,2.92L29.81,25.21z"/>
		<path fill="#167EDF" d="M29.81,2.5l-10.3,10.3l10.3,10.3l2.92-2.92l-7.38-7.37l7.38-7.37L29.81,2.5 M29.81-1.74l2.12,2.12
			l2.92,2.92l2.12,2.12l-2.12,2.12L29.6,12.8l5.25,5.25l2.12,2.12l-2.12,2.12l-2.92,2.92l-2.12,2.12l-2.12-2.12l-10.3-10.3
			l-2.12-2.12l2.12-2.12l10.3-10.3L29.81-1.74z"/>
	</g>
	<g id="data_image_svg_xml_-_2020-10-17T115628.615-12" transform="translate(538.694 4231.388) rotate(-90)">
		<path fill="#FFFFFF" d="M29.81,25.21l-1.06-1.06l-10.3-10.3l-1.06-1.06l1.06-1.06l10.3-10.3l1.06-1.06l1.06,1.06l2.92,2.92
			l1.06,1.06l-1.06,1.06l-6.32,6.31l6.32,6.31l1.06,1.06l-1.06,1.06l-2.92,2.92L29.81,25.21z"/>
		<path fill="#1477D2" d="M29.81,2.5l-10.3,10.3l10.3,10.3l2.92-2.92l-7.38-7.37l7.38-7.37L29.81,2.5 M29.81-1.74l2.12,2.12
			l2.92,2.92l2.12,2.12l-2.12,2.12L29.6,12.8l5.25,5.25l2.12,2.12l-2.12,2.12l-2.92,2.92l-2.12,2.12l-2.12-2.12l-10.3-10.3
			l-2.12-2.12l2.12-2.12l10.3-10.3L29.81-1.74z"/>
	</g>
	<g id="data_image_svg_xml_-_2020-10-17T115628.615-13" transform="translate(1316.694 4231.388) rotate(-90)">
		<path fill="#FFFFFF" d="M29.81,25.21l-1.06-1.06l-10.3-10.3l-1.06-1.06l1.06-1.06l10.3-10.3l1.06-1.06l1.06,1.06l2.92,2.92
			l1.06,1.06l-1.06,1.06l-6.32,6.31l6.32,6.31l1.06,1.06l-1.06,1.06l-2.92,2.92L29.81,25.21z"/>
		<path fill="#1477D2" d="M29.81,2.5l-10.3,10.3l10.3,10.3l2.92-2.92l-7.38-7.37l7.38-7.37L29.81,2.5 M29.81-1.74l2.12,2.12
			l2.92,2.92l2.12,2.12l-2.12,2.12L29.6,12.8l5.25,5.25l2.12,2.12l-2.12,2.12l-2.92,2.92l-2.12,2.12l-2.12-2.12l-10.3-10.3
			l-2.12-2.12l2.12-2.12l10.3-10.3L29.81-1.74z"/>
	</g>
</g>
</svg>
