<?xml version="1.0" encoding="utf-8"?>
<!-- Generator: Adobe Illustrator 25.0.1, SVG Export Plug-In . SVG Version: 6.00 Build 0)  -->
<svg version="1.2" baseProfile="tiny" id="Layer_1" xmlns="http://www.w3.org/2000/svg" xmlns:xlink="http://www.w3.org/1999/xlink"
	 x="0px" y="0px" viewBox="0 0 62.09 62.09" overflow="visible" xml:space="preserve">
<path id="Path_182" fill="#0063B0" d="M2.08,35.19H0v25.87c-0.03,0.54,0.38,1,0.91,1.04c0.04,0,0.08,0,0.12,0h26.91v-2.07H2.08
	L2.08,35.19z"/>
<path id="Path_183" fill="#0063B0" d="M60.02,60.02H34.15v2.07h26.91c0.54,0.03,1-0.38,1.03-0.91c0-0.04,0-0.08,0-0.12V35.19h-2.07
	V60.02z"/>
<path id="Path_184" fill="#0063B0" d="M61.06,0H34.15v2.07h25.87v6.2H37.26v2.07h22.76v18.62h2.07V1.04c0.03-0.54-0.38-1-0.91-1.04
	C61.14,0,61.1,0,61.06,0z"/>
<path id="Path_185" fill="#0063B0" d="M2.08,10.35h22.76V8.28H2.08v-6.2h25.87V0H1.04C0.5-0.03,0.03,0.38,0,0.92C0,0.96,0,1,0,1.04
	v27.93h2.07L2.08,10.35z"/>
<rect id="Rectangle_67" x="4.14" y="4.14" fill="#0063B0" width="2.07" height="2.07"/>
<rect id="Rectangle_68" x="8.28" y="4.14" fill="#0063B0" width="2.07" height="2.07"/>
<rect id="Rectangle_69" x="12.42" y="4.14" fill="#0063B0" width="2.07" height="2.07"/>
<rect id="Rectangle_70" x="53.82" y="4.14" fill="#0063B0" width="4.14" height="2.07"/>
<path id="Path_186" fill="#E50019" d="M16.56,16.56V47.6c-0.03,0.54,0.38,1.01,0.92,1.04c0.04,0,0.08,0,0.12,0h26.9
	c0.54,0.03,1-0.38,1.04-0.92c0-0.04,0-0.08,0-0.12V16.56c0.03-0.54-0.38-1-0.92-1.04c-0.04,0-0.08,0-0.12,0H17.6
	c-0.54-0.03-1,0.38-1.04,0.92C16.56,16.48,16.56,16.52,16.56,16.56z M43.47,36.22H18.63v-8.27h24.84V36.22z M43.47,46.57H18.63V38.3
	h24.84V46.57z M18.63,17.6h24.84v8.27H18.63V17.6z"/>
<rect id="Rectangle_71" x="20.7" y="19.66" fill="#E50019" width="2.07" height="4.14"/>
<rect id="Rectangle_72" x="24.84" y="19.66" fill="#E50019" width="2.07" height="4.14"/>
<rect id="Rectangle_73" x="28.97" y="19.66" fill="#E50019" width="2.07" height="4.14"/>
<rect id="Rectangle_74" x="20.7" y="30.01" fill="#E50019" width="2.07" height="4.14"/>
<rect id="Rectangle_75" x="24.84" y="30.01" fill="#E50019" width="2.07" height="4.14"/>
<rect id="Rectangle_76" x="28.97" y="30.01" fill="#E50019" width="2.07" height="4.14"/>
<rect id="Rectangle_77" x="35.19" y="20.7" fill="#E50019" width="2.07" height="2.07"/>
<rect id="Rectangle_78" x="39.32" y="20.7" fill="#E50019" width="2.07" height="2.07"/>
<rect id="Rectangle_79" x="35.19" y="31.05" fill="#E50019" width="2.07" height="2.07"/>
<rect id="Rectangle_80" x="39.32" y="31.05" fill="#E50019" width="2.07" height="2.07"/>
<rect id="Rectangle_81" x="30.01" y="41.39" fill="#E50019" width="6.21" height="2.07"/>
<rect id="Rectangle_82" x="38.29" y="41.39" fill="#E50019" width="2.07" height="2.07"/>
<rect id="Rectangle_83" x="25.87" y="41.39" fill="#E50019" width="2.07" height="2.07"/>
<rect id="Rectangle_84" x="21.74" y="41.39" fill="#E50019" width="2.07" height="2.07"/>
<path id="Path_187" fill="#0063B0" d="M53.5,29.7l-1.45-1.45l-3.1,3.1c-0.4,0.38-0.42,1.01-0.04,1.41c0.01,0.01,0.02,0.02,0.04,0.04
	l3.1,3.11l1.45-1.45l-1.34-1.35h9.93v-2.07h-9.93L53.5,29.7z"/>
<path id="Path_188" fill="#0063B0" d="M8.59,34.47l1.45,1.45l3.1-3.11c0.4-0.38,0.42-1.01,0.04-1.41c-0.01-0.01-0.02-0.02-0.04-0.04
	l-3.1-3.1L8.59,29.7l1.34,1.34H0v2.07h9.93L8.59,34.47z"/>
<path id="Path_189" fill="#0063B0" d="M34.88,55.16l-3.11-3.11c-0.39-0.4-1.03-0.41-1.43-0.02c-0.01,0.01-0.01,0.01-0.02,0.02
	l-3.11,3.11l1.45,1.45l1.34-1.35v6.83h2.08v-6.83l1.34,1.35L34.88,55.16z"/>
<path id="Path_190" fill="#0063B0" d="M27.22,9.01l3.11,3.1c0.37,0.4,1,0.42,1.4,0.05c0.02-0.02,0.03-0.03,0.05-0.05l3.11-3.1
	l-1.45-1.45L32.09,8.9V0h-2.08v8.9l-1.34-1.35L27.22,9.01z"/>
</svg>
