<?xml version="1.0" encoding="utf-8"?>
<!-- Generator: Adobe Illustrator 25.0.1, SVG Export Plug-In . SVG Version: 6.00 Build 0)  -->
<svg version="1.2" baseProfile="tiny" id="Layer_1" xmlns="http://www.w3.org/2000/svg" xmlns:xlink="http://www.w3.org/1999/xlink"
	 x="0px" y="0px" viewBox="0 0 58.17 60.66" overflow="visible" xml:space="preserve">
<g>
	<path id="Path_162" fill="#0063B0" d="M48.84,31.88V27.3c3.36-0.1,6.03-2.85,6.03-6.21v-3.84c1.07-0.01,1.93-0.88,1.93-1.95v-4.6
		c0-1.07-0.87-1.94-1.94-1.94h-1.84V1.19c0-0.65-0.53-1.19-1.19-1.19c-0.65,0-1.19,0.53-1.19,1.19v7.58h-6V1.19
		c0-0.65-0.53-1.18-1.18-1.18c-0.65,0-1.18,0.53-1.18,1.18v7.58h-1.84c-1.07,0-1.94,0.87-1.95,1.94v4.6c0,1.07,0.86,1.93,1.93,1.94
		v3.84c0,3.36,2.67,6.11,6.03,6.21v4.58c-5.77,0.66-9.92,5.88-9.26,11.65c0.56,4.86,4.39,8.7,9.26,9.26v0.93
		c0,2.52-2.04,4.56-4.56,4.56H20.76c-2.52,0-4.55-2.05-4.56-4.56v-3.35H26.8c1.79,0,3.25-1.46,3.25-3.25V33.13
		c0-0.65-0.53-1.18-1.19-1.18c-0.65,0-1.18,0.53-1.18,1.18v13.99c-0.01,0.48-0.4,0.87-0.88,0.88H3.25c-0.48-0.01-0.87-0.4-0.88-0.88
		V8.5c0.01-0.48,0.4-0.87,0.88-0.88H26.8c0.48,0.01,0.87,0.4,0.88,0.88V22.5c0,0.65,0.53,1.19,1.18,1.19s1.19-0.53,1.19-1.18
		c0,0,0,0,0,0V8.5c0-1.79-1.46-3.25-3.25-3.25h-2.24V3.82c0-2.1-1.71-3.81-3.81-3.81H9.29c-2.1,0-3.8,1.71-3.81,3.81v1.44H3.25
		C1.45,5.26,0,6.71,0,8.51v38.62c0,1.79,1.45,3.25,3.25,3.25h10.59v3.35c0,3.82,3.1,6.92,6.92,6.93h21.15
		c3.82-0.01,6.92-3.11,6.93-6.93V52.8c5.77-0.66,9.92-5.88,9.26-11.65C57.54,36.28,53.7,32.44,48.84,31.88L48.84,31.88z M7.85,3.82
		c0-0.79,0.64-1.44,1.44-1.44h11.46c0.79,0,1.44,0.65,1.44,1.44v1.44H7.85V3.82z M40.88,11.14h13.56v3.76H40.88L40.88,11.14z
		 M42.81,21.1v-3.83h9.69v3.83c0,2.12-1.71,3.84-3.83,3.84h-2.03C44.52,24.94,42.81,23.22,42.81,21.1L42.81,21.1z M47.65,50.49
		c-4.5,0-8.16-3.64-8.16-8.14c0-4.5,3.64-8.16,8.14-8.16c4.5,0,8.16,3.64,8.16,8.14c0,0,0,0,0,0.01
		C55.8,46.84,52.15,50.49,47.65,50.49L47.65,50.49z"/>
	<path id="Path_163" fill="#E50019" d="M49.61,41.15h-2l1.58-3.18c0.28-0.59,0.04-1.3-0.55-1.58c-0.58-0.28-1.27-0.04-1.57,0.53
		l-2.43,4.89c-0.28,0.6-0.03,1.31,0.57,1.6c0.15,0.07,0.32,0.11,0.49,0.12h2l-1.58,3.18c-0.3,0.58-0.08,1.3,0.5,1.6
		c0.58,0.3,1.3,0.08,1.6-0.5c0.01-0.02,0.02-0.03,0.02-0.05l2.43-4.89c0.02-0.04,0.04-0.09,0.06-0.14c0.21-0.63-0.14-1.31-0.77-1.51
		C49.85,41.17,49.73,41.15,49.61,41.15L49.61,41.15z"/>
	<path id="Path_164" fill="#E50019" d="M6.15,10.23c-0.65,0-1.18,0.53-1.18,1.18c0,0,0,0,0,0v32.8c0,0.65,0.53,1.18,1.18,1.18h17.74
		c0.65,0,1.18-0.53,1.18-1.18v-32.8c0-0.65-0.53-1.18-1.18-1.19c0,0,0,0,0,0H6.15z M22.7,43.03H7.34v-5.68h15.37L22.7,43.03z
		 M22.7,34.98H7.34v-5.28h15.37L22.7,34.98z M22.7,27.33H7.34v-5.98h15.37L22.7,27.33z M22.7,18.98H7.34V12.6h15.37L22.7,18.98z"/>
	<path id="Path_165" fill="#0063B0" d="M28.86,26.63c-0.65,0-1.18,0.53-1.18,1.19l0,0c0,0.65,0.54,1.18,1.19,1.18
		c0.65,0,1.18-0.54,1.18-1.19C30.05,27.15,29.52,26.62,28.86,26.63L28.86,26.63z"/>
</g>
</svg>
