<?xml version="1.0" encoding="utf-8"?>
<!-- Generator: Adobe Illustrator 25.0.1, SVG Export Plug-In . SVG Version: 6.00 Build 0)  -->
<svg version="1.2" baseProfile="tiny" id="Layer_1" xmlns="http://www.w3.org/2000/svg" xmlns:xlink="http://www.w3.org/1999/xlink"
	 x="0px" y="0px" viewBox="0 0 68.24 68.24" overflow="visible" xml:space="preserve">
<g>
	<path id="Path_106" fill="#0063B0" d="M61.13,51.18H52.6c-0.79,0-1.42-0.64-1.42-1.42s0.64-1.42,1.42-1.42h8.53
		c2.35,0,4.26-1.91,4.27-4.27v-19.9c0-2.35-1.91-4.26-4.27-4.27H7.11c-2.35,0-4.26,1.91-4.26,4.27v19.9c0,2.35,1.91,4.26,4.26,4.27
		h8.53c0.79,0,1.42,0.64,1.42,1.42s-0.64,1.42-1.42,1.42H7.11C3.18,51.17,0,47.99,0,44.07v-19.9c0-3.92,3.18-7.1,7.11-7.11h54.03
		c3.92,0,7.1,3.18,7.11,7.11v19.9C68.24,48,65.06,51.18,61.13,51.18z"/>
	<path id="Path_107" fill="#E50019" d="M41.23,59.71H24.17c-0.79,0-1.42-0.64-1.42-1.42s0.64-1.42,1.42-1.42l0,0h17.06
		c0.79,0,1.42,0.64,1.42,1.42S42.01,59.71,41.23,59.71z"/>
	<path id="Path_108" fill="#E50019" d="M41.23,54.02H24.17c-0.79,0-1.42-0.64-1.42-1.42c0-0.78,0.64-1.42,1.42-1.42h17.06
		c0.79,0,1.42,0.63,1.42,1.42S42.02,54.02,41.23,54.02C41.23,54.02,41.23,54.02,41.23,54.02z"/>
	<path id="Path_109" fill="#E50019" d="M29.86,48.34h-5.69c-0.79,0-1.42-0.64-1.42-1.42s0.64-1.42,1.42-1.42h5.69
		c0.79,0,1.42,0.64,1.42,1.42S30.64,48.34,29.86,48.34z"/>
	<path id="Path_110" fill="#0063B0" d="M52.6,19.9c-0.78,0-1.42-0.64-1.42-1.42V7.11c0-2.35-1.91-4.26-4.26-4.27H21.32
		c-2.35,0-4.26,1.91-4.26,4.27v11.37c-0.02,0.79-0.67,1.4-1.46,1.38c-0.76-0.02-1.36-0.63-1.38-1.38V7.11c0-3.92,3.18-7.1,7.11-7.11
		h25.59c3.92,0,7.1,3.19,7.11,7.11v11.37C54.02,19.27,53.39,19.9,52.6,19.9C52.6,19.9,52.6,19.9,52.6,19.9z"/>
	<path id="Path_111" fill="#0063B0" d="M46.92,68.24H21.32c-3.92-0.01-7.1-3.18-7.11-7.11V38.38c0-0.78,0.64-1.42,1.42-1.42H52.6
		c0.78,0,1.42,0.64,1.42,1.42v22.75C54.02,65.06,50.84,68.23,46.92,68.24L46.92,68.24z M17.06,39.8v21.33
		c0,2.35,1.91,4.26,4.26,4.26h25.59c2.35,0,4.26-1.91,4.26-4.26V39.8H17.06z"/>
</g>
</svg>
