<?xml version="1.0" encoding="utf-8"?>
<!-- Generator: Adobe Illustrator 25.0.1, SVG Export Plug-In . SVG Version: 6.00 Build 0)  -->
<svg version="1.2" baseProfile="tiny" id="Layer_1" xmlns="http://www.w3.org/2000/svg" xmlns:xlink="http://www.w3.org/1999/xlink"
	 x="0px" y="0px" viewBox="0 0 75 75" overflow="visible" xml:space="preserve">
<g id="Group_2221" transform="translate(84 6) rotate(90)">
	<g transform="matrix(0, -1, 1, 0, -6, 84)">
		<path id="Rectangle_1407-2" fill="#F5F5F5" d="M75,37.5L75,37.5C75,58.21,58.21,75,37.5,75l0,0C16.79,75,0,58.21,0,37.5l0,0
			C0,16.79,16.79,0,37.5,0l0,0C58.21,0,75,16.79,75,37.5z"/>
	</g>
	<g id="Group_1901" transform="translate(25.095 29.392)">
		<path id="data_image_svg_xml_48_" fill="#0063B0" d="M1.51,24.01L-6,16.5L1.5,9l1.96,1.96l-4.15,4.15h16.85v2.77H-0.7l4.16,4.17
			L1.51,24.01z"/>
	</g>
</g>
</svg>
