<?xml version="1.0" encoding="utf-8"?>
<!-- Generator: Adobe Illustrator 25.0.1, SVG Export Plug-In . SVG Version: 6.00 Build 0)  -->
<svg version="1.2" baseProfile="tiny" id="Layer_1" xmlns="http://www.w3.org/2000/svg" xmlns:xlink="http://www.w3.org/1999/xlink"
	 x="0px" y="0px" viewBox="0 0 68.4 73.61" overflow="visible" xml:space="preserve">
<g>
	<path id="Path_100" fill="#E50019" d="M43.01,42.46c0.19,0.15,0.42,0.23,0.67,0.23c0.33,0,0.64-0.15,0.85-0.41
		c1.84-2.32,2.84-5.2,2.83-8.17c0-7.31-5.92-13.23-13.23-13.23S20.89,26.8,20.89,34.11c-0.01,2.96,0.99,5.84,2.83,8.17
		c0.37,0.47,1.05,0.55,1.52,0.18s0.55-1.05,0.18-1.52c-1.54-1.95-2.37-4.35-2.36-6.83c0-6.11,4.96-11.07,11.07-11.07
		c6.11,0,11.07,4.96,11.07,11.07c0.01,2.48-0.83,4.89-2.36,6.83C42.46,41.41,42.54,42.09,43.01,42.46
		C43.01,42.46,43.01,42.46,43.01,42.46L43.01,42.46z"/>
	<path id="Path_101" fill="#E50019" d="M58.25,9.98C44.92-3.34,23.32-3.34,9.99,9.98c-13.32,13.33-13.32,34.93,0,48.25
		c0.55,0.55,1.11,1.08,1.7,1.58c0.45,0.39,1.13,0.35,1.52-0.1c0.39-0.45,0.35-1.13-0.1-1.52C-0.19,46.59-1.57,26.4,10.03,13.1
		c11.6-13.3,31.79-14.68,45.09-3.08c13.3,11.6,14.68,31.79,3.08,45.09c-0.95,1.09-1.98,2.12-3.08,3.08
		c-0.45,0.39-0.49,1.08-0.1,1.53c0.2,0.23,0.5,0.37,0.81,0.37c0.26,0,0.51-0.1,0.71-0.27c14.2-12.39,15.67-33.94,3.28-48.15
		C59.32,11.09,58.79,10.53,58.25,9.98L58.25,9.98z"/>
	<path id="Path_102" fill="#E50019" d="M58.82,34.11c0.01-5.16-1.6-10.19-4.61-14.38c-0.35-0.48-1.02-0.6-1.51-0.25
		c-0.48,0.35-0.6,1.02-0.25,1.51c2.75,3.82,4.22,8.42,4.21,13.12c-0.01,7.24-3.49,14.04-9.36,18.29c-0.49,0.35-0.6,1.02-0.25,1.5
		s1.02,0.6,1.5,0.25c0,0,0.01-0.01,0.01-0.01C55.01,49.5,58.83,42.05,58.82,34.11L58.82,34.11z"/>
	<path id="Path_103" fill="#E50019" d="M51.08,17.63c0.41-0.43,0.39-1.12-0.05-1.53c-9.95-9.34-25.58-8.85-34.93,1.1
		c-7.19,7.66-8.75,19.02-3.9,28.33c1.79,3.41,4.34,6.35,7.45,8.61c0.18,0.13,0.4,0.21,0.63,0.21c0.6,0,1.08-0.48,1.08-1.08
		c0-0.35-0.17-0.67-0.45-0.87c-10.1-7.28-12.39-21.37-5.11-31.47c7.28-10.1,21.37-12.39,31.47-5.11c0.79,0.57,1.55,1.19,2.26,1.86
		C49.99,18.09,50.68,18.07,51.08,17.63L51.08,17.63z"/>
	<path id="Path_104" fill="#0063B0" d="M36.37,31.94h-4.51c-1.11,0.01-2.07,0.78-2.31,1.86l-6.17,28.66
		c-0.13,0.58,0.24,1.15,0.82,1.28c0,0,0,0,0,0c0.07,0.02,0.15,0.02,0.23,0.02c0.51,0,0.95-0.35,1.06-0.85l6.17-28.66
		c0.02-0.09,0.1-0.16,0.19-0.16h4.51c0.1,0,0.18,0.06,0.2,0.16l2.02,9.36c0.13,0.58,0.7,0.95,1.28,0.83
		c0.58-0.13,0.95-0.7,0.83-1.28l-2.01-9.35C38.44,32.72,37.48,31.94,36.37,31.94L36.37,31.94z"/>
	<path id="Path_105" fill="#0063B0" d="M48.45,71.45h-1.67l-5.12-23.8c-0.13-0.58-0.7-0.95-1.28-0.83c-0.58,0.13-0.95,0.7-0.83,1.28
		l5.02,23.34h-2.21l-7.19-33.41c-0.13-0.58-0.7-0.95-1.28-0.83c-0.41,0.09-0.74,0.41-0.83,0.83l-7.19,33.41h-2.21l0.87-4.04
		c0.14-0.58-0.21-1.16-0.79-1.3c-0.58-0.14-1.16,0.21-1.3,0.79c0,0.02-0.01,0.04-0.01,0.06l-0.97,4.49h-1.27
		c-0.6,0-1.08,0.48-1.08,1.08c0,0.6,0.48,1.08,1.08,1.08h28.27c0.6,0,1.08-0.48,1.08-1.08C49.53,71.93,49.04,71.45,48.45,71.45
		L48.45,71.45z M32.16,55.37l3.85-3.17l1.59,7.39L32.16,55.37z M37.35,62.13l-8.29,4.76l2.06-9.59L37.35,62.13z M34.12,43.4
		l1.38,6.42l-3.36,2.77L34.12,43.4z M28.45,69.74l10.09-5.8l1.62,7.51H28.08L28.45,69.74z"/>
</g>
</svg>
