<?xml version="1.0" encoding="utf-8"?>
<!-- Generator: Adobe Illustrator 25.0.1, SVG Export Plug-In . SVG Version: 6.00 Build 0)  -->
<svg version="1.2" baseProfile="tiny" id="Layer_1" xmlns="http://www.w3.org/2000/svg" xmlns:xlink="http://www.w3.org/1999/xlink"
	 x="0px" y="0px" viewBox="0 0 149 140.4" overflow="visible" xml:space="preserve">
<g id="data_image_svg_xml_-_2020-10-17T114042.493" transform="translate(-15.98 -18)">
	<path id="Path_553" fill="#0063B0" d="M94.88,44.29V18h-8.76v26.29H51.07v113.91h8.76V53.05h61.34v105.14h8.76V44.29H94.88z"/>
	<rect id="Rectangle_186" x="67.98" y="61.4" fill="#E50019" width="10" height="9"/>
	<rect id="Rectangle_187" x="85.98" y="61.4" fill="#0063B0" width="9" height="9"/>
	<rect id="Rectangle_188" x="102.98" y="61.4" fill="#0063B0" width="10" height="9"/>
	<rect id="Rectangle_189" x="67.98" y="78.4" fill="#E50019" width="10" height="10"/>
	<rect id="Rectangle_190" x="85.98" y="78.4" fill="#E50019" width="9" height="10"/>
	<rect id="Rectangle_191" x="85.98" y="96.4" fill="#0063B0" width="9" height="10"/>
	<rect id="Rectangle_192" x="102.98" y="96.4" fill="#E50019" width="10" height="10"/>
	<rect id="Rectangle_193" x="67.98" y="114.4" fill="#0063B0" width="10" height="8"/>
	<rect id="Rectangle_194" x="85.98" y="114.4" fill="#0063B0" width="9" height="8"/>
	<path id="Path_554" fill="#0063B0" d="M68.59,131.91v26.29h8.76v-17.52h26.29v17.52h8.76v-26.29H68.59z"/>
	<rect id="Rectangle_195" x="102.98" y="114.4" fill="#E50019" width="10" height="8"/>
	<rect id="Rectangle_196" x="138.98" y="96.4" fill="#0063B0" width="18" height="10"/>
	<rect id="Rectangle_197" x="138.98" y="114.4" fill="#AFAFAF" width="8" height="8"/>
	<rect id="Rectangle_198" x="138.98" y="132.4" fill="#AFAFAF" width="8" height="8"/>
	<rect id="Rectangle_199" x="138.98" y="149.4" fill="#AFAFAF" width="8" height="9"/>
	<rect id="Rectangle_200" x="23.98" y="78.4" fill="#0063B0" width="18" height="10"/>
	<rect id="Rectangle_201" x="15.98" y="88.4" fill="#0063B0" width="8" height="70"/>
	<rect id="Rectangle_202" x="33.98" y="96.4" fill="#AFAFAF" width="8" height="10"/>
	<rect id="Rectangle_203" x="33.98" y="114.4" fill="#AFAFAF" width="8" height="8"/>
	<rect id="Rectangle_204" x="33.98" y="132.4" fill="#AFAFAF" width="8" height="8"/>
	<rect id="Rectangle_205" x="33.98" y="149.4" fill="#AFAFAF" width="8" height="9"/>
	<rect id="Rectangle_206" x="156.98" y="106.4" fill="#0063B0" width="8" height="52"/>
</g>
</svg>
