<?xml version="1.0" encoding="utf-8"?>
<!-- Generator: Adobe Illustrator 25.0.1, SVG Export Plug-In . SVG Version: 6.00 Build 0)  -->
<svg version="1.2" baseProfile="tiny" id="Layer_1" xmlns="http://www.w3.org/2000/svg" xmlns:xlink="http://www.w3.org/1999/xlink"
	 x="0px" y="0px" viewBox="0 0 44 44" overflow="visible" xml:space="preserve">
<g id="Group_2011" transform="translate(-835 -690)">
	<circle id="Ellipse_7" fill="#F2F2F3" cx="857" cy="712" r="22"/>
	<g id="data_image_svg_xml_-_2020-10-25T171840.876" transform="translate(827 681.139)">
		<rect id="Rectangle_419" x="25" y="26.86" fill="#E50019" width="4" height="3"/>
		<rect id="Rectangle_420" x="25" y="32.86" fill="#E50019" width="4" height="3"/>
		<path id="Path_787" fill="#E50019" d="M41.42,27.36c0-0.86-0.69-1.56-1.56-1.56c0,0,0,0,0,0h-4.68v-3.12
			c0-0.59-0.33-1.13-0.86-1.4l-6.24-3.12c-0.44-0.22-0.96-0.22-1.4,0l-6.24,3.12c-0.53,0.27-0.86,0.81-0.86,1.4v17.17H18v3.12h24.98
			v-3.12h-1.56V27.36z M22.68,23.65l4.68-2.35l4.68,2.34v16.21h-9.37V23.65z M35.17,39.85V28.93h3.12v10.93H35.17z"/>
	</g>
</g>
</svg>
