<?xml version="1.0" encoding="utf-8"?>
<!-- Generator: Adobe Illustrator 25.0.1, SVG Export Plug-In . SVG Version: 6.00 Build 0)  -->
<svg version="1.2" baseProfile="tiny" id="Layer_1" xmlns="http://www.w3.org/2000/svg" xmlns:xlink="http://www.w3.org/1999/xlink"
	 x="0px" y="0px" viewBox="0 0 48.85 48.85" overflow="visible" xml:space="preserve">
<g id="Group_1685" transform="translate(-750.718 -2980)">
	<path id="Path_732" fill="#1FA3F9" d="M775.14,2980c13.49,0,24.42,10.93,24.42,24.42c0,13.49-10.93,24.42-24.42,24.42
		c-13.49,0-24.42-10.93-24.42-24.42c0,0,0,0,0,0C750.72,2990.93,761.65,2980,775.14,2980z"/>
	<g id="Twitter" transform="translate(764.57 2993.852)">
		<path id="Path_2" fill="#FFFFFF" d="M6.93,20.75c8.26,0,12.76-7.12,12.76-13.35V6.76c0.85-0.68,1.59-1.5,2.19-2.42
			c-0.81,0.37-1.67,0.63-2.55,0.76c0.91-0.61,1.6-1.5,1.94-2.54c-0.87,0.51-1.81,0.9-2.79,1.14c-0.81-0.97-2.01-1.53-3.28-1.53
			c-2.53,0.09-4.52,2.18-4.5,4.7c-0.03,0.34,0.01,0.69,0.12,1.02C7.15,7.7,3.77,5.89,1.58,2.95c-0.4,0.74-0.61,1.57-0.61,2.42
			C0.99,6.9,1.71,8.35,2.91,9.31C2.18,9.29,1.46,9.07,0.85,8.67l0,0c-0.04,2.21,1.5,4.13,3.65,4.58c-0.39,0.11-0.81,0.15-1.22,0.13
			C3,13.4,2.7,13.36,2.43,13.25c0.57,1.9,2.27,3.23,4.25,3.31c-1.58,1.3-3.55,2.01-5.59,2.03C0.72,18.61,0.35,18.57,0,18.46
			C1.99,19.98,4.43,20.79,6.93,20.75"/>
	</g>
</g>
</svg>
