<?xml version="1.0" encoding="utf-8"?>
<!-- Generator: Adobe Illustrator 25.0.1, SVG Export Plug-In . SVG Version: 6.00 Build 0)  -->
<svg version="1.2" baseProfile="tiny" id="Layer_1" xmlns="http://www.w3.org/2000/svg" xmlns:xlink="http://www.w3.org/1999/xlink"
	 x="0px" y="0px" viewBox="0 0 68.23 68.24" overflow="visible" xml:space="preserve">
<g>
	<path id="Path_169" fill="#E50019" d="M57.31,23.41l0.96-0.96c2.02-2.02,2.45-5.13,1.05-7.61l3.45-3.45L60.59,9.2l4.15-4.15
		l-1.55-1.55l-4.15,4.15l-2.19-2.19L53.4,8.92c-2.48-1.4-5.6-0.97-7.61,1.05l-0.96,0.96L33.89,0l-8.11,8.11l10.93,10.93l-2.19,2.19
		l2.8,2.8l-6.56,2.19l11.25,11.25l2.18-6.56l2.8,2.8l2.19-2.19l10.93,10.94l8.11-8.11L57.31,23.41z M65.15,34.35l-1.73,1.73
		l-3.92-3.92l1.73-1.73L65.15,34.35z M59.69,28.88l-1.73,1.74l-3.92-3.92l1.73-1.73L59.69,28.88z M59.69,11.39l-1.73,1.73
		l-2.83-2.83l1.73-1.73L59.69,11.39z M41.55,14.21l-3.92-3.92l1.73-1.73l3.92,3.92L41.55,14.21z M37.82,7.01l-1.73,1.74l-3.92-3.92
		l1.73-1.73L37.82,7.01z M30.62,6.37l3.92,3.92l-1.73,1.73l-3.92-3.92L30.62,6.37z M34.35,13.57l1.73-1.73l3.92,3.92l-1.73,1.74
		L34.35,13.57z M41.07,33.42l-6.24-6.25l4.24-1.41l3.42,3.42L41.07,33.42z M37.63,21.23l9.71-9.71c1.63-1.63,4.28-1.64,5.92,0
		c0,0,0,0,0,0l3.47,3.47c1.63,1.63,1.64,4.28,0.01,5.91c0,0,0,0-0.01,0.01l-9.71,9.71L37.63,21.23z M52.49,28.24l3.92,3.92
		l-1.73,1.73l-3.92-3.92L52.49,28.24z M56.22,35.44l1.74-1.73l3.92,3.92l-1.73,1.73L56.22,35.44z"/>
	<path id="Path_170" fill="#E50019" d="M41.09,22.32l4.83,4.83l9.2-9.2l-4.83-4.83L41.09,22.32z M45.92,24.05l-1.73-1.73l6.11-6.11
		l1.73,1.73L45.92,24.05z"/>
	<path id="Path_171" fill="#0063B0" d="M21.87,34.35c-1.51,0-2.82,1.04-3.17,2.5l-7.35,0.74l-1.5-1.5l-3.28,3.28l-2.19-2.19
		L3.6,37.95c-2.31,2.3-3.61,5.43-3.6,8.69v0.56c0,2.5,0.76,4.93,2.19,6.98v14.06h17.49v-2.86l-6.56-3.28v-2.62
		c3.17-0.06,6.19-1.34,8.43-3.59l0.77-0.77l-2.18-2.18l3.28-3.28l-1.5-1.5l0.73-7.35c1.76-0.43,2.83-2.2,2.4-3.96
		C24.69,35.38,23.38,34.35,21.87,34.35L21.87,34.35z M18.91,39.02v0.01l-3.06,3.06l-2.52-2.52L18.91,39.02z M10.93,61.68H4.37v-5.09
		c1.86,1.57,4.14,2.56,6.56,2.83V61.68z M16.14,66.05H4.37v-2.19h7.4L16.14,66.05z M12.85,57.31h-0.56
		C6.71,57.3,2.19,52.78,2.19,47.2v-0.56c-0.01-2.3,0.78-4.54,2.23-6.33l14.77,14.77C17.39,56.53,15.16,57.32,12.85,57.31
		L12.85,57.31z M18.59,51.39L8.1,40.91l1.73-1.73l10.48,10.48L18.59,51.39z M17.4,43.64l3.06-3.06h0.01l-0.56,5.57L17.4,43.64z
		 M21.87,38.72c-0.6,0-1.09-0.49-1.09-1.09s0.49-1.09,1.09-1.09c0.6,0,1.09,0.49,1.09,1.09c0,0,0,0,0,0
		C22.96,38.23,22.47,38.72,21.87,38.72z"/>
	<path id="Path_172" fill="#0063B0" d="M16.4,20.13c0,1.81,1.47,3.28,3.28,3.28s3.28-1.47,3.28-3.28s-1.47-3.28-3.28-3.28
		C17.87,16.85,16.4,18.32,16.4,20.13z M20.77,20.13c0,0.6-0.49,1.09-1.09,1.09s-1.09-0.49-1.09-1.09c0-0.6,0.49-1.09,1.09-1.09
		C20.28,19.04,20.77,19.53,20.77,20.13z"/>
	<path id="Path_173" fill="#0063B0" d="M19.68,12.48c-4.22,0.01-7.65,3.43-7.65,7.65h2.18c0-3.02,2.45-5.46,5.47-5.47L19.68,12.48z"
		/>
	<path id="Path_174" fill="#0063B0" d="M19.68,10.29V8.11C13.04,8.11,7.66,13.49,7.65,20.13h2.18C9.84,14.7,14.25,10.3,19.68,10.29
		L19.68,10.29z"/>
	<path id="Path_175" fill="#0063B0" d="M51.39,48.56c0-1.81-1.47-3.28-3.28-3.28c-1.81,0-3.28,1.47-3.28,3.28
		c0,1.81,1.47,3.28,3.28,3.28C49.92,51.84,51.38,50.37,51.39,48.56L51.39,48.56z M47.01,48.56c0-0.6,0.49-1.09,1.09-1.1
		c0.6,0,1.09,0.49,1.1,1.09c0,0.6-0.49,1.09-1.09,1.1c0,0,0,0,0,0C47.5,49.65,47.02,49.16,47.01,48.56z"/>
	<path id="Path_176" fill="#0063B0" d="M48.11,56.21c4.22,0,7.65-3.43,7.66-7.65h-2.19c0,3.02-2.45,5.46-5.47,5.47V56.21z"/>
	<path id="Path_177" fill="#0063B0" d="M48.11,58.4v2.18c6.64-0.01,12.02-5.38,12.03-12.02h-2.19
		C57.94,53.99,53.54,58.39,48.11,58.4L48.11,58.4z"/>
</g>
</svg>
