<?xml version="1.0" encoding="utf-8"?>
<!-- Generator: Adobe Illustrator 25.0.1, SVG Export Plug-In . SVG Version: 6.00 Build 0)  -->
<svg version="1.2" baseProfile="tiny" id="Layer_1" xmlns="http://www.w3.org/2000/svg" xmlns:xlink="http://www.w3.org/1999/xlink"
	 x="0px" y="0px" viewBox="0 0 67 67" overflow="visible" xml:space="preserve">
<g>
	<path id="Path_733" fill="#FA665E" d="M33.5,0C52,0,67,15,67,33.5S52,67,33.5,67S0,52,0,33.5S15,0,33.5,0z"/>
	<path id="Exclusion_1" fill="#FFFFFF" d="M31.44,48.31L31.44,48.31c-0.73,0-1.44-0.01-2.11-0.01c-0.47-0.01-0.95-0.01-1.42-0.02
		c-1.49-0.01-3.02-0.03-4.53-0.13c-1.95-0.04-3.88-0.37-5.73-0.99c-3.3-1.34-3.46-5.37-3.58-8.32c-0.09-2.27-0.09-4.52-0.07-7.02
		c0-0.28,0-0.57,0-0.86c0-2.39,0-5.09,1-7.25c0.56-1.21,1.58-2.14,2.83-2.59c1.26-0.43,2.58-0.67,3.92-0.72
		c2.22-0.18,4.46-0.23,6.62-0.27c2.55-0.06,5.19-0.12,7.82-0.12c1.85,0,3.51,0.03,5.09,0.09c2.29,0.09,4.37,0.24,6.35,0.46
		c1.61,0.18,3.42,0.49,4.56,1.87c1.27,1.54,1.53,3.67,1.7,5.9c0.03,0.46,0.06,0.93,0.08,1.42c0.04,1.13,0.03,2.28,0.02,3.4
		c0,0.52-0.01,1.05-0.01,1.58c0,0.36,0,0.73,0.01,1.1c0.06,1.88-0.02,3.77-0.24,5.64c-0.34,2.34-1,4.84-3.33,5.64
		c-2.72,0.77-5.54,1.12-8.37,1.03h-0.25c-0.94,0.02-1.89,0.04-2.81,0.06h-0.01C36.51,48.25,33.96,48.31,31.44,48.31z M29.94,28.02
		v12.17l6.33-3.72l4.03-2.37l-6.39-3.75L29.94,28.02z"/>
</g>
</svg>
